<?xml version="1.0" encoding="UTF-8" standalone="no"?>
<?xml-stylesheet href="styles.css" type="text/css"?>
<!DOCTYPE svg PUBLIC "-//W3C//DTD SVG 1.1//EN"
 "http://www.w3.org/Graphics/SVG/1.1/DTD/svg11.dtd">
<!-- Generated by graphviz version 3.0.0 (20220226.1711)
 -->
<!-- Title: FirFilter Pages: 1 -->
<svg width="1629pt" height="305pt"
 viewBox="0.00 0.00 1629.00 305.00" xmlns="http://www.w3.org/2000/svg" xmlns:xlink="http://www.w3.org/1999/xlink">
<g id="graph0" class="graph" transform="scale(1 1) rotate(0) translate(4 301)">
<title>FirFilter</title>
<polygon fill="white" stroke="transparent" points="-4,4 -4,-301 1625,-301 1625,4 -4,4"/>
<g id="clust1" class="cluster">
<title>cluster_FirFilter</title>
<polygon fill="#fff8dc" stroke="black" points="8,-8 8,-289 1613,-289 1613,-8 8,-8"/>
<text text-anchor="middle" x="810.5" y="-273.8" font-family="Times,serif" font-size="14.00">FirFilter</text>
</g>
<!-- cluster_FirFilter_clock -->
<g id="node1" class="node">
<title>cluster_FirFilter_clock</title>
<polygon fill="#cccccc" stroke="black" points="70,-258 16,-258 16,-222 70,-222 70,-258"/>
<text text-anchor="middle" x="43" y="-236.3" font-family="Times,serif" font-size="14.00">clock</text>
</g>
<!-- cluster_FirFilter_reset -->
<g id="node2" class="node">
<title>cluster_FirFilter_reset</title>
<polygon fill="#cccccc" stroke="black" points="70,-204 16,-204 16,-168 70,-168 70,-204"/>
<text text-anchor="middle" x="43" y="-182.3" font-family="Times,serif" font-size="14.00">reset</text>
</g>
<!-- cluster_FirFilter_io_in -->
<g id="node3" class="node">
<title>cluster_FirFilter_io_in</title>
<polygon fill="#cccccc" stroke="black" points="70,-150 16,-150 16,-114 70,-114 70,-150"/>
<text text-anchor="middle" x="43" y="-128.3" font-family="Times,serif" font-size="14.00">io_in</text>
</g>
<!-- struct_cluster_FirFilter_zs_0 -->
<g id="node5" class="node">
<title>struct_cluster_FirFilter_zs_0</title>
<polygon fill="#ffe4b5" stroke="transparent" points="114,-128.5 114,-153.5 201,-153.5 201,-128.5 114,-128.5"/>
<polygon fill="none" stroke="black" points="114.5,-128 114.5,-153 137.5,-153 137.5,-128 114.5,-128"/>
<text text-anchor="start" x="119.5" y="-136.8" font-family="Times,serif" font-size="14.00">●</text>
<polygon fill="none" stroke="black" points="137.5,-128 137.5,-153 178.5,-153 178.5,-128 137.5,-128"/>
<text text-anchor="start" x="142.5" y="-136.8" font-family="Times,serif" font-size="14.00">zs_0</text>
<polygon fill="none" stroke="black" points="178.5,-128 178.5,-153 201.5,-153 201.5,-128 178.5,-128"/>
<text text-anchor="start" x="183.5" y="-136.8" font-family="Times,serif" font-size="14.00">●</text>
</g>
<!-- cluster_FirFilter_io_in&#45;&gt;struct_cluster_FirFilter_zs_0 -->
<g id="edge3" class="edge">
<title>cluster_FirFilter_io_in&#45;&gt;struct_cluster_FirFilter_zs_0:in</title>
<path fill="none" stroke="black" d="M70.32,-136.47C80.24,-137.87 91.88,-139.2 103.22,-139.74"/>
<polygon fill="black" stroke="black" points="103.41,-143.25 113.5,-140 103.59,-136.25 103.41,-143.25"/>
</g>
<!-- cluster_FirFilter_io_out -->
<g id="node4" class="node">
<title>cluster_FirFilter_io_out</title>
<polygon fill="#e0ffff" stroke="black" points="1605,-107 1546,-107 1546,-71 1605,-71 1605,-107"/>
<text text-anchor="middle" x="1575.5" y="-85.3" font-family="Times,serif" font-size="14.00">io_out</text>
</g>
<!-- struct_cluster_FirFilter_zs_1 -->
<g id="node6" class="node">
<title>struct_cluster_FirFilter_zs_1</title>
<polygon fill="#ffe4b5" stroke="transparent" points="256,-128.5 256,-153.5 343,-153.5 343,-128.5 256,-128.5"/>
<polygon fill="none" stroke="black" points="256.5,-128 256.5,-153 279.5,-153 279.5,-128 256.5,-128"/>
<text text-anchor="start" x="261.5" y="-136.8" font-family="Times,serif" font-size="14.00">●</text>
<polygon fill="none" stroke="black" points="279.5,-128 279.5,-153 320.5,-153 320.5,-128 279.5,-128"/>
<text text-anchor="start" x="284.5" y="-136.8" font-family="Times,serif" font-size="14.00">zs_1</text>
<polygon fill="none" stroke="black" points="320.5,-128 320.5,-153 343.5,-153 343.5,-128 320.5,-128"/>
<text text-anchor="start" x="325.5" y="-136.8" font-family="Times,serif" font-size="14.00">●</text>
</g>
<!-- struct_cluster_FirFilter_zs_0&#45;&gt;struct_cluster_FirFilter_zs_1 -->
<g id="edge20" class="edge">
<title>struct_cluster_FirFilter_zs_0:out&#45;&gt;struct_cluster_FirFilter_zs_1:in</title>
<path fill="none" stroke="black" d="M202.5,-140C222.19,-140 229.54,-140 245.18,-140"/>
<polygon fill="black" stroke="black" points="245.5,-143.5 255.5,-140 245.5,-136.5 245.5,-143.5"/>
</g>
<!-- op_mul_18 -->
<g id="node11" class="node">
<title>op_mul_18</title>
<polygon fill="#d8bfd8" stroke="transparent" points="253,-196 253,-246 346,-246 346,-196 253,-196"/>
<polygon fill="none" stroke="black" points="253.5,-221 253.5,-246 276.5,-246 276.5,-221 253.5,-221"/>
<text text-anchor="start" x="258.5" y="-229.8" font-family="Times,serif" font-size="14.00">●</text>
<polygon fill="none" stroke="black" points="276.5,-196 276.5,-246 323.5,-246 323.5,-196 276.5,-196"/>
<text text-anchor="start" x="281.5" y="-217.3" font-family="Times,serif" font-size="14.00"> mul </text>
<polygon fill="none" stroke="black" points="323.5,-196 323.5,-246 346.5,-246 346.5,-196 323.5,-196"/>
<text text-anchor="start" x="328.5" y="-217.3" font-family="Times,serif" font-size="14.00">●</text>
<polygon fill="none" stroke="black" points="253.5,-196 253.5,-221 276.5,-221 276.5,-196 253.5,-196"/>
<text text-anchor="start" x="260" y="-204.8" font-family="Times,serif" font-size="14.00">1</text>
</g>
<!-- struct_cluster_FirFilter_zs_0&#45;&gt;op_mul_18 -->
<g id="edge8" class="edge">
<title>struct_cluster_FirFilter_zs_0:out&#45;&gt;op_mul_18:in1</title>
<path fill="none" stroke="black" d="M202.5,-140C245.94,-140 211.88,-219.21 242.61,-232.21"/>
<polygon fill="black" stroke="black" points="242.04,-235.66 252.5,-234 243.29,-228.77 242.04,-235.66"/>
</g>
<!-- struct_cluster_FirFilter_zs_2 -->
<g id="node7" class="node">
<title>struct_cluster_FirFilter_zs_2</title>
<polygon fill="#ffe4b5" stroke="transparent" points="401,-96.5 401,-121.5 488,-121.5 488,-96.5 401,-96.5"/>
<polygon fill="none" stroke="black" points="401.5,-96 401.5,-121 424.5,-121 424.5,-96 401.5,-96"/>
<text text-anchor="start" x="406.5" y="-104.8" font-family="Times,serif" font-size="14.00">●</text>
<polygon fill="none" stroke="black" points="424.5,-96 424.5,-121 465.5,-121 465.5,-96 424.5,-96"/>
<text text-anchor="start" x="429.5" y="-104.8" font-family="Times,serif" font-size="14.00">zs_2</text>
<polygon fill="none" stroke="black" points="465.5,-96 465.5,-121 488.5,-121 488.5,-96 465.5,-96"/>
<text text-anchor="start" x="470.5" y="-104.8" font-family="Times,serif" font-size="14.00">●</text>
</g>
<!-- struct_cluster_FirFilter_zs_1&#45;&gt;struct_cluster_FirFilter_zs_2 -->
<g id="edge2" class="edge">
<title>struct_cluster_FirFilter_zs_1:out&#45;&gt;struct_cluster_FirFilter_zs_2:in</title>
<path fill="none" stroke="black" d="M344.5,-140C369.36,-140 371.66,-115.94 390.53,-109.54"/>
<polygon fill="black" stroke="black" points="391.15,-112.99 400.5,-108 390.08,-106.07 391.15,-112.99"/>
</g>
<!-- op_mul_19 -->
<g id="node13" class="node">
<title>op_mul_19</title>
<polygon fill="#d8bfd8" stroke="transparent" points="398,-149 398,-199 491,-199 491,-149 398,-149"/>
<polygon fill="none" stroke="black" points="398.5,-174 398.5,-199 421.5,-199 421.5,-174 398.5,-174"/>
<text text-anchor="start" x="403.5" y="-182.8" font-family="Times,serif" font-size="14.00">●</text>
<polygon fill="none" stroke="black" points="421.5,-149 421.5,-199 468.5,-199 468.5,-149 421.5,-149"/>
<text text-anchor="start" x="426.5" y="-170.3" font-family="Times,serif" font-size="14.00"> mul </text>
<polygon fill="none" stroke="black" points="468.5,-149 468.5,-199 491.5,-199 491.5,-149 468.5,-149"/>
<text text-anchor="start" x="473.5" y="-170.3" font-family="Times,serif" font-size="14.00">●</text>
<polygon fill="none" stroke="black" points="398.5,-149 398.5,-174 421.5,-174 421.5,-149 398.5,-149"/>
<text text-anchor="start" x="405" y="-157.8" font-family="Times,serif" font-size="14.00">2</text>
</g>
<!-- struct_cluster_FirFilter_zs_1&#45;&gt;op_mul_19 -->
<g id="edge22" class="edge">
<title>struct_cluster_FirFilter_zs_1:out&#45;&gt;op_mul_19:in1</title>
<path fill="none" stroke="black" d="M344.5,-140C372.05,-140 367.86,-175.98 387.47,-184.98"/>
<polygon fill="black" stroke="black" points="387.01,-188.46 397.5,-187 388.39,-181.59 387.01,-188.46"/>
</g>
<!-- struct_cluster_FirFilter_zs_3 -->
<g id="node8" class="node">
<title>struct_cluster_FirFilter_zs_3</title>
<polygon fill="#ffe4b5" stroke="transparent" points="546,-43.5 546,-68.5 633,-68.5 633,-43.5 546,-43.5"/>
<polygon fill="none" stroke="black" points="546.5,-43 546.5,-68 569.5,-68 569.5,-43 546.5,-43"/>
<text text-anchor="start" x="551.5" y="-51.8" font-family="Times,serif" font-size="14.00">●</text>
<polygon fill="none" stroke="black" points="569.5,-43 569.5,-68 610.5,-68 610.5,-43 569.5,-43"/>
<text text-anchor="start" x="574.5" y="-51.8" font-family="Times,serif" font-size="14.00">zs_3</text>
<polygon fill="none" stroke="black" points="610.5,-43 610.5,-68 633.5,-68 633.5,-43 610.5,-43"/>
<text text-anchor="start" x="615.5" y="-51.8" font-family="Times,serif" font-size="14.00">●</text>
</g>
<!-- struct_cluster_FirFilter_zs_2&#45;&gt;struct_cluster_FirFilter_zs_3 -->
<g id="edge18" class="edge">
<title>struct_cluster_FirFilter_zs_2:out&#45;&gt;struct_cluster_FirFilter_zs_3:in</title>
<path fill="none" stroke="black" d="M489.5,-108C519.89,-108 513.47,-66.33 535.52,-56.89"/>
<polygon fill="black" stroke="black" points="536.32,-60.3 545.5,-55 535.02,-53.42 536.32,-60.3"/>
</g>
<!-- op_mul_20 -->
<g id="node15" class="node">
<title>op_mul_20</title>
<polygon fill="#d8bfd8" stroke="transparent" points="543,-96 543,-146 636,-146 636,-96 543,-96"/>
<polygon fill="none" stroke="black" points="543.5,-121 543.5,-146 566.5,-146 566.5,-121 543.5,-121"/>
<text text-anchor="start" x="548.5" y="-129.8" font-family="Times,serif" font-size="14.00">●</text>
<polygon fill="none" stroke="black" points="566.5,-96 566.5,-146 613.5,-146 613.5,-96 566.5,-96"/>
<text text-anchor="start" x="571.5" y="-117.3" font-family="Times,serif" font-size="14.00"> mul </text>
<polygon fill="none" stroke="black" points="613.5,-96 613.5,-146 636.5,-146 636.5,-96 613.5,-96"/>
<text text-anchor="start" x="618.5" y="-117.3" font-family="Times,serif" font-size="14.00">●</text>
<polygon fill="none" stroke="black" points="543.5,-96 543.5,-121 566.5,-121 566.5,-96 543.5,-96"/>
<text text-anchor="start" x="550" y="-104.8" font-family="Times,serif" font-size="14.00">3</text>
</g>
<!-- struct_cluster_FirFilter_zs_2&#45;&gt;op_mul_20 -->
<g id="edge9" class="edge">
<title>struct_cluster_FirFilter_zs_2:out&#45;&gt;op_mul_20:in1</title>
<path fill="none" stroke="black" d="M489.5,-108C511.84,-108 515.54,-126.85 532.35,-132.45"/>
<polygon fill="black" stroke="black" points="532.09,-135.95 542.5,-134 533.14,-129.03 532.09,-135.95"/>
</g>
<!-- struct_cluster_FirFilter_zs_4 -->
<g id="node9" class="node">
<title>struct_cluster_FirFilter_zs_4</title>
<polygon fill="#ffe4b5" stroke="transparent" points="691,-22.5 691,-47.5 778,-47.5 778,-22.5 691,-22.5"/>
<polygon fill="none" stroke="black" points="691.5,-22 691.5,-47 714.5,-47 714.5,-22 691.5,-22"/>
<text text-anchor="start" x="696.5" y="-30.8" font-family="Times,serif" font-size="14.00">●</text>
<polygon fill="none" stroke="black" points="714.5,-22 714.5,-47 755.5,-47 755.5,-22 714.5,-22"/>
<text text-anchor="start" x="719.5" y="-30.8" font-family="Times,serif" font-size="14.00">zs_4</text>
<polygon fill="none" stroke="black" points="755.5,-22 755.5,-47 778.5,-47 778.5,-22 755.5,-22"/>
<text text-anchor="start" x="760.5" y="-30.8" font-family="Times,serif" font-size="14.00">●</text>
</g>
<!-- struct_cluster_FirFilter_zs_3&#45;&gt;struct_cluster_FirFilter_zs_4 -->
<g id="edge1" class="edge">
<title>struct_cluster_FirFilter_zs_3:out&#45;&gt;struct_cluster_FirFilter_zs_4:in</title>
<path fill="none" stroke="black" d="M634.5,-55C657.34,-55 662.65,-39.49 680.56,-35.13"/>
<polygon fill="black" stroke="black" points="680.96,-38.61 690.5,-34 680.17,-31.65 680.96,-38.61"/>
</g>
<!-- op_mul_21 -->
<g id="node17" class="node">
<title>op_mul_21</title>
<polygon fill="#d8bfd8" stroke="transparent" points="688,-75 688,-125 781,-125 781,-75 688,-75"/>
<polygon fill="none" stroke="black" points="688.5,-100 688.5,-125 711.5,-125 711.5,-100 688.5,-100"/>
<text text-anchor="start" x="693.5" y="-108.8" font-family="Times,serif" font-size="14.00">●</text>
<polygon fill="none" stroke="black" points="711.5,-75 711.5,-125 758.5,-125 758.5,-75 711.5,-75"/>
<text text-anchor="start" x="716.5" y="-96.3" font-family="Times,serif" font-size="14.00"> mul </text>
<polygon fill="none" stroke="black" points="758.5,-75 758.5,-125 781.5,-125 781.5,-75 758.5,-75"/>
<text text-anchor="start" x="763.5" y="-96.3" font-family="Times,serif" font-size="14.00">●</text>
<polygon fill="none" stroke="black" points="688.5,-75 688.5,-100 711.5,-100 711.5,-75 688.5,-75"/>
<text text-anchor="start" x="695" y="-83.8" font-family="Times,serif" font-size="14.00">2</text>
</g>
<!-- struct_cluster_FirFilter_zs_3&#45;&gt;op_mul_21 -->
<g id="edge25" class="edge">
<title>struct_cluster_FirFilter_zs_3:out&#45;&gt;op_mul_21:in1</title>
<path fill="none" stroke="black" d="M634.5,-55C665.46,-55 655.73,-100.6 677.47,-110.94"/>
<polygon fill="black" stroke="black" points="677,-114.41 687.5,-113 678.41,-107.56 677,-114.41"/>
</g>
<!-- op_mul_24 -->
<g id="node22" class="node">
<title>op_mul_24</title>
<polygon fill="#d8bfd8" stroke="transparent" points="833,-20 833,-70 926,-70 926,-20 833,-20"/>
<polygon fill="none" stroke="black" points="833.5,-45 833.5,-70 856.5,-70 856.5,-45 833.5,-45"/>
<text text-anchor="start" x="838.5" y="-53.8" font-family="Times,serif" font-size="14.00">●</text>
<polygon fill="none" stroke="black" points="856.5,-20 856.5,-70 903.5,-70 903.5,-20 856.5,-20"/>
<text text-anchor="start" x="861.5" y="-41.3" font-family="Times,serif" font-size="14.00"> mul </text>
<polygon fill="none" stroke="black" points="903.5,-20 903.5,-70 926.5,-70 926.5,-20 903.5,-20"/>
<text text-anchor="start" x="908.5" y="-41.3" font-family="Times,serif" font-size="14.00">●</text>
<polygon fill="none" stroke="black" points="833.5,-20 833.5,-45 856.5,-45 856.5,-20 833.5,-20"/>
<text text-anchor="start" x="840" y="-28.8" font-family="Times,serif" font-size="14.00">1</text>
</g>
<!-- struct_cluster_FirFilter_zs_4&#45;&gt;op_mul_24 -->
<g id="edge12" class="edge">
<title>struct_cluster_FirFilter_zs_4:out&#45;&gt;op_mul_24:in1</title>
<path fill="none" stroke="black" d="M779.5,-34C801.52,-34 805.72,-51.4 822.45,-56.57"/>
<polygon fill="black" stroke="black" points="822.11,-60.06 832.5,-58 823.09,-53.13 822.11,-60.06"/>
</g>
<!-- cluster_FirFilter__T -->
<g id="node10" class="node">
<title>cluster_FirFilter__T</title>
<polygon fill="none" stroke="black" points="471.5,-257 417.5,-257 417.5,-221 471.5,-221 471.5,-257"/>
<text text-anchor="middle" x="444.5" y="-235.3" font-family="Times,serif" font-size="14.00">_T</text>
</g>
<!-- op_pad_22 -->
<g id="node19" class="node">
<title>op_pad_22</title>
<polygon fill="#d8bfd8" stroke="transparent" points="543.5,-227.5 543.5,-252.5 635.5,-252.5 635.5,-227.5 543.5,-227.5"/>
<polygon fill="none" stroke="black" points="543.5,-227 543.5,-252 566.5,-252 566.5,-227 543.5,-227"/>
<text text-anchor="start" x="548.5" y="-235.8" font-family="Times,serif" font-size="14.00">●</text>
<polygon fill="none" stroke="black" points="566.5,-227 566.5,-252 612.5,-252 612.5,-227 566.5,-227"/>
<text text-anchor="start" x="571.5" y="-235.8" font-family="Times,serif" font-size="14.00"> pad </text>
<polygon fill="none" stroke="black" points="612.5,-227 612.5,-252 635.5,-252 635.5,-227 612.5,-227"/>
<text text-anchor="start" x="617.5" y="-235.8" font-family="Times,serif" font-size="14.00">●</text>
</g>
<!-- cluster_FirFilter__T&#45;&gt;op_pad_22 -->
<g id="edge13" class="edge">
<title>cluster_FirFilter__T&#45;&gt;op_pad_22:in1</title>
<path fill="none" stroke="black" d="M471.85,-239C488.61,-239 511.08,-239 532.25,-239"/>
<polygon fill="black" stroke="black" points="532.5,-242.5 542.5,-239 532.5,-235.5 532.5,-242.5"/>
</g>
<!-- op_mul_18&#45;&gt;cluster_FirFilter__T -->
<g id="edge23" class="edge">
<title>op_mul_18:out&#45;&gt;cluster_FirFilter__T</title>
<path fill="none" stroke="black" d="M347.5,-221C367.58,-221 389.62,-224.85 407.52,-228.99"/>
<polygon fill="black" stroke="black" points="406.72,-232.4 417.26,-231.37 408.38,-225.6 406.72,-232.4"/>
</g>
<!-- cluster_FirFilter_products_1 -->
<g id="node12" class="node">
<title>cluster_FirFilter_products_1</title>
<polygon fill="none" stroke="black" points="637,-204 542,-204 542,-168 637,-168 637,-204"/>
<text text-anchor="middle" x="589.5" y="-182.3" font-family="Times,serif" font-size="14.00">products_1</text>
</g>
<!-- op_add_28 -->
<g id="node26" class="node">
<title>op_add_28</title>
<polygon fill="#d8bfd8" stroke="transparent" points="833.5,-204 833.5,-254 925.5,-254 925.5,-204 833.5,-204"/>
<polygon fill="none" stroke="black" points="833.5,-229 833.5,-254 856.5,-254 856.5,-229 833.5,-229"/>
<text text-anchor="start" x="838.5" y="-237.8" font-family="Times,serif" font-size="14.00">●</text>
<polygon fill="none" stroke="black" points="856.5,-204 856.5,-254 902.5,-254 902.5,-204 856.5,-204"/>
<text text-anchor="start" x="861.5" y="-225.3" font-family="Times,serif" font-size="14.00"> add </text>
<polygon fill="none" stroke="black" points="902.5,-204 902.5,-254 925.5,-254 925.5,-204 902.5,-204"/>
<text text-anchor="start" x="907.5" y="-225.3" font-family="Times,serif" font-size="14.00">●</text>
<polygon fill="none" stroke="black" points="833.5,-204 833.5,-229 856.5,-229 856.5,-204 833.5,-204"/>
<text text-anchor="start" x="838.5" y="-212.8" font-family="Times,serif" font-size="14.00">●</text>
</g>
<!-- cluster_FirFilter_products_1&#45;&gt;op_add_28 -->
<g id="edge4" class="edge">
<title>cluster_FirFilter_products_1&#45;&gt;op_add_28:in2</title>
<path fill="none" stroke="black" d="M637.05,-192.4C694.26,-200.18 787.96,-212.62 822.22,-215.42"/>
<polygon fill="black" stroke="black" points="822.32,-218.93 832.5,-216 822.71,-211.95 822.32,-218.93"/>
</g>
<!-- op_mul_19&#45;&gt;cluster_FirFilter_products_1 -->
<g id="edge21" class="edge">
<title>op_mul_19:out&#45;&gt;cluster_FirFilter_products_1</title>
<path fill="none" stroke="black" d="M492.5,-174C505.22,-174 518.82,-175.05 531.66,-176.53"/>
<polygon fill="black" stroke="black" points="531.41,-180.03 541.77,-177.8 532.28,-173.08 531.41,-180.03"/>
</g>
<!-- cluster_FirFilter_products_2 -->
<g id="node14" class="node">
<title>cluster_FirFilter_products_2</title>
<polygon fill="none" stroke="black" points="782,-183 687,-183 687,-147 782,-147 782,-183"/>
<text text-anchor="middle" x="734.5" y="-161.3" font-family="Times,serif" font-size="14.00">products_2</text>
</g>
<!-- op_pad_29 -->
<g id="node27" class="node">
<title>op_pad_29</title>
<polygon fill="#d8bfd8" stroke="transparent" points="833.5,-151.5 833.5,-176.5 925.5,-176.5 925.5,-151.5 833.5,-151.5"/>
<polygon fill="none" stroke="black" points="833.5,-151 833.5,-176 856.5,-176 856.5,-151 833.5,-151"/>
<text text-anchor="start" x="838.5" y="-159.8" font-family="Times,serif" font-size="14.00">●</text>
<polygon fill="none" stroke="black" points="856.5,-151 856.5,-176 902.5,-176 902.5,-151 856.5,-151"/>
<text text-anchor="start" x="861.5" y="-159.8" font-family="Times,serif" font-size="14.00"> pad </text>
<polygon fill="none" stroke="black" points="902.5,-151 902.5,-176 925.5,-176 925.5,-151 902.5,-151"/>
<text text-anchor="start" x="907.5" y="-159.8" font-family="Times,serif" font-size="14.00">●</text>
</g>
<!-- cluster_FirFilter_products_2&#45;&gt;op_pad_29 -->
<g id="edge14" class="edge">
<title>cluster_FirFilter_products_2&#45;&gt;op_pad_29:in1</title>
<path fill="none" stroke="black" d="M782.37,-163.64C795.05,-163.36 808.98,-163.12 822.38,-163.03"/>
<polygon fill="black" stroke="black" points="822.51,-166.53 832.5,-163 822.49,-159.53 822.51,-166.53"/>
</g>
<!-- op_mul_20&#45;&gt;cluster_FirFilter_products_2 -->
<g id="edge6" class="edge">
<title>op_mul_20:out&#45;&gt;cluster_FirFilter_products_2</title>
<path fill="none" stroke="black" d="M637.5,-121C643.28,-121 666.67,-131.68 688.91,-142.52"/>
<polygon fill="black" stroke="black" points="687.47,-145.71 697.99,-146.98 690.55,-139.43 687.47,-145.71"/>
</g>
<!-- cluster_FirFilter_products_3 -->
<g id="node16" class="node">
<title>cluster_FirFilter_products_3</title>
<polygon fill="none" stroke="black" points="927,-128 832,-128 832,-92 927,-92 927,-128"/>
<text text-anchor="middle" x="879.5" y="-106.3" font-family="Times,serif" font-size="14.00">products_3</text>
</g>
<!-- op_pad_30 -->
<g id="node28" class="node">
<title>op_pad_30</title>
<polygon fill="#d8bfd8" stroke="transparent" points="978,-98.5 978,-123.5 1070,-123.5 1070,-98.5 978,-98.5"/>
<polygon fill="none" stroke="black" points="978,-98 978,-123 1001,-123 1001,-98 978,-98"/>
<text text-anchor="start" x="983" y="-106.8" font-family="Times,serif" font-size="14.00">●</text>
<polygon fill="none" stroke="black" points="1001,-98 1001,-123 1047,-123 1047,-98 1001,-98"/>
<text text-anchor="start" x="1006" y="-106.8" font-family="Times,serif" font-size="14.00"> pad </text>
<polygon fill="none" stroke="black" points="1047,-98 1047,-123 1070,-123 1070,-98 1047,-98"/>
<text text-anchor="start" x="1052" y="-106.8" font-family="Times,serif" font-size="14.00">●</text>
</g>
<!-- cluster_FirFilter_products_3&#45;&gt;op_pad_30 -->
<g id="edge7" class="edge">
<title>cluster_FirFilter_products_3&#45;&gt;op_pad_30:in1</title>
<path fill="none" stroke="black" d="M927.13,-110C939.74,-110 953.6,-110 966.94,-110"/>
<polygon fill="black" stroke="black" points="967,-113.5 977,-110 967,-106.5 967,-113.5"/>
</g>
<!-- op_mul_21&#45;&gt;cluster_FirFilter_products_3 -->
<g id="edge29" class="edge">
<title>op_mul_21:out&#45;&gt;cluster_FirFilter_products_3</title>
<path fill="none" stroke="black" d="M782.5,-100C795.19,-100 808.78,-100.88 821.62,-102.11"/>
<polygon fill="black" stroke="black" points="821.42,-105.61 831.73,-103.16 822.14,-98.64 821.42,-105.61"/>
</g>
<!-- cluster_FirFilter_products_0 -->
<g id="node18" class="node">
<title>cluster_FirFilter_products_0</title>
<polygon fill="none" stroke="black" points="782,-258 687,-258 687,-222 782,-222 782,-258"/>
<text text-anchor="middle" x="734.5" y="-236.3" font-family="Times,serif" font-size="14.00">products_0</text>
</g>
<!-- cluster_FirFilter_products_0&#45;&gt;op_add_28 -->
<g id="edge15" class="edge">
<title>cluster_FirFilter_products_0&#45;&gt;op_add_28:in1</title>
<path fill="none" stroke="black" d="M782.37,-241.36C795.05,-241.64 808.98,-241.88 822.38,-241.97"/>
<polygon fill="black" stroke="black" points="822.49,-245.47 832.5,-242 822.51,-238.47 822.49,-245.47"/>
</g>
<!-- op_pad_22&#45;&gt;cluster_FirFilter_products_0 -->
<g id="edge30" class="edge">
<title>op_pad_22:out&#45;&gt;cluster_FirFilter_products_0</title>
<path fill="none" stroke="black" d="M636.5,-239C649.39,-239 663.24,-239.09 676.33,-239.21"/>
<polygon fill="black" stroke="black" points="676.59,-242.72 686.63,-239.32 676.67,-235.72 676.59,-242.72"/>
</g>
<!-- cluster_FirFilter_products_4 -->
<g id="node20" class="node">
<title>cluster_FirFilter_products_4</title>
<polygon fill="none" stroke="black" points="1215.5,-72 1120.5,-72 1120.5,-36 1215.5,-36 1215.5,-72"/>
<text text-anchor="middle" x="1168" y="-50.3" font-family="Times,serif" font-size="14.00">products_4</text>
</g>
<!-- op_pad_31 -->
<g id="node29" class="node">
<title>op_pad_31</title>
<polygon fill="#d8bfd8" stroke="transparent" points="1266,-50.5 1266,-75.5 1358,-75.5 1358,-50.5 1266,-50.5"/>
<polygon fill="none" stroke="black" points="1266,-50 1266,-75 1289,-75 1289,-50 1266,-50"/>
<text text-anchor="start" x="1271" y="-58.8" font-family="Times,serif" font-size="14.00">●</text>
<polygon fill="none" stroke="black" points="1289,-50 1289,-75 1335,-75 1335,-50 1289,-50"/>
<text text-anchor="start" x="1294" y="-58.8" font-family="Times,serif" font-size="14.00"> pad </text>
<polygon fill="none" stroke="black" points="1335,-50 1335,-75 1358,-75 1358,-50 1335,-50"/>
<text text-anchor="start" x="1340" y="-58.8" font-family="Times,serif" font-size="14.00">●</text>
</g>
<!-- cluster_FirFilter_products_4&#45;&gt;op_pad_31 -->
<g id="edge17" class="edge">
<title>cluster_FirFilter_products_4&#45;&gt;op_pad_31:in1</title>
<path fill="none" stroke="black" d="M1215.81,-59.47C1228.14,-60.58 1241.64,-61.51 1254.68,-61.86"/>
<polygon fill="black" stroke="black" points="1254.95,-65.36 1265,-62 1255.05,-58.36 1254.95,-65.36"/>
</g>
<!-- op_pad_23 -->
<g id="node21" class="node">
<title>op_pad_23</title>
<polygon fill="#d8bfd8" stroke="transparent" points="978,-36.5 978,-61.5 1070,-61.5 1070,-36.5 978,-36.5"/>
<polygon fill="none" stroke="black" points="978,-36 978,-61 1001,-61 1001,-36 978,-36"/>
<text text-anchor="start" x="983" y="-44.8" font-family="Times,serif" font-size="14.00">●</text>
<polygon fill="none" stroke="black" points="1001,-36 1001,-61 1047,-61 1047,-36 1001,-36"/>
<text text-anchor="start" x="1006" y="-44.8" font-family="Times,serif" font-size="14.00"> pad </text>
<polygon fill="none" stroke="black" points="1047,-36 1047,-61 1070,-61 1070,-36 1047,-36"/>
<text text-anchor="start" x="1052" y="-44.8" font-family="Times,serif" font-size="14.00">●</text>
</g>
<!-- op_pad_23&#45;&gt;cluster_FirFilter_products_4 -->
<g id="edge24" class="edge">
<title>op_pad_23:out&#45;&gt;cluster_FirFilter_products_4</title>
<path fill="none" stroke="black" d="M1071,-48C1083.65,-48 1097.22,-48.53 1110.06,-49.27"/>
<polygon fill="black" stroke="black" points="1109.96,-52.77 1120.16,-49.9 1110.4,-45.78 1109.96,-52.77"/>
</g>
<!-- op_mul_24&#45;&gt;op_pad_23 -->
<g id="edge27" class="edge">
<title>op_mul_24:out&#45;&gt;op_pad_23:in1</title>
<path fill="none" stroke="black" d="M927.5,-45C945.75,-45 952.61,-47.06 966.94,-47.76"/>
<polygon fill="black" stroke="black" points="966.92,-51.27 977,-48 967.08,-44.27 966.92,-51.27"/>
</g>
<!-- op_add_25 -->
<g id="node23" class="node">
<title>op_add_25</title>
<polygon fill="#d8bfd8" stroke="transparent" points="1410,-64 1410,-114 1502,-114 1502,-64 1410,-64"/>
<polygon fill="none" stroke="black" points="1410,-89 1410,-114 1433,-114 1433,-89 1410,-89"/>
<text text-anchor="start" x="1415" y="-97.8" font-family="Times,serif" font-size="14.00">●</text>
<polygon fill="none" stroke="black" points="1433,-64 1433,-114 1479,-114 1479,-64 1433,-64"/>
<text text-anchor="start" x="1438" y="-85.3" font-family="Times,serif" font-size="14.00"> add </text>
<polygon fill="none" stroke="black" points="1479,-64 1479,-114 1502,-114 1502,-64 1479,-64"/>
<text text-anchor="start" x="1484" y="-85.3" font-family="Times,serif" font-size="14.00">●</text>
<polygon fill="none" stroke="black" points="1410,-64 1410,-89 1433,-89 1433,-64 1410,-64"/>
<text text-anchor="start" x="1415" y="-72.8" font-family="Times,serif" font-size="14.00">●</text>
</g>
<!-- op_add_25&#45;&gt;cluster_FirFilter_io_out -->
<g id="edge10" class="edge">
<title>op_add_25:out&#45;&gt;cluster_FirFilter_io_out</title>
<path fill="none" stroke="black" d="M1503,-89C1513.61,-89 1525.11,-89 1535.72,-89"/>
<polygon fill="black" stroke="black" points="1535.97,-92.5 1545.97,-89 1535.97,-85.5 1535.97,-92.5"/>
</g>
<!-- op_add_26 -->
<g id="node24" class="node">
<title>op_add_26</title>
<polygon fill="#d8bfd8" stroke="transparent" points="1122,-98 1122,-148 1214,-148 1214,-98 1122,-98"/>
<polygon fill="none" stroke="black" points="1122,-123 1122,-148 1145,-148 1145,-123 1122,-123"/>
<text text-anchor="start" x="1127" y="-131.8" font-family="Times,serif" font-size="14.00">●</text>
<polygon fill="none" stroke="black" points="1145,-98 1145,-148 1191,-148 1191,-98 1145,-98"/>
<text text-anchor="start" x="1150" y="-119.3" font-family="Times,serif" font-size="14.00"> add </text>
<polygon fill="none" stroke="black" points="1191,-98 1191,-148 1214,-148 1214,-98 1191,-98"/>
<text text-anchor="start" x="1196" y="-119.3" font-family="Times,serif" font-size="14.00">●</text>
<polygon fill="none" stroke="black" points="1122,-98 1122,-123 1145,-123 1145,-98 1122,-98"/>
<text text-anchor="start" x="1127" y="-106.8" font-family="Times,serif" font-size="14.00">●</text>
</g>
<!-- op_add_26&#45;&gt;op_add_25 -->
<g id="edge19" class="edge">
<title>op_add_26:out&#45;&gt;op_add_25:in1</title>
<path fill="none" stroke="black" d="M1215,-123C1298.17,-123 1320.48,-103.69 1398.65,-102.1"/>
<polygon fill="black" stroke="black" points="1399.04,-105.6 1409,-102 1398.97,-98.6 1399.04,-105.6"/>
</g>
<!-- op_add_27 -->
<g id="node25" class="node">
<title>op_add_27</title>
<polygon fill="#d8bfd8" stroke="transparent" points="978,-151 978,-201 1070,-201 1070,-151 978,-151"/>
<polygon fill="none" stroke="black" points="978,-176 978,-201 1001,-201 1001,-176 978,-176"/>
<text text-anchor="start" x="983" y="-184.8" font-family="Times,serif" font-size="14.00">●</text>
<polygon fill="none" stroke="black" points="1001,-151 1001,-201 1047,-201 1047,-151 1001,-151"/>
<text text-anchor="start" x="1006" y="-172.3" font-family="Times,serif" font-size="14.00"> add </text>
<polygon fill="none" stroke="black" points="1047,-151 1047,-201 1070,-201 1070,-151 1047,-151"/>
<text text-anchor="start" x="1052" y="-172.3" font-family="Times,serif" font-size="14.00">●</text>
<polygon fill="none" stroke="black" points="978,-151 978,-176 1001,-176 1001,-151 978,-151"/>
<text text-anchor="start" x="983" y="-159.8" font-family="Times,serif" font-size="14.00">●</text>
</g>
<!-- op_add_27&#45;&gt;op_add_26 -->
<g id="edge28" class="edge">
<title>op_add_27:out&#45;&gt;op_add_26:in1</title>
<path fill="none" stroke="black" d="M1071,-176C1095.46,-176 1093.79,-146.46 1110.9,-138.15"/>
<polygon fill="black" stroke="black" points="1111.95,-141.51 1121,-136 1110.49,-134.66 1111.95,-141.51"/>
</g>
<!-- op_add_28&#45;&gt;op_add_27 -->
<g id="edge5" class="edge">
<title>op_add_28:out&#45;&gt;op_add_27:in1</title>
<path fill="none" stroke="black" d="M926.5,-229C951.11,-229 949.57,-199.46 966.82,-191.15"/>
<polygon fill="black" stroke="black" points="967.94,-194.49 977,-189 966.49,-187.64 967.94,-194.49"/>
</g>
<!-- op_pad_29&#45;&gt;op_add_27 -->
<g id="edge26" class="edge">
<title>op_pad_29:out&#45;&gt;op_add_27:in2</title>
<path fill="none" stroke="black" d="M926.5,-163C945.09,-163 952.13,-163 966.75,-163"/>
<polygon fill="black" stroke="black" points="967,-166.5 977,-163 967,-159.5 967,-166.5"/>
</g>
<!-- op_pad_30&#45;&gt;op_add_26 -->
<g id="edge16" class="edge">
<title>op_pad_30:out&#45;&gt;op_add_26:in2</title>
<path fill="none" stroke="black" d="M1071,-110C1089.4,-110 1096.38,-110 1110.85,-110"/>
<polygon fill="black" stroke="black" points="1111,-113.5 1121,-110 1111,-106.5 1111,-113.5"/>
</g>
<!-- op_pad_31&#45;&gt;op_add_25 -->
<g id="edge11" class="edge">
<title>op_pad_31:out&#45;&gt;op_add_25:in2</title>
<path fill="none" stroke="black" d="M1359,-62C1378.29,-62 1384.14,-71.78 1399.02,-74.99"/>
<polygon fill="black" stroke="black" points="1398.7,-78.48 1409,-76 1399.4,-71.51 1398.7,-78.48"/>
</g>
</g>
</svg>
