<?xml version="1.0" encoding="UTF-8" standalone="no"?>
<?xml-stylesheet href="styles.css" type="text/css"?>
<!DOCTYPE svg PUBLIC "-//W3C//DTD SVG 1.1//EN"
 "http://www.w3.org/Graphics/SVG/1.1/DTD/svg11.dtd">
<!-- Generated by graphviz version 3.0.0 (20220226.1711)
 -->
<!-- Title: FirFilter Pages: 1 -->
<svg width="893pt" height="207pt"
 viewBox="0.00 0.00 893.00 207.00" xmlns="http://www.w3.org/2000/svg" xmlns:xlink="http://www.w3.org/1999/xlink">
<g id="graph0" class="graph" transform="scale(1 1) rotate(0) translate(4 203)">
<title>FirFilter</title>
<polygon fill="white" stroke="transparent" points="-4,4 -4,-203 889,-203 889,4 -4,4"/>
<g id="clust1" class="cluster">
<title>cluster_FirFilter</title>
<polygon fill="#fff8dc" stroke="black" points="8,-8 8,-191 877,-191 877,-8 8,-8"/>
<text text-anchor="middle" x="442.5" y="-175.8" font-family="Times,serif" font-size="14.00">FirFilter</text>
</g>
<!-- cluster_FirFilter_clock -->
<g id="node1" class="node">
<title>cluster_FirFilter_clock</title>
<polygon fill="#cccccc" stroke="black" points="70,-160 16,-160 16,-124 70,-124 70,-160"/>
<text text-anchor="middle" x="43" y="-138.3" font-family="Times,serif" font-size="14.00">clock</text>
</g>
<!-- cluster_FirFilter_reset -->
<g id="node2" class="node">
<title>cluster_FirFilter_reset</title>
<polygon fill="#cccccc" stroke="black" points="70,-106 16,-106 16,-70 70,-70 70,-106"/>
<text text-anchor="middle" x="43" y="-84.3" font-family="Times,serif" font-size="14.00">reset</text>
</g>
<!-- cluster_FirFilter_io_in -->
<g id="node3" class="node">
<title>cluster_FirFilter_io_in</title>
<polygon fill="#cccccc" stroke="black" points="70,-52 16,-52 16,-16 70,-16 70,-52"/>
<text text-anchor="middle" x="43" y="-30.3" font-family="Times,serif" font-size="14.00">io_in</text>
</g>
<!-- struct_cluster_FirFilter_zs_0 -->
<g id="node5" class="node">
<title>struct_cluster_FirFilter_zs_0</title>
<polygon fill="#ffe4b5" stroke="transparent" points="114,-22.5 114,-47.5 201,-47.5 201,-22.5 114,-22.5"/>
<polygon fill="none" stroke="black" points="114.5,-22 114.5,-47 137.5,-47 137.5,-22 114.5,-22"/>
<text text-anchor="start" x="119.5" y="-30.8" font-family="Times,serif" font-size="14.00">●</text>
<polygon fill="none" stroke="black" points="137.5,-22 137.5,-47 178.5,-47 178.5,-22 137.5,-22"/>
<text text-anchor="start" x="142.5" y="-30.8" font-family="Times,serif" font-size="14.00">zs_0</text>
<polygon fill="none" stroke="black" points="178.5,-22 178.5,-47 201.5,-47 201.5,-22 178.5,-22"/>
<text text-anchor="start" x="183.5" y="-30.8" font-family="Times,serif" font-size="14.00">●</text>
</g>
<!-- cluster_FirFilter_io_in&#45;&gt;struct_cluster_FirFilter_zs_0 -->
<g id="edge1" class="edge">
<title>cluster_FirFilter_io_in&#45;&gt;struct_cluster_FirFilter_zs_0:in</title>
<path fill="none" stroke="black" d="M70.07,-34C80.06,-34 91.79,-34 103.19,-34"/>
<polygon fill="black" stroke="black" points="103.5,-37.5 113.5,-34 103.5,-30.5 103.5,-37.5"/>
</g>
<!-- cluster_FirFilter_io_out -->
<g id="node4" class="node">
<title>cluster_FirFilter_io_out</title>
<polygon fill="#e0ffff" stroke="black" points="869,-90 810,-90 810,-54 869,-54 869,-90"/>
<text text-anchor="middle" x="839.5" y="-68.3" font-family="Times,serif" font-size="14.00">io_out</text>
</g>
<!-- struct_cluster_FirFilter_zs_1 -->
<g id="node6" class="node">
<title>struct_cluster_FirFilter_zs_1</title>
<polygon fill="#ffe4b5" stroke="transparent" points="256,-22.5 256,-47.5 343,-47.5 343,-22.5 256,-22.5"/>
<polygon fill="none" stroke="black" points="256.5,-22 256.5,-47 279.5,-47 279.5,-22 256.5,-22"/>
<text text-anchor="start" x="261.5" y="-30.8" font-family="Times,serif" font-size="14.00">●</text>
<polygon fill="none" stroke="black" points="279.5,-22 279.5,-47 320.5,-47 320.5,-22 279.5,-22"/>
<text text-anchor="start" x="284.5" y="-30.8" font-family="Times,serif" font-size="14.00">zs_1</text>
<polygon fill="none" stroke="black" points="320.5,-22 320.5,-47 343.5,-47 343.5,-22 320.5,-22"/>
<text text-anchor="start" x="325.5" y="-30.8" font-family="Times,serif" font-size="14.00">●</text>
</g>
<!-- struct_cluster_FirFilter_zs_0&#45;&gt;struct_cluster_FirFilter_zs_1 -->
<g id="edge3" class="edge">
<title>struct_cluster_FirFilter_zs_0:out&#45;&gt;struct_cluster_FirFilter_zs_1:in</title>
<path fill="none" stroke="black" d="M202.5,-34C222.19,-34 229.54,-34 245.18,-34"/>
<polygon fill="black" stroke="black" points="245.5,-37.5 255.5,-34 245.5,-30.5 245.5,-37.5"/>
</g>
<!-- op_mul_15 -->
<g id="node8" class="node">
<title>op_mul_15</title>
<polygon fill="#d8bfd8" stroke="transparent" points="253,-75 253,-125 346,-125 346,-75 253,-75"/>
<polygon fill="none" stroke="black" points="253.5,-100 253.5,-125 276.5,-125 276.5,-100 253.5,-100"/>
<text text-anchor="start" x="258.5" y="-108.8" font-family="Times,serif" font-size="14.00">●</text>
<polygon fill="none" stroke="black" points="276.5,-75 276.5,-125 323.5,-125 323.5,-75 276.5,-75"/>
<text text-anchor="start" x="281.5" y="-96.3" font-family="Times,serif" font-size="14.00"> mul </text>
<polygon fill="none" stroke="black" points="323.5,-75 323.5,-125 346.5,-125 346.5,-75 323.5,-75"/>
<text text-anchor="start" x="328.5" y="-96.3" font-family="Times,serif" font-size="14.00">●</text>
<polygon fill="none" stroke="black" points="253.5,-75 253.5,-100 276.5,-100 276.5,-75 253.5,-75"/>
<text text-anchor="start" x="260" y="-83.8" font-family="Times,serif" font-size="14.00">0</text>
</g>
<!-- struct_cluster_FirFilter_zs_0&#45;&gt;op_mul_15 -->
<g id="edge4" class="edge">
<title>struct_cluster_FirFilter_zs_0:out&#45;&gt;op_mul_15:in1</title>
<path fill="none" stroke="black" d="M202.5,-34C240.16,-34 216.5,-98.88 242.66,-111.05"/>
<polygon fill="black" stroke="black" points="242.01,-114.49 252.5,-113 243.37,-107.62 242.01,-114.49"/>
</g>
<!-- op_mul_16 -->
<g id="node10" class="node">
<title>op_mul_16</title>
<polygon fill="#d8bfd8" stroke="transparent" points="398,-20 398,-70 491,-70 491,-20 398,-20"/>
<polygon fill="none" stroke="black" points="398.5,-45 398.5,-70 421.5,-70 421.5,-45 398.5,-45"/>
<text text-anchor="start" x="403.5" y="-53.8" font-family="Times,serif" font-size="14.00">●</text>
<polygon fill="none" stroke="black" points="421.5,-20 421.5,-70 468.5,-70 468.5,-20 421.5,-20"/>
<text text-anchor="start" x="426.5" y="-41.3" font-family="Times,serif" font-size="14.00"> mul </text>
<polygon fill="none" stroke="black" points="468.5,-20 468.5,-70 491.5,-70 491.5,-20 468.5,-20"/>
<text text-anchor="start" x="473.5" y="-41.3" font-family="Times,serif" font-size="14.00">●</text>
<polygon fill="none" stroke="black" points="398.5,-20 398.5,-45 421.5,-45 421.5,-20 398.5,-20"/>
<text text-anchor="start" x="405" y="-28.8" font-family="Times,serif" font-size="14.00">1</text>
</g>
<!-- struct_cluster_FirFilter_zs_1&#45;&gt;op_mul_16 -->
<g id="edge7" class="edge">
<title>struct_cluster_FirFilter_zs_1:out&#45;&gt;op_mul_16:in1</title>
<path fill="none" stroke="black" d="M344.5,-34C366.52,-34 370.72,-51.4 387.45,-56.57"/>
<polygon fill="black" stroke="black" points="387.11,-60.06 397.5,-58 388.09,-53.13 387.11,-60.06"/>
</g>
<!-- cluster_FirFilter_products_0 -->
<g id="node7" class="node">
<title>cluster_FirFilter_products_0</title>
<polygon fill="none" stroke="black" points="630,-117 535,-117 535,-81 630,-81 630,-117"/>
<text text-anchor="middle" x="582.5" y="-95.3" font-family="Times,serif" font-size="14.00">products_0</text>
</g>
<!-- op_add_17 -->
<g id="node11" class="node">
<title>op_add_17</title>
<polygon fill="#d8bfd8" stroke="transparent" points="674,-47 674,-97 766,-97 766,-47 674,-47"/>
<polygon fill="none" stroke="black" points="674,-72 674,-97 697,-97 697,-72 674,-72"/>
<text text-anchor="start" x="679" y="-80.8" font-family="Times,serif" font-size="14.00">●</text>
<polygon fill="none" stroke="black" points="697,-47 697,-97 743,-97 743,-47 697,-47"/>
<text text-anchor="start" x="702" y="-68.3" font-family="Times,serif" font-size="14.00"> add </text>
<polygon fill="none" stroke="black" points="743,-47 743,-97 766,-97 766,-47 743,-47"/>
<text text-anchor="start" x="748" y="-68.3" font-family="Times,serif" font-size="14.00">●</text>
<polygon fill="none" stroke="black" points="674,-47 674,-72 697,-72 697,-47 674,-47"/>
<text text-anchor="start" x="679" y="-55.8" font-family="Times,serif" font-size="14.00">●</text>
</g>
<!-- cluster_FirFilter_products_0&#45;&gt;op_add_17 -->
<g id="edge8" class="edge">
<title>cluster_FirFilter_products_0&#45;&gt;op_add_17:in1</title>
<path fill="none" stroke="black" d="M630.2,-88.9C640.6,-87.23 651.78,-85.85 662.67,-85.28"/>
<polygon fill="black" stroke="black" points="663.1,-88.77 673,-85 662.91,-81.77 663.1,-88.77"/>
</g>
<!-- op_mul_15&#45;&gt;cluster_FirFilter_products_0 -->
<g id="edge9" class="edge">
<title>op_mul_15:out&#45;&gt;cluster_FirFilter_products_0</title>
<path fill="none" stroke="black" d="M347.5,-100C408.06,-100 477.43,-99.66 524.82,-99.38"/>
<polygon fill="black" stroke="black" points="524.9,-102.88 534.88,-99.32 524.86,-95.88 524.9,-102.88"/>
</g>
<!-- cluster_FirFilter_products_1 -->
<g id="node9" class="node">
<title>cluster_FirFilter_products_1</title>
<polygon fill="none" stroke="black" points="630,-63 535,-63 535,-27 630,-27 630,-63"/>
<text text-anchor="middle" x="582.5" y="-41.3" font-family="Times,serif" font-size="14.00">products_1</text>
</g>
<!-- cluster_FirFilter_products_1&#45;&gt;op_add_17 -->
<g id="edge5" class="edge">
<title>cluster_FirFilter_products_1&#45;&gt;op_add_17:in2</title>
<path fill="none" stroke="black" d="M630.2,-55.1C640.6,-56.77 651.78,-58.15 662.67,-58.72"/>
<polygon fill="black" stroke="black" points="662.91,-62.23 673,-59 663.1,-55.23 662.91,-62.23"/>
</g>
<!-- op_mul_16&#45;&gt;cluster_FirFilter_products_1 -->
<g id="edge6" class="edge">
<title>op_mul_16:out&#45;&gt;cluster_FirFilter_products_1</title>
<path fill="none" stroke="black" d="M492.5,-45C502.92,-45 514.03,-45 524.74,-45"/>
<polygon fill="black" stroke="black" points="524.85,-48.5 534.85,-45 524.85,-41.5 524.85,-48.5"/>
</g>
<!-- op_add_17&#45;&gt;cluster_FirFilter_io_out -->
<g id="edge2" class="edge">
<title>op_add_17:out&#45;&gt;cluster_FirFilter_io_out</title>
<path fill="none" stroke="black" d="M767,-72C777.61,-72 789.11,-72 799.72,-72"/>
<polygon fill="black" stroke="black" points="799.97,-75.5 809.97,-72 799.97,-68.5 799.97,-75.5"/>
</g>
</g>
</svg>
