<?xml version="1.0" encoding="UTF-8" standalone="no"?>
<?xml-stylesheet href="styles.css" type="text/css"?>
<!DOCTYPE svg PUBLIC "-//W3C//DTD SVG 1.1//EN"
 "http://www.w3.org/Graphics/SVG/1.1/DTD/svg11.dtd">
<!-- Generated by graphviz version 3.0.0 (20220226.1711)
 -->
<!-- Title: Good Pages: 1 -->
<svg width="189pt" height="217pt"
 viewBox="0.00 0.00 189.00 217.00" xmlns="http://www.w3.org/2000/svg" xmlns:xlink="http://www.w3.org/1999/xlink">
<g id="graph0" class="graph" transform="scale(1 1) rotate(0) translate(4 213)">
<title>Good</title>
<polygon fill="white" stroke="transparent" points="-4,4 -4,-213 185,-213 185,4 -4,4"/>
<g id="clust1" class="cluster">
<title>cluster_Good</title>
<polygon fill="#fff8dc" stroke="black" points="8,-8 8,-201 173,-201 173,-8 8,-8"/>
<text text-anchor="middle" x="90.5" y="-185.8" font-family="Times,serif" font-size="14.00">Good</text>
</g>
<!-- cluster_Good_clock -->
<g id="node1" class="node">
<title>cluster_Good_clock</title>
<polygon fill="#cccccc" stroke="black" points="70,-170 16,-170 16,-134 70,-134 70,-170"/>
<text text-anchor="middle" x="43" y="-148.3" font-family="Times,serif" font-size="14.00">clock</text>
</g>
<!-- cluster_Good_reset -->
<g id="node2" class="node">
<title>cluster_Good_reset</title>
<polygon fill="#cccccc" stroke="black" points="70,-116 16,-116 16,-80 70,-80 70,-116"/>
<text text-anchor="middle" x="43" y="-94.3" font-family="Times,serif" font-size="14.00">reset</text>
</g>
<!-- cluster_Good_io_out -->
<g id="node3" class="node">
<title>cluster_Good_io_out</title>
<polygon fill="#e0ffff" stroke="black" points="165,-57 106,-57 106,-21 165,-21 165,-57"/>
<text text-anchor="middle" x="135.5" y="-35.3" font-family="Times,serif" font-size="14.00">io_out</text>
</g>
<!-- cluster_Good_lit2 -->
<g id="node4" class="node">
<title>cluster_Good_lit2</title>
<ellipse fill="lightgrey" stroke="black" cx="43" cy="-39" rx="23" ry="23"/>
<text text-anchor="middle" x="43" y="-35.3" font-family="Times,serif" font-size="14.00">12</text>
</g>
<!-- cluster_Good_lit2&#45;&gt;cluster_Good_io_out -->
<g id="edge1" class="edge">
<title>cluster_Good_lit2&#45;&gt;cluster_Good_io_out</title>
<path fill="none" stroke="black" d="M65.91,-39C74.93,-39 85.66,-39 95.92,-39"/>
<polygon fill="black" stroke="black" points="95.95,-42.5 105.95,-39 95.95,-35.5 95.95,-42.5"/>
</g>
</g>
</svg>
