<?xml version="1.0" encoding="UTF-8" standalone="no"?>
<?xml-stylesheet href="styles.css" type="text/css"?>
<!DOCTYPE svg PUBLIC "-//W3C//DTD SVG 1.1//EN"
 "http://www.w3.org/Graphics/SVG/1.1/DTD/svg11.dtd">
<!-- Generated by graphviz version 3.0.0 (20220226.1711)
 -->
<!-- Title: Neuron2 Pages: 1 -->
<svg width="1490pt" height="261pt"
 viewBox="0.00 0.00 1490.00 261.00" xmlns="http://www.w3.org/2000/svg" xmlns:xlink="http://www.w3.org/1999/xlink">
<g id="graph0" class="graph" transform="scale(1 1) rotate(0) translate(4 257)">
<title>Neuron2</title>
<polygon fill="white" stroke="transparent" points="-4,4 -4,-257 1486,-257 1486,4 -4,4"/>
<g id="clust1" class="cluster">
<title>cluster_Neuron2</title>
<polygon fill="#fff8dc" stroke="black" points="8,-8 8,-245 1474,-245 1474,-8 8,-8"/>
<text text-anchor="middle" x="741" y="-229.8" font-family="Times,serif" font-size="14.00">Neuron2</text>
</g>
<!-- cluster_Neuron2_clock -->
<g id="node1" class="node">
<title>cluster_Neuron2_clock</title>
<polygon fill="#cccccc" stroke="black" points="97,-214 43,-214 43,-178 97,-178 97,-214"/>
<text text-anchor="middle" x="70" y="-192.3" font-family="Times,serif" font-size="14.00">clock</text>
</g>
<!-- cluster_Neuron2_reset -->
<g id="node2" class="node">
<title>cluster_Neuron2_reset</title>
<polygon fill="#cccccc" stroke="black" points="97,-160 43,-160 43,-124 97,-124 97,-160"/>
<text text-anchor="middle" x="70" y="-138.3" font-family="Times,serif" font-size="14.00">reset</text>
</g>
<!-- cluster_Neuron2_io_in_0 -->
<g id="node3" class="node">
<title>cluster_Neuron2_io_in_0</title>
<polygon fill="#cccccc" stroke="black" points="102.5,-106 37.5,-106 37.5,-70 102.5,-70 102.5,-106"/>
<text text-anchor="middle" x="70" y="-84.3" font-family="Times,serif" font-size="14.00">io_in_0</text>
</g>
<!-- op_mul_1 -->
<g id="node9" class="node">
<title>op_mul_1</title>
<polygon fill="#d8bfd8" stroke="transparent" points="168,-128 168,-178 261,-178 261,-128 168,-128"/>
<polygon fill="none" stroke="black" points="168.5,-153 168.5,-178 191.5,-178 191.5,-153 168.5,-153"/>
<text text-anchor="start" x="173.5" y="-161.8" font-family="Times,serif" font-size="14.00">●</text>
<polygon fill="none" stroke="black" points="191.5,-128 191.5,-178 238.5,-178 238.5,-128 191.5,-128"/>
<text text-anchor="start" x="196.5" y="-149.3" font-family="Times,serif" font-size="14.00"> mul </text>
<polygon fill="none" stroke="black" points="238.5,-128 238.5,-178 261.5,-178 261.5,-128 238.5,-128"/>
<text text-anchor="start" x="243.5" y="-149.3" font-family="Times,serif" font-size="14.00">●</text>
<polygon fill="none" stroke="black" points="168.5,-128 168.5,-153 191.5,-153 191.5,-128 168.5,-128"/>
<text text-anchor="start" x="173.5" y="-136.8" font-family="Times,serif" font-size="14.00">●</text>
</g>
<!-- cluster_Neuron2_io_in_0&#45;&gt;op_mul_1 -->
<g id="edge6" class="edge">
<title>cluster_Neuron2_io_in_0&#45;&gt;op_mul_1:in1</title>
<path fill="none" stroke="black" d="M102.51,-101.48C109.91,-105.33 117.51,-109.88 124,-115 144.28,-131 139.7,-157.6 157.55,-164.39"/>
<polygon fill="black" stroke="black" points="157.07,-167.85 167.5,-166 158.19,-160.94 157.07,-167.85"/>
</g>
<!-- cluster_Neuron2_io_in_1 -->
<g id="node4" class="node">
<title>cluster_Neuron2_io_in_1</title>
<polygon fill="#cccccc" stroke="black" points="247,-106 182,-106 182,-70 247,-70 247,-106"/>
<text text-anchor="middle" x="214.5" y="-84.3" font-family="Times,serif" font-size="14.00">io_in_1</text>
</g>
<!-- op_mul_5 -->
<g id="node14" class="node">
<title>op_mul_5</title>
<polygon fill="#d8bfd8" stroke="transparent" points="313,-50 313,-100 406,-100 406,-50 313,-50"/>
<polygon fill="none" stroke="black" points="313.5,-75 313.5,-100 336.5,-100 336.5,-75 313.5,-75"/>
<text text-anchor="start" x="318.5" y="-83.8" font-family="Times,serif" font-size="14.00">●</text>
<polygon fill="none" stroke="black" points="336.5,-50 336.5,-100 383.5,-100 383.5,-50 336.5,-50"/>
<text text-anchor="start" x="341.5" y="-71.3" font-family="Times,serif" font-size="14.00"> mul </text>
<polygon fill="none" stroke="black" points="383.5,-50 383.5,-100 406.5,-100 406.5,-50 383.5,-50"/>
<text text-anchor="start" x="388.5" y="-71.3" font-family="Times,serif" font-size="14.00">●</text>
<polygon fill="none" stroke="black" points="313.5,-50 313.5,-75 336.5,-75 336.5,-50 313.5,-50"/>
<text text-anchor="start" x="318.5" y="-58.8" font-family="Times,serif" font-size="14.00">●</text>
</g>
<!-- cluster_Neuron2_io_in_1&#45;&gt;op_mul_5 -->
<g id="edge8" class="edge">
<title>cluster_Neuron2_io_in_1&#45;&gt;op_mul_5:in1</title>
<path fill="none" stroke="black" d="M247.39,-88C263.43,-88 283.45,-88 302.41,-88"/>
<polygon fill="black" stroke="black" points="302.5,-91.5 312.5,-88 302.5,-84.5 302.5,-91.5"/>
</g>
<!-- cluster_Neuron2_io_weights_0 -->
<g id="node5" class="node">
<title>cluster_Neuron2_io_weights_0</title>
<polygon fill="#cccccc" stroke="black" points="124,-52 16,-52 16,-16 124,-16 124,-52"/>
<text text-anchor="middle" x="70" y="-30.3" font-family="Times,serif" font-size="14.00">io_weights_0</text>
</g>
<!-- cluster_Neuron2_io_weights_0&#45;&gt;op_mul_1 -->
<g id="edge2" class="edge">
<title>cluster_Neuron2_io_weights_0&#45;&gt;op_mul_1:in2</title>
<path fill="none" stroke="black" d="M112.05,-52.15C116.29,-54.82 120.37,-57.77 124,-61 145.55,-80.17 139.24,-94.98 160,-115 163.66,-118.53 168.54,-118.99 172.5,-119.83"/>
<polygon fill="black" stroke="black" points="170.01,-122.29 179.5,-127 175.01,-117.4 170.01,-122.29"/>
</g>
<!-- cluster_Neuron2_io_weights_1 -->
<g id="node6" class="node">
<title>cluster_Neuron2_io_weights_1</title>
<polygon fill="#cccccc" stroke="black" points="268.5,-52 160.5,-52 160.5,-16 268.5,-16 268.5,-52"/>
<text text-anchor="middle" x="214.5" y="-30.3" font-family="Times,serif" font-size="14.00">io_weights_1</text>
</g>
<!-- cluster_Neuron2_io_weights_1&#45;&gt;op_mul_5 -->
<g id="edge3" class="edge">
<title>cluster_Neuron2_io_weights_1&#45;&gt;op_mul_5:in2</title>
<path fill="none" stroke="black" d="M258.68,-52.05C272.12,-56.45 287.33,-60.27 302.25,-61.55"/>
<polygon fill="black" stroke="black" points="302.35,-65.05 312.5,-62 302.66,-58.06 302.35,-65.05"/>
</g>
<!-- cluster_Neuron2_io_out -->
<g id="node7" class="node">
<title>cluster_Neuron2_io_out</title>
<polygon fill="#e0ffff" stroke="black" points="1466,-102 1407,-102 1407,-66 1466,-66 1466,-102"/>
<text text-anchor="middle" x="1436.5" y="-80.3" font-family="Times,serif" font-size="14.00">io_out</text>
</g>
<!-- cluster_Neuron2__T -->
<g id="node8" class="node">
<title>cluster_Neuron2__T</title>
<polygon fill="none" stroke="black" points="386.5,-164 332.5,-164 332.5,-128 386.5,-128 386.5,-164"/>
<text text-anchor="middle" x="359.5" y="-142.3" font-family="Times,serif" font-size="14.00">_T</text>
</g>
<!-- op_add_4 -->
<g id="node13" class="node">
<title>op_add_4</title>
<polygon fill="#d8bfd8" stroke="transparent" points="458,-85 458,-135 550,-135 550,-85 458,-85"/>
<polygon fill="none" stroke="black" points="458,-110 458,-135 481,-135 481,-110 458,-110"/>
<text text-anchor="start" x="463" y="-118.8" font-family="Times,serif" font-size="14.00">●</text>
<polygon fill="none" stroke="black" points="481,-85 481,-135 527,-135 527,-85 481,-85"/>
<text text-anchor="start" x="486" y="-106.3" font-family="Times,serif" font-size="14.00"> add </text>
<polygon fill="none" stroke="black" points="527,-85 527,-135 550,-135 550,-85 527,-85"/>
<text text-anchor="start" x="532" y="-106.3" font-family="Times,serif" font-size="14.00">●</text>
<polygon fill="none" stroke="black" points="458,-85 458,-110 481,-110 481,-85 458,-85"/>
<text text-anchor="start" x="463" y="-93.8" font-family="Times,serif" font-size="14.00">●</text>
</g>
<!-- cluster_Neuron2__T&#45;&gt;op_add_4 -->
<g id="edge13" class="edge">
<title>cluster_Neuron2__T&#45;&gt;op_add_4:in1</title>
<path fill="none" stroke="black" d="M386.72,-136.25C403.29,-130.83 425.53,-124.89 446.92,-123.37"/>
<polygon fill="black" stroke="black" points="447.14,-126.87 457,-123 446.88,-119.87 447.14,-126.87"/>
</g>
<!-- op_mul_1&#45;&gt;cluster_Neuron2__T -->
<g id="edge1" class="edge">
<title>op_mul_1:out&#45;&gt;cluster_Neuron2__T</title>
<path fill="none" stroke="black" d="M262.5,-153C282.34,-153 304.42,-151.49 322.4,-149.88"/>
<polygon fill="black" stroke="black" points="322.83,-153.35 332.46,-148.93 322.18,-146.39 322.83,-153.35"/>
</g>
<!-- cluster_Neuron2_mac -->
<g id="node10" class="node">
<title>cluster_Neuron2_mac</title>
<polygon fill="none" stroke="black" points="952,-115 898,-115 898,-79 952,-79 952,-115"/>
<text text-anchor="middle" x="925" y="-93.3" font-family="Times,serif" font-size="14.00">mac</text>
</g>
<!-- op_lte_7 -->
<g id="node17" class="node">
<title>op_lte_7</title>
<polygon fill="#d8bfd8" stroke="transparent" points="996,-59 996,-109 1080,-109 1080,-59 996,-59"/>
<polygon fill="none" stroke="black" points="996,-84 996,-109 1019,-109 1019,-84 996,-84"/>
<text text-anchor="start" x="1001" y="-92.8" font-family="Times,serif" font-size="14.00">●</text>
<polygon fill="none" stroke="black" points="1019,-59 1019,-109 1057,-109 1057,-59 1019,-59"/>
<text text-anchor="start" x="1024" y="-80.3" font-family="Times,serif" font-size="14.00"> lte </text>
<polygon fill="none" stroke="black" points="1057,-59 1057,-109 1080,-109 1080,-59 1057,-59"/>
<text text-anchor="start" x="1062" y="-80.3" font-family="Times,serif" font-size="14.00">●</text>
<polygon fill="none" stroke="black" points="996,-59 996,-84 1019,-84 1019,-59 996,-59"/>
<text text-anchor="start" x="1002.5" y="-67.8" font-family="Times,serif" font-size="14.00">0</text>
</g>
<!-- cluster_Neuron2_mac&#45;&gt;op_lte_7 -->
<g id="edge11" class="edge">
<title>cluster_Neuron2_mac&#45;&gt;op_lte_7:in1</title>
<path fill="none" stroke="black" d="M952.21,-97C962.08,-97 973.63,-97 984.85,-97"/>
<polygon fill="black" stroke="black" points="985,-100.5 995,-97 985,-93.5 985,-100.5"/>
</g>
<!-- op_asSInt_2 -->
<g id="node11" class="node">
<title>op_asSInt_2</title>
<polygon fill="#d8bfd8" stroke="transparent" points="743,-85.5 743,-110.5 854,-110.5 854,-85.5 743,-85.5"/>
<polygon fill="none" stroke="black" points="743.5,-85 743.5,-110 766.5,-110 766.5,-85 743.5,-85"/>
<text text-anchor="start" x="748.5" y="-93.8" font-family="Times,serif" font-size="14.00">●</text>
<polygon fill="none" stroke="black" points="766.5,-85 766.5,-110 831.5,-110 831.5,-85 766.5,-85"/>
<text text-anchor="start" x="771.5" y="-93.8" font-family="Times,serif" font-size="14.00"> asSInt </text>
<polygon fill="none" stroke="black" points="831.5,-85 831.5,-110 854.5,-110 854.5,-85 831.5,-85"/>
<text text-anchor="start" x="836.5" y="-93.8" font-family="Times,serif" font-size="14.00">●</text>
</g>
<!-- op_asSInt_2&#45;&gt;cluster_Neuron2_mac -->
<g id="edge7" class="edge">
<title>op_asSInt_2:out&#45;&gt;cluster_Neuron2_mac</title>
<path fill="none" stroke="black" d="M855.5,-97C866.02,-97 877.46,-97 887.92,-97"/>
<polygon fill="black" stroke="black" points="887.98,-100.5 897.98,-97 887.98,-93.5 887.98,-100.5"/>
</g>
<!-- op_tail_3 -->
<g id="node12" class="node">
<title>op_tail_3</title>
<polygon fill="#d8bfd8" stroke="transparent" points="602,-72 602,-122 691,-122 691,-72 602,-72"/>
<polygon fill="none" stroke="black" points="602.5,-97 602.5,-122 625.5,-122 625.5,-97 602.5,-97"/>
<text text-anchor="start" x="607.5" y="-105.8" font-family="Times,serif" font-size="14.00">●</text>
<polygon fill="none" stroke="black" points="625.5,-72 625.5,-122 668.5,-122 668.5,-72 625.5,-72"/>
<text text-anchor="start" x="630.5" y="-93.3" font-family="Times,serif" font-size="14.00"> tail </text>
<polygon fill="none" stroke="black" points="668.5,-72 668.5,-122 691.5,-122 691.5,-72 668.5,-72"/>
<text text-anchor="start" x="673.5" y="-93.3" font-family="Times,serif" font-size="14.00">●</text>
<polygon fill="none" stroke="black" points="602.5,-72 602.5,-97 625.5,-97 625.5,-72 602.5,-72"/>
<text text-anchor="start" x="609" y="-80.8" font-family="Times,serif" font-size="14.00">1</text>
</g>
<!-- op_tail_3&#45;&gt;op_asSInt_2 -->
<g id="edge4" class="edge">
<title>op_tail_3:out&#45;&gt;op_asSInt_2:in1</title>
<path fill="none" stroke="black" d="M692.5,-97C710.9,-97 717.88,-97 732.35,-97"/>
<polygon fill="black" stroke="black" points="732.5,-100.5 742.5,-97 732.5,-93.5 732.5,-100.5"/>
</g>
<!-- op_add_4&#45;&gt;op_tail_3 -->
<g id="edge5" class="edge">
<title>op_add_4:out&#45;&gt;op_tail_3:in1</title>
<path fill="none" stroke="black" d="M551,-110C569.59,-110 576.63,-110 591.25,-110"/>
<polygon fill="black" stroke="black" points="591.5,-113.5 601.5,-110 591.5,-106.5 591.5,-113.5"/>
</g>
<!-- op_mul_5&#45;&gt;op_add_4 -->
<g id="edge9" class="edge">
<title>op_mul_5:out&#45;&gt;op_add_4:in2</title>
<path fill="none" stroke="black" d="M407.5,-75C427.63,-75 431.87,-90.37 446.78,-95.42"/>
<polygon fill="black" stroke="black" points="446.58,-98.93 457,-97 447.65,-92.01 446.58,-98.93"/>
</g>
<!-- op_pad_6 -->
<g id="node15" class="node">
<title>op_pad_6</title>
<polygon fill="#d8bfd8" stroke="transparent" points="1271,-72.5 1271,-97.5 1363,-97.5 1363,-72.5 1271,-72.5"/>
<polygon fill="none" stroke="black" points="1271,-72 1271,-97 1294,-97 1294,-72 1271,-72"/>
<text text-anchor="start" x="1276" y="-80.8" font-family="Times,serif" font-size="14.00">●</text>
<polygon fill="none" stroke="black" points="1294,-72 1294,-97 1340,-97 1340,-72 1294,-72"/>
<text text-anchor="start" x="1299" y="-80.8" font-family="Times,serif" font-size="14.00"> pad </text>
<polygon fill="none" stroke="black" points="1340,-72 1340,-97 1363,-97 1363,-72 1340,-72"/>
<text text-anchor="start" x="1345" y="-80.8" font-family="Times,serif" font-size="14.00">●</text>
</g>
<!-- op_pad_6&#45;&gt;cluster_Neuron2_io_out -->
<g id="edge10" class="edge">
<title>op_pad_6:out&#45;&gt;cluster_Neuron2_io_out</title>
<path fill="none" stroke="black" d="M1364,-84C1374.61,-84 1386.11,-84 1396.72,-84"/>
<polygon fill="black" stroke="black" points="1396.97,-87.5 1406.97,-84 1396.97,-80.5 1396.97,-87.5"/>
</g>
<!-- mux_1059515481 -->
<g id="node16" class="node">
<title>mux_1059515481</title>
<polygon fill="#afeeee" stroke="transparent" points="1132,-59 1132,-109 1219,-109 1219,-59 1132,-59"/>
<polygon fill="none" stroke="black" points="1132.5,-84 1132.5,-109 1170.5,-109 1170.5,-84 1132.5,-84"/>
<text text-anchor="start" x="1146.5" y="-92.8" font-family="Times,serif" font-size="14.00">0</text>
<polygon fill="none" stroke="black" points="1170.5,-59 1170.5,-109 1196.5,-109 1196.5,-59 1170.5,-59"/>
<text text-anchor="start" x="1175.5" y="-80.3" font-family="Times,serif" font-size="14.00">a?</text>
<polygon fill="none" stroke="black" points="1196.5,-59 1196.5,-109 1219.5,-109 1219.5,-59 1196.5,-59"/>
<text text-anchor="start" x="1201.5" y="-80.3" font-family="Times,serif" font-size="14.00">●</text>
<polygon fill="none" stroke="black" points="1132.5,-59 1132.5,-84 1170.5,-84 1170.5,-59 1132.5,-59"/>
<text text-anchor="start" x="1137.5" y="-67.8" font-family="Times,serif" font-size="14.00">256</text>
</g>
<!-- mux_1059515481&#45;&gt;op_pad_6 -->
<g id="edge12" class="edge">
<title>mux_1059515481:out&#45;&gt;op_pad_6:in1</title>
<path fill="none" stroke="black" d="M1220.5,-84C1238.72,-84 1245.62,-84 1259.95,-84"/>
<polygon fill="black" stroke="black" points="1260,-87.5 1270,-84 1260,-80.5 1260,-87.5"/>
</g>
<!-- op_lte_7&#45;&gt;mux_1059515481 -->
<g id="edge14" class="edge">
<title>op_lte_7:out&#45;&gt;mux_1059515481:select</title>
<path fill="none" stroke="black" d="M1081,-84C1103.11,-84 1102.7,-64.93 1124,-59 1145.1,-53.12 1172.06,-38.16 1180.7,-48.21"/>
<polygon fill="black" stroke="black" points="1177.39,-49.35 1183.5,-58 1184.12,-47.42 1177.39,-49.35"/>
</g>
</g>
</svg>
