<?xml version="1.0" encoding="UTF-8" standalone="no"?>
<?xml-stylesheet href="styles.css" type="text/css"?>
<!DOCTYPE svg PUBLIC "-//W3C//DTD SVG 1.1//EN"
 "http://www.w3.org/Graphics/SVG/1.1/DTD/svg11.dtd">
<!-- Generated by graphviz version 3.0.0 (20220226.1711)
 -->
<!-- Title: FirFilter Pages: 1 -->
<svg width="1195pt" height="229pt"
 viewBox="0.00 0.00 1195.00 229.00" xmlns="http://www.w3.org/2000/svg" xmlns:xlink="http://www.w3.org/1999/xlink">
<g id="graph0" class="graph" transform="scale(1 1) rotate(0) translate(4 225)">
<title>FirFilter</title>
<polygon fill="white" stroke="transparent" points="-4,4 -4,-225 1191,-225 1191,4 -4,4"/>
<g id="clust1" class="cluster">
<title>cluster_FirFilter</title>
<polygon fill="#fff8dc" stroke="black" points="8,-8 8,-213 1179,-213 1179,-8 8,-8"/>
<text text-anchor="middle" x="593.5" y="-197.8" font-family="Times,serif" font-size="14.00">FirFilter</text>
</g>
<!-- cluster_FirFilter_clock -->
<g id="node1" class="node">
<title>cluster_FirFilter_clock</title>
<polygon fill="#cccccc" stroke="black" points="70,-182 16,-182 16,-146 70,-146 70,-182"/>
<text text-anchor="middle" x="43" y="-160.3" font-family="Times,serif" font-size="14.00">clock</text>
</g>
<!-- cluster_FirFilter_reset -->
<g id="node2" class="node">
<title>cluster_FirFilter_reset</title>
<polygon fill="#cccccc" stroke="black" points="70,-128 16,-128 16,-92 70,-92 70,-128"/>
<text text-anchor="middle" x="43" y="-106.3" font-family="Times,serif" font-size="14.00">reset</text>
</g>
<!-- cluster_FirFilter_io_in -->
<g id="node3" class="node">
<title>cluster_FirFilter_io_in</title>
<polygon fill="#cccccc" stroke="black" points="70,-74 16,-74 16,-38 70,-38 70,-74"/>
<text text-anchor="middle" x="43" y="-52.3" font-family="Times,serif" font-size="14.00">io_in</text>
</g>
<!-- struct_cluster_FirFilter_zs_0 -->
<g id="node5" class="node">
<title>struct_cluster_FirFilter_zs_0</title>
<polygon fill="#ffe4b5" stroke="transparent" points="114,-52.5 114,-77.5 201,-77.5 201,-52.5 114,-52.5"/>
<polygon fill="none" stroke="black" points="114.5,-52 114.5,-77 137.5,-77 137.5,-52 114.5,-52"/>
<text text-anchor="start" x="119.5" y="-60.8" font-family="Times,serif" font-size="14.00">●</text>
<polygon fill="none" stroke="black" points="137.5,-52 137.5,-77 178.5,-77 178.5,-52 137.5,-52"/>
<text text-anchor="start" x="142.5" y="-60.8" font-family="Times,serif" font-size="14.00">zs_0</text>
<polygon fill="none" stroke="black" points="178.5,-52 178.5,-77 201.5,-77 201.5,-52 178.5,-52"/>
<text text-anchor="start" x="183.5" y="-60.8" font-family="Times,serif" font-size="14.00">●</text>
</g>
<!-- cluster_FirFilter_io_in&#45;&gt;struct_cluster_FirFilter_zs_0 -->
<g id="edge2" class="edge">
<title>cluster_FirFilter_io_in&#45;&gt;struct_cluster_FirFilter_zs_0:in</title>
<path fill="none" stroke="black" d="M70.32,-60.47C80.24,-61.87 91.88,-63.2 103.22,-63.74"/>
<polygon fill="black" stroke="black" points="103.41,-67.25 113.5,-64 103.59,-60.25 103.41,-67.25"/>
</g>
<!-- cluster_FirFilter_io_out -->
<g id="node4" class="node">
<title>cluster_FirFilter_io_out</title>
<polygon fill="#e0ffff" stroke="black" points="1171,-107 1112,-107 1112,-71 1171,-71 1171,-107"/>
<text text-anchor="middle" x="1141.5" y="-85.3" font-family="Times,serif" font-size="14.00">io_out</text>
</g>
<!-- struct_cluster_FirFilter_zs_1 -->
<g id="node6" class="node">
<title>struct_cluster_FirFilter_zs_1</title>
<polygon fill="#ffe4b5" stroke="transparent" points="256,-52.5 256,-77.5 343,-77.5 343,-52.5 256,-52.5"/>
<polygon fill="none" stroke="black" points="256.5,-52 256.5,-77 279.5,-77 279.5,-52 256.5,-52"/>
<text text-anchor="start" x="261.5" y="-60.8" font-family="Times,serif" font-size="14.00">●</text>
<polygon fill="none" stroke="black" points="279.5,-52 279.5,-77 320.5,-77 320.5,-52 279.5,-52"/>
<text text-anchor="start" x="284.5" y="-60.8" font-family="Times,serif" font-size="14.00">zs_1</text>
<polygon fill="none" stroke="black" points="320.5,-52 320.5,-77 343.5,-77 343.5,-52 320.5,-52"/>
<text text-anchor="start" x="325.5" y="-60.8" font-family="Times,serif" font-size="14.00">●</text>
</g>
<!-- struct_cluster_FirFilter_zs_0&#45;&gt;struct_cluster_FirFilter_zs_1 -->
<g id="edge9" class="edge">
<title>struct_cluster_FirFilter_zs_0:out&#45;&gt;struct_cluster_FirFilter_zs_1:in</title>
<path fill="none" stroke="black" d="M202.5,-64C222.19,-64 229.54,-64 245.18,-64"/>
<polygon fill="black" stroke="black" points="245.5,-67.5 255.5,-64 245.5,-60.5 245.5,-67.5"/>
</g>
<!-- op_mul_9 -->
<g id="node9" class="node">
<title>op_mul_9</title>
<polygon fill="#d8bfd8" stroke="transparent" points="253,-120 253,-170 346,-170 346,-120 253,-120"/>
<polygon fill="none" stroke="black" points="253.5,-145 253.5,-170 276.5,-170 276.5,-145 253.5,-145"/>
<text text-anchor="start" x="258.5" y="-153.8" font-family="Times,serif" font-size="14.00">●</text>
<polygon fill="none" stroke="black" points="276.5,-120 276.5,-170 323.5,-170 323.5,-120 276.5,-120"/>
<text text-anchor="start" x="281.5" y="-141.3" font-family="Times,serif" font-size="14.00"> mul </text>
<polygon fill="none" stroke="black" points="323.5,-120 323.5,-170 346.5,-170 346.5,-120 323.5,-120"/>
<text text-anchor="start" x="328.5" y="-141.3" font-family="Times,serif" font-size="14.00">●</text>
<polygon fill="none" stroke="black" points="253.5,-120 253.5,-145 276.5,-145 276.5,-120 253.5,-120"/>
<text text-anchor="start" x="260" y="-128.8" font-family="Times,serif" font-size="14.00">1</text>
</g>
<!-- struct_cluster_FirFilter_zs_0&#45;&gt;op_mul_9 -->
<g id="edge12" class="edge">
<title>struct_cluster_FirFilter_zs_0:out&#45;&gt;op_mul_9:in1</title>
<path fill="none" stroke="black" d="M202.5,-64C245.94,-64 211.88,-143.21 242.61,-156.21"/>
<polygon fill="black" stroke="black" points="242.04,-159.66 252.5,-158 243.29,-152.77 242.04,-159.66"/>
</g>
<!-- struct_cluster_FirFilter_zs_2 -->
<g id="node7" class="node">
<title>struct_cluster_FirFilter_zs_2</title>
<polygon fill="#ffe4b5" stroke="transparent" points="401,-34.5 401,-59.5 488,-59.5 488,-34.5 401,-34.5"/>
<polygon fill="none" stroke="black" points="401.5,-34 401.5,-59 424.5,-59 424.5,-34 401.5,-34"/>
<text text-anchor="start" x="406.5" y="-42.8" font-family="Times,serif" font-size="14.00">●</text>
<polygon fill="none" stroke="black" points="424.5,-34 424.5,-59 465.5,-59 465.5,-34 424.5,-34"/>
<text text-anchor="start" x="429.5" y="-42.8" font-family="Times,serif" font-size="14.00">zs_2</text>
<polygon fill="none" stroke="black" points="465.5,-34 465.5,-59 488.5,-59 488.5,-34 465.5,-34"/>
<text text-anchor="start" x="470.5" y="-42.8" font-family="Times,serif" font-size="14.00">●</text>
</g>
<!-- struct_cluster_FirFilter_zs_1&#45;&gt;struct_cluster_FirFilter_zs_2 -->
<g id="edge1" class="edge">
<title>struct_cluster_FirFilter_zs_1:out&#45;&gt;struct_cluster_FirFilter_zs_2:in</title>
<path fill="none" stroke="black" d="M344.5,-64C366.76,-64 372.76,-50.95 390.19,-47.07"/>
<polygon fill="black" stroke="black" points="390.92,-50.52 400.5,-46 390.19,-43.55 390.92,-50.52"/>
</g>
<!-- op_mul_10 -->
<g id="node11" class="node">
<title>op_mul_10</title>
<polygon fill="#d8bfd8" stroke="transparent" points="398,-87 398,-137 491,-137 491,-87 398,-87"/>
<polygon fill="none" stroke="black" points="398.5,-112 398.5,-137 421.5,-137 421.5,-112 398.5,-112"/>
<text text-anchor="start" x="403.5" y="-120.8" font-family="Times,serif" font-size="14.00">●</text>
<polygon fill="none" stroke="black" points="421.5,-87 421.5,-137 468.5,-137 468.5,-87 421.5,-87"/>
<text text-anchor="start" x="426.5" y="-108.3" font-family="Times,serif" font-size="14.00"> mul </text>
<polygon fill="none" stroke="black" points="468.5,-87 468.5,-137 491.5,-137 491.5,-87 468.5,-87"/>
<text text-anchor="start" x="473.5" y="-108.3" font-family="Times,serif" font-size="14.00">●</text>
<polygon fill="none" stroke="black" points="398.5,-87 398.5,-112 421.5,-112 421.5,-87 398.5,-87"/>
<text text-anchor="start" x="405" y="-95.8" font-family="Times,serif" font-size="14.00">1</text>
</g>
<!-- struct_cluster_FirFilter_zs_1&#45;&gt;op_mul_10 -->
<g id="edge3" class="edge">
<title>struct_cluster_FirFilter_zs_1:out&#45;&gt;op_mul_10:in1</title>
<path fill="none" stroke="black" d="M344.5,-64C376.49,-64 365.05,-112.39 387.54,-122.97"/>
<polygon fill="black" stroke="black" points="387,-126.43 397.5,-125 388.4,-119.57 387,-126.43"/>
</g>
<!-- op_mul_11 -->
<g id="node13" class="node">
<title>op_mul_11</title>
<polygon fill="#d8bfd8" stroke="transparent" points="543,-20 543,-70 636,-70 636,-20 543,-20"/>
<polygon fill="none" stroke="black" points="543.5,-45 543.5,-70 566.5,-70 566.5,-45 543.5,-45"/>
<text text-anchor="start" x="548.5" y="-53.8" font-family="Times,serif" font-size="14.00">●</text>
<polygon fill="none" stroke="black" points="566.5,-20 566.5,-70 613.5,-70 613.5,-20 566.5,-20"/>
<text text-anchor="start" x="571.5" y="-41.3" font-family="Times,serif" font-size="14.00"> mul </text>
<polygon fill="none" stroke="black" points="613.5,-20 613.5,-70 636.5,-70 636.5,-20 613.5,-20"/>
<text text-anchor="start" x="618.5" y="-41.3" font-family="Times,serif" font-size="14.00">●</text>
<polygon fill="none" stroke="black" points="543.5,-20 543.5,-45 566.5,-45 566.5,-20 543.5,-20"/>
<text text-anchor="start" x="550" y="-28.8" font-family="Times,serif" font-size="14.00">1</text>
</g>
<!-- struct_cluster_FirFilter_zs_2&#45;&gt;op_mul_11 -->
<g id="edge7" class="edge">
<title>struct_cluster_FirFilter_zs_2:out&#45;&gt;op_mul_11:in1</title>
<path fill="none" stroke="black" d="M489.5,-46C509.88,-46 516.41,-54.54 532.46,-57.21"/>
<polygon fill="black" stroke="black" points="532.26,-60.71 542.5,-58 532.8,-53.73 532.26,-60.71"/>
</g>
<!-- cluster_FirFilter_products_0 -->
<g id="node8" class="node">
<title>cluster_FirFilter_products_0</title>
<polygon fill="none" stroke="black" points="637,-182 542,-182 542,-146 637,-146 637,-182"/>
<text text-anchor="middle" x="589.5" y="-160.3" font-family="Times,serif" font-size="14.00">products_0</text>
</g>
<!-- op_add_13 -->
<g id="node15" class="node">
<title>op_add_13</title>
<polygon fill="#d8bfd8" stroke="transparent" points="688,-98 688,-148 780,-148 780,-98 688,-98"/>
<polygon fill="none" stroke="black" points="688,-123 688,-148 711,-148 711,-123 688,-123"/>
<text text-anchor="start" x="693" y="-131.8" font-family="Times,serif" font-size="14.00">●</text>
<polygon fill="none" stroke="black" points="711,-98 711,-148 757,-148 757,-98 711,-98"/>
<text text-anchor="start" x="716" y="-119.3" font-family="Times,serif" font-size="14.00"> add </text>
<polygon fill="none" stroke="black" points="757,-98 757,-148 780,-148 780,-98 757,-98"/>
<text text-anchor="start" x="762" y="-119.3" font-family="Times,serif" font-size="14.00">●</text>
<polygon fill="none" stroke="black" points="688,-98 688,-123 711,-123 711,-98 688,-98"/>
<text text-anchor="start" x="693" y="-106.8" font-family="Times,serif" font-size="14.00">●</text>
</g>
<!-- cluster_FirFilter_products_0&#45;&gt;op_add_13 -->
<g id="edge13" class="edge">
<title>cluster_FirFilter_products_0&#45;&gt;op_add_13:in1</title>
<path fill="none" stroke="black" d="M633.45,-145.95C646.82,-141.55 661.95,-137.73 676.8,-136.45"/>
<polygon fill="black" stroke="black" points="677.17,-139.94 687,-136 676.85,-132.95 677.17,-139.94"/>
</g>
<!-- op_mul_9&#45;&gt;cluster_FirFilter_products_0 -->
<g id="edge15" class="edge">
<title>op_mul_9:out&#45;&gt;cluster_FirFilter_products_0</title>
<path fill="none" stroke="black" d="M347.5,-145C366.52,-145 371.06,-148.22 390,-150 437.78,-154.49 492.15,-158.23 531.89,-160.71"/>
<polygon fill="black" stroke="black" points="531.73,-164.21 541.93,-161.33 532.16,-157.22 531.73,-164.21"/>
</g>
<!-- cluster_FirFilter_products_1 -->
<g id="node10" class="node">
<title>cluster_FirFilter_products_1</title>
<polygon fill="none" stroke="black" points="637,-128 542,-128 542,-92 637,-92 637,-128"/>
<text text-anchor="middle" x="589.5" y="-106.3" font-family="Times,serif" font-size="14.00">products_1</text>
</g>
<!-- cluster_FirFilter_products_1&#45;&gt;op_add_13 -->
<g id="edge8" class="edge">
<title>cluster_FirFilter_products_1&#45;&gt;op_add_13:in2</title>
<path fill="none" stroke="black" d="M637.13,-110C649.74,-110 663.6,-110 676.94,-110"/>
<polygon fill="black" stroke="black" points="677,-113.5 687,-110 677,-106.5 677,-113.5"/>
</g>
<!-- op_mul_10&#45;&gt;cluster_FirFilter_products_1 -->
<g id="edge10" class="edge">
<title>op_mul_10:out&#45;&gt;cluster_FirFilter_products_1</title>
<path fill="none" stroke="black" d="M492.5,-112C505.13,-112 518.69,-111.82 531.52,-111.58"/>
<polygon fill="black" stroke="black" points="531.7,-115.08 541.63,-111.37 531.56,-108.08 531.7,-115.08"/>
</g>
<!-- cluster_FirFilter_products_2 -->
<g id="node12" class="node">
<title>cluster_FirFilter_products_2</title>
<polygon fill="none" stroke="black" points="781.5,-68 686.5,-68 686.5,-32 781.5,-32 781.5,-68"/>
<text text-anchor="middle" x="734" y="-46.3" font-family="Times,serif" font-size="14.00">products_2</text>
</g>
<!-- op_pad_14 -->
<g id="node16" class="node">
<title>op_pad_14</title>
<polygon fill="#d8bfd8" stroke="transparent" points="832,-48.5 832,-73.5 924,-73.5 924,-48.5 832,-48.5"/>
<polygon fill="none" stroke="black" points="832,-48 832,-73 855,-73 855,-48 832,-48"/>
<text text-anchor="start" x="837" y="-56.8" font-family="Times,serif" font-size="14.00">●</text>
<polygon fill="none" stroke="black" points="855,-48 855,-73 901,-73 901,-48 855,-48"/>
<text text-anchor="start" x="860" y="-56.8" font-family="Times,serif" font-size="14.00"> pad </text>
<polygon fill="none" stroke="black" points="901,-48 901,-73 924,-73 924,-48 901,-48"/>
<text text-anchor="start" x="906" y="-56.8" font-family="Times,serif" font-size="14.00">●</text>
</g>
<!-- cluster_FirFilter_products_2&#45;&gt;op_pad_14 -->
<g id="edge14" class="edge">
<title>cluster_FirFilter_products_2&#45;&gt;op_pad_14:in1</title>
<path fill="none" stroke="black" d="M781.77,-56.84C794.1,-58.22 807.61,-59.39 820.66,-59.82"/>
<polygon fill="black" stroke="black" points="820.94,-63.33 831,-60 821.06,-56.33 820.94,-63.33"/>
</g>
<!-- op_mul_11&#45;&gt;cluster_FirFilter_products_2 -->
<g id="edge4" class="edge">
<title>op_mul_11:out&#45;&gt;cluster_FirFilter_products_2</title>
<path fill="none" stroke="black" d="M637.5,-45C650.08,-45 663.57,-45.44 676.34,-46.05"/>
<polygon fill="black" stroke="black" points="676.22,-49.55 686.39,-46.58 676.59,-42.56 676.22,-49.55"/>
</g>
<!-- op_add_12 -->
<g id="node14" class="node">
<title>op_add_12</title>
<polygon fill="#d8bfd8" stroke="transparent" points="976,-64 976,-114 1068,-114 1068,-64 976,-64"/>
<polygon fill="none" stroke="black" points="976,-89 976,-114 999,-114 999,-89 976,-89"/>
<text text-anchor="start" x="981" y="-97.8" font-family="Times,serif" font-size="14.00">●</text>
<polygon fill="none" stroke="black" points="999,-64 999,-114 1045,-114 1045,-64 999,-64"/>
<text text-anchor="start" x="1004" y="-85.3" font-family="Times,serif" font-size="14.00"> add </text>
<polygon fill="none" stroke="black" points="1045,-64 1045,-114 1068,-114 1068,-64 1045,-64"/>
<text text-anchor="start" x="1050" y="-85.3" font-family="Times,serif" font-size="14.00">●</text>
<polygon fill="none" stroke="black" points="976,-64 976,-89 999,-89 999,-64 976,-64"/>
<text text-anchor="start" x="981" y="-72.8" font-family="Times,serif" font-size="14.00">●</text>
</g>
<!-- op_add_12&#45;&gt;cluster_FirFilter_io_out -->
<g id="edge6" class="edge">
<title>op_add_12:out&#45;&gt;cluster_FirFilter_io_out</title>
<path fill="none" stroke="black" d="M1069,-89C1079.61,-89 1091.11,-89 1101.72,-89"/>
<polygon fill="black" stroke="black" points="1101.97,-92.5 1111.97,-89 1101.97,-85.5 1101.97,-92.5"/>
</g>
<!-- op_add_13&#45;&gt;op_add_12 -->
<g id="edge11" class="edge">
<title>op_add_13:out&#45;&gt;op_add_12:in1</title>
<path fill="none" stroke="black" d="M781,-123C864.17,-123 886.48,-103.69 964.65,-102.1"/>
<polygon fill="black" stroke="black" points="965.04,-105.6 975,-102 964.97,-98.6 965.04,-105.6"/>
</g>
<!-- op_pad_14&#45;&gt;op_add_12 -->
<g id="edge5" class="edge">
<title>op_pad_14:out&#45;&gt;op_add_12:in2</title>
<path fill="none" stroke="black" d="M925,-60C944.5,-60 950.04,-71.18 964.95,-74.85"/>
<polygon fill="black" stroke="black" points="964.67,-78.34 975,-76 965.46,-71.38 964.67,-78.34"/>
</g>
</g>
</svg>
