<?xml version="1.0" encoding="UTF-8" standalone="no"?>
<?xml-stylesheet href="styles.css" type="text/css"?>
<!DOCTYPE svg PUBLIC "-//W3C//DTD SVG 1.1//EN"
 "http://www.w3.org/Graphics/SVG/1.1/DTD/svg11.dtd">
<!-- Generated by graphviz version 3.0.0 (20220226.1711)
 -->
<!-- Title: MyManyDynamicElementVecFir Pages: 1 -->
<svg width="1957pt" height="417pt"
 viewBox="0.00 0.00 1957.00 417.44" xmlns="http://www.w3.org/2000/svg" xmlns:xlink="http://www.w3.org/1999/xlink">
<g id="graph0" class="graph" transform="scale(1 1) rotate(0) translate(4 413.44)">
<title>MyManyDynamicElementVecFir</title>
<polygon fill="white" stroke="transparent" points="-4,4 -4,-413.44 1953,-413.44 1953,4 -4,4"/>
<g id="clust1" class="cluster">
<title>cluster_MyManyDynamicElementVecFir</title>
<polygon fill="#fff8dc" stroke="black" points="8,-18.44 8,-401.44 1941,-401.44 1941,-18.44 8,-18.44"/>
<text text-anchor="middle" x="974.5" y="-386.24" font-family="Times,serif" font-size="14.00">MyManyDynamicElementVecFir</text>
</g>
<!-- cluster_MyManyDynamicElementVecFir_clock -->
<g id="node1" class="node">
<title>cluster_MyManyDynamicElementVecFir_clock</title>
<polygon fill="#cccccc" stroke="black" points="70,-244.44 16,-244.44 16,-208.44 70,-208.44 70,-244.44"/>
<text text-anchor="middle" x="43" y="-222.74" font-family="Times,serif" font-size="14.00">clock</text>
</g>
<!-- cluster_MyManyDynamicElementVecFir_reset -->
<g id="node2" class="node">
<title>cluster_MyManyDynamicElementVecFir_reset</title>
<polygon fill="#cccccc" stroke="black" points="70,-65.44 16,-65.44 16,-29.44 70,-29.44 70,-65.44"/>
<text text-anchor="middle" x="43" y="-43.74" font-family="Times,serif" font-size="14.00">reset</text>
</g>
<!-- mux_1868417466 -->
<g id="node25" class="node">
<title>mux_1868417466</title>
<polygon fill="#afeeee" stroke="transparent" points="114,-135.44 114,-185.44 186,-185.44 186,-135.44 114,-135.44"/>
<polygon fill="none" stroke="black" points="114,-160.44 114,-185.44 137,-185.44 137,-160.44 114,-160.44"/>
<text text-anchor="start" x="120.5" y="-169.24" font-family="Times,serif" font-size="14.00">0</text>
<polygon fill="none" stroke="black" points="137,-135.44 137,-185.44 163,-185.44 163,-135.44 137,-135.44"/>
<text text-anchor="start" x="142" y="-156.74" font-family="Times,serif" font-size="14.00">a?</text>
<polygon fill="none" stroke="black" points="163,-135.44 163,-185.44 186,-185.44 186,-135.44 163,-135.44"/>
<text text-anchor="start" x="168" y="-156.74" font-family="Times,serif" font-size="14.00">●</text>
<polygon fill="none" stroke="black" points="114,-135.44 114,-160.44 137,-160.44 137,-135.44 114,-135.44"/>
<text text-anchor="start" x="119" y="-144.24" font-family="Times,serif" font-size="14.00">●</text>
</g>
<!-- cluster_MyManyDynamicElementVecFir_reset&#45;&gt;mux_1868417466 -->
<g id="edge20" class="edge">
<title>cluster_MyManyDynamicElementVecFir_reset&#45;&gt;mux_1868417466:select</title>
<path fill="none" stroke="black" d="M70.2,-55.96C98.89,-66.97 141.81,-89.01 148.97,-124.17"/>
<polygon fill="black" stroke="black" points="145.52,-124.84 150,-134.44 152.48,-124.14 145.52,-124.84"/>
</g>
<!-- mux_703200375 -->
<g id="node27" class="node">
<title>mux_703200375</title>
<polygon fill="#afeeee" stroke="transparent" points="548.5,-110.44 548.5,-160.44 620.5,-160.44 620.5,-110.44 548.5,-110.44"/>
<polygon fill="none" stroke="black" points="548.5,-135.44 548.5,-160.44 571.5,-160.44 571.5,-135.44 548.5,-135.44"/>
<text text-anchor="start" x="555" y="-144.24" font-family="Times,serif" font-size="14.00">0</text>
<polygon fill="none" stroke="black" points="571.5,-110.44 571.5,-160.44 597.5,-160.44 597.5,-110.44 571.5,-110.44"/>
<text text-anchor="start" x="576.5" y="-131.74" font-family="Times,serif" font-size="14.00">a?</text>
<polygon fill="none" stroke="black" points="597.5,-110.44 597.5,-160.44 620.5,-160.44 620.5,-110.44 597.5,-110.44"/>
<text text-anchor="start" x="602.5" y="-131.74" font-family="Times,serif" font-size="14.00">●</text>
<polygon fill="none" stroke="black" points="548.5,-110.44 548.5,-135.44 571.5,-135.44 571.5,-110.44 548.5,-110.44"/>
<text text-anchor="start" x="553.5" y="-119.24" font-family="Times,serif" font-size="14.00">●</text>
</g>
<!-- cluster_MyManyDynamicElementVecFir_reset&#45;&gt;mux_703200375 -->
<g id="edge33" class="edge">
<title>cluster_MyManyDynamicElementVecFir_reset&#45;&gt;mux_703200375:select</title>
<path fill="none" stroke="black" d="M70.07,-44.88C174.45,-35.3 557.84,-6.59 583.18,-99.44"/>
<polygon fill="black" stroke="black" points="579.72,-99.98 584.5,-109.44 586.66,-99.07 579.72,-99.98"/>
</g>
<!-- mux_803137972 -->
<g id="node29" class="node">
<title>mux_803137972</title>
<polygon fill="#afeeee" stroke="transparent" points="993,-75.44 993,-125.44 1065,-125.44 1065,-75.44 993,-75.44"/>
<polygon fill="none" stroke="black" points="993,-100.44 993,-125.44 1016,-125.44 1016,-100.44 993,-100.44"/>
<text text-anchor="start" x="999.5" y="-109.24" font-family="Times,serif" font-size="14.00">0</text>
<polygon fill="none" stroke="black" points="1016,-75.44 1016,-125.44 1042,-125.44 1042,-75.44 1016,-75.44"/>
<text text-anchor="start" x="1021" y="-96.74" font-family="Times,serif" font-size="14.00">a?</text>
<polygon fill="none" stroke="black" points="1042,-75.44 1042,-125.44 1065,-125.44 1065,-75.44 1042,-75.44"/>
<text text-anchor="start" x="1047" y="-96.74" font-family="Times,serif" font-size="14.00">●</text>
<polygon fill="none" stroke="black" points="993,-75.44 993,-100.44 1016,-100.44 1016,-75.44 993,-75.44"/>
<text text-anchor="start" x="998" y="-84.24" font-family="Times,serif" font-size="14.00">●</text>
</g>
<!-- cluster_MyManyDynamicElementVecFir_reset&#45;&gt;mux_803137972 -->
<g id="edge21" class="edge">
<title>cluster_MyManyDynamicElementVecFir_reset&#45;&gt;mux_803137972:select</title>
<path fill="none" stroke="black" d="M70.02,-39.86C81.02,-36.99 94.03,-34.03 106,-32.44 186.43,-21.73 207.36,-27.44 288.5,-27.44 288.5,-27.44 288.5,-27.44 735.5,-27.44 864.12,-27.44 1020.51,53.24 1028.67,-64.44"/>
<polygon fill="black" stroke="black" points="1025.17,-64.56 1029,-74.44 1032.17,-64.33 1025.17,-64.56"/>
</g>
<!-- cluster_MyManyDynamicElementVecFir_io_in -->
<g id="node3" class="node">
<title>cluster_MyManyDynamicElementVecFir_io_in</title>
<polygon fill="#cccccc" stroke="black" points="316.5,-370.44 262.5,-370.44 262.5,-334.44 316.5,-334.44 316.5,-370.44"/>
<text text-anchor="middle" x="289.5" y="-348.74" font-family="Times,serif" font-size="14.00">io_in</text>
</g>
<!-- op_mul_1 -->
<g id="node14" class="node">
<title>op_mul_1</title>
<polygon fill="#d8bfd8" stroke="transparent" points="393,-316.44 393,-366.44 486,-366.44 486,-316.44 393,-316.44"/>
<polygon fill="none" stroke="black" points="393.5,-341.44 393.5,-366.44 416.5,-366.44 416.5,-341.44 393.5,-341.44"/>
<text text-anchor="start" x="398.5" y="-350.24" font-family="Times,serif" font-size="14.00">●</text>
<polygon fill="none" stroke="black" points="416.5,-316.44 416.5,-366.44 463.5,-366.44 463.5,-316.44 416.5,-316.44"/>
<text text-anchor="start" x="421.5" y="-337.74" font-family="Times,serif" font-size="14.00"> mul </text>
<polygon fill="none" stroke="black" points="463.5,-316.44 463.5,-366.44 486.5,-366.44 486.5,-316.44 463.5,-316.44"/>
<text text-anchor="start" x="468.5" y="-337.74" font-family="Times,serif" font-size="14.00">●</text>
<polygon fill="none" stroke="black" points="393.5,-316.44 393.5,-341.44 416.5,-341.44 416.5,-316.44 393.5,-316.44"/>
<text text-anchor="start" x="398.5" y="-325.24" font-family="Times,serif" font-size="14.00">●</text>
</g>
<!-- cluster_MyManyDynamicElementVecFir_io_in&#45;&gt;op_mul_1 -->
<g id="edge25" class="edge">
<title>cluster_MyManyDynamicElementVecFir_io_in&#45;&gt;op_mul_1:in1</title>
<path fill="none" stroke="black" d="M316.91,-353.24C334.85,-353.73 359.41,-354.28 382.41,-354.41"/>
<polygon fill="black" stroke="black" points="382.49,-357.91 392.5,-354.44 382.51,-350.91 382.49,-357.91"/>
</g>
<!-- mux_1853659045 -->
<g id="node26" class="node">
<title>mux_1853659045</title>
<polygon fill="#afeeee" stroke="transparent" points="403.5,-166.44 403.5,-216.44 475.5,-216.44 475.5,-166.44 403.5,-166.44"/>
<polygon fill="none" stroke="black" points="403.5,-191.44 403.5,-216.44 426.5,-216.44 426.5,-191.44 403.5,-191.44"/>
<text text-anchor="start" x="408.5" y="-200.24" font-family="Times,serif" font-size="14.00">●</text>
<polygon fill="none" stroke="black" points="426.5,-166.44 426.5,-216.44 452.5,-216.44 452.5,-166.44 426.5,-166.44"/>
<text text-anchor="start" x="431.5" y="-187.74" font-family="Times,serif" font-size="14.00">a?</text>
<polygon fill="none" stroke="black" points="452.5,-166.44 452.5,-216.44 475.5,-216.44 475.5,-166.44 452.5,-166.44"/>
<text text-anchor="start" x="457.5" y="-187.74" font-family="Times,serif" font-size="14.00">●</text>
<polygon fill="none" stroke="black" points="403.5,-166.44 403.5,-191.44 426.5,-191.44 426.5,-166.44 403.5,-166.44"/>
<text text-anchor="start" x="408.5" y="-175.24" font-family="Times,serif" font-size="14.00">●</text>
</g>
<!-- cluster_MyManyDynamicElementVecFir_io_in&#45;&gt;mux_1853659045 -->
<g id="edge27" class="edge">
<title>cluster_MyManyDynamicElementVecFir_io_in&#45;&gt;mux_1853659045:in1</title>
<path fill="none" stroke="black" d="M316.52,-345.36C327.77,-341.16 340.32,-334.78 349,-325.44 380.01,-292.05 353.23,-262.1 385,-229.44 391.09,-223.18 400.9,-225.47 407.52,-224.81"/>
<polygon fill="black" stroke="black" points="410.16,-227.11 414.5,-217.44 405.08,-222.29 410.16,-227.11"/>
</g>
<!-- cluster_MyManyDynamicElementVecFir_io_valid -->
<g id="node4" class="node">
<title>cluster_MyManyDynamicElementVecFir_io_valid</title>
<polygon fill="#cccccc" stroke="black" points="325,-128.44 254,-128.44 254,-92.44 325,-92.44 325,-128.44"/>
<text text-anchor="middle" x="289.5" y="-106.74" font-family="Times,serif" font-size="14.00">io_valid</text>
</g>
<!-- cluster_MyManyDynamicElementVecFir_io_valid&#45;&gt;mux_1853659045 -->
<g id="edge5" class="edge">
<title>cluster_MyManyDynamicElementVecFir_io_valid&#45;&gt;mux_1853659045:select</title>
<path fill="none" stroke="black" d="M325.24,-128.37C342.8,-136.89 364.65,-146.65 385,-153.44 393.64,-156.32 418.98,-154.75 431.84,-158.63"/>
<polygon fill="black" stroke="black" points="429.7,-161.41 439.5,-165.44 434.35,-156.18 429.7,-161.41"/>
</g>
<!-- mux_1815213218 -->
<g id="node28" class="node">
<title>mux_1815213218</title>
<polygon fill="#afeeee" stroke="transparent" points="403.5,-90.44 403.5,-140.44 475.5,-140.44 475.5,-90.44 403.5,-90.44"/>
<polygon fill="none" stroke="black" points="403.5,-115.44 403.5,-140.44 426.5,-140.44 426.5,-115.44 403.5,-115.44"/>
<text text-anchor="start" x="408.5" y="-124.24" font-family="Times,serif" font-size="14.00">●</text>
<polygon fill="none" stroke="black" points="426.5,-90.44 426.5,-140.44 452.5,-140.44 452.5,-90.44 426.5,-90.44"/>
<text text-anchor="start" x="431.5" y="-111.74" font-family="Times,serif" font-size="14.00">a?</text>
<polygon fill="none" stroke="black" points="452.5,-90.44 452.5,-140.44 475.5,-140.44 475.5,-90.44 452.5,-90.44"/>
<text text-anchor="start" x="457.5" y="-111.74" font-family="Times,serif" font-size="14.00">●</text>
<polygon fill="none" stroke="black" points="403.5,-90.44 403.5,-115.44 426.5,-115.44 426.5,-90.44 403.5,-90.44"/>
<text text-anchor="start" x="408.5" y="-99.24" font-family="Times,serif" font-size="14.00">●</text>
</g>
<!-- cluster_MyManyDynamicElementVecFir_io_valid&#45;&gt;mux_1815213218 -->
<g id="edge6" class="edge">
<title>cluster_MyManyDynamicElementVecFir_io_valid&#45;&gt;mux_1815213218:select</title>
<path fill="none" stroke="black" d="M325.06,-98.83C361.51,-87.38 416.07,-72.69 433.75,-81.03"/>
<polygon fill="black" stroke="black" points="430.97,-83.16 439.5,-89.44 436.74,-79.21 430.97,-83.16"/>
</g>
<!-- mux_133522559 -->
<g id="node30" class="node">
<title>mux_133522559</title>
<polygon fill="#afeeee" stroke="transparent" points="848.5,-56.44 848.5,-106.44 920.5,-106.44 920.5,-56.44 848.5,-56.44"/>
<polygon fill="none" stroke="black" points="848.5,-81.44 848.5,-106.44 871.5,-106.44 871.5,-81.44 848.5,-81.44"/>
<text text-anchor="start" x="853.5" y="-90.24" font-family="Times,serif" font-size="14.00">●</text>
<polygon fill="none" stroke="black" points="871.5,-56.44 871.5,-106.44 897.5,-106.44 897.5,-56.44 871.5,-56.44"/>
<text text-anchor="start" x="876.5" y="-77.74" font-family="Times,serif" font-size="14.00">a?</text>
<polygon fill="none" stroke="black" points="897.5,-56.44 897.5,-106.44 920.5,-106.44 920.5,-56.44 897.5,-56.44"/>
<text text-anchor="start" x="902.5" y="-77.74" font-family="Times,serif" font-size="14.00">●</text>
<polygon fill="none" stroke="black" points="848.5,-56.44 848.5,-81.44 871.5,-81.44 871.5,-56.44 848.5,-56.44"/>
<text text-anchor="start" x="853.5" y="-65.24" font-family="Times,serif" font-size="14.00">●</text>
</g>
<!-- cluster_MyManyDynamicElementVecFir_io_valid&#45;&gt;mux_133522559 -->
<g id="edge11" class="edge">
<title>cluster_MyManyDynamicElementVecFir_io_valid&#45;&gt;mux_133522559:select</title>
<path fill="none" stroke="black" d="M325.28,-95.58C342.85,-88.77 364.7,-81.37 385,-77.44 436.13,-67.55 830.41,-8.04 879.49,-46.42"/>
<polygon fill="black" stroke="black" points="876.59,-48.4 884.5,-55.44 882.71,-45 876.59,-48.4"/>
</g>
<!-- cluster_MyManyDynamicElementVecFir_io_consts_0 -->
<g id="node5" class="node">
<title>cluster_MyManyDynamicElementVecFir_io_consts_0</title>
<polygon fill="#cccccc" stroke="black" points="338.5,-316.44 240.5,-316.44 240.5,-280.44 338.5,-280.44 338.5,-316.44"/>
<text text-anchor="middle" x="289.5" y="-294.74" font-family="Times,serif" font-size="14.00">io_consts_0</text>
</g>
<!-- cluster_MyManyDynamicElementVecFir_io_consts_0&#45;&gt;op_mul_1 -->
<g id="edge9" class="edge">
<title>cluster_MyManyDynamicElementVecFir_io_consts_0&#45;&gt;op_mul_1:in2</title>
<path fill="none" stroke="black" d="M332.37,-316.58C347.53,-321.86 365.18,-326.6 382.42,-328.01"/>
<polygon fill="black" stroke="black" points="382.36,-331.51 392.5,-328.44 382.66,-324.52 382.36,-331.51"/>
</g>
<!-- cluster_MyManyDynamicElementVecFir_io_consts_1 -->
<g id="node6" class="node">
<title>cluster_MyManyDynamicElementVecFir_io_consts_1</title>
<polygon fill="#cccccc" stroke="black" points="488.5,-274.44 390.5,-274.44 390.5,-238.44 488.5,-238.44 488.5,-274.44"/>
<text text-anchor="middle" x="439.5" y="-252.74" font-family="Times,serif" font-size="14.00">io_consts_1</text>
</g>
<!-- op_mul_9 -->
<g id="node22" class="node">
<title>op_mul_9</title>
<polygon fill="#d8bfd8" stroke="transparent" points="538,-246.44 538,-296.44 631,-296.44 631,-246.44 538,-246.44"/>
<polygon fill="none" stroke="black" points="538.5,-271.44 538.5,-296.44 561.5,-296.44 561.5,-271.44 538.5,-271.44"/>
<text text-anchor="start" x="543.5" y="-280.24" font-family="Times,serif" font-size="14.00">●</text>
<polygon fill="none" stroke="black" points="561.5,-246.44 561.5,-296.44 608.5,-296.44 608.5,-246.44 561.5,-246.44"/>
<text text-anchor="start" x="566.5" y="-267.74" font-family="Times,serif" font-size="14.00"> mul </text>
<polygon fill="none" stroke="black" points="608.5,-246.44 608.5,-296.44 631.5,-296.44 631.5,-246.44 608.5,-246.44"/>
<text text-anchor="start" x="613.5" y="-267.74" font-family="Times,serif" font-size="14.00">●</text>
<polygon fill="none" stroke="black" points="538.5,-246.44 538.5,-271.44 561.5,-271.44 561.5,-246.44 538.5,-246.44"/>
<text text-anchor="start" x="543.5" y="-255.24" font-family="Times,serif" font-size="14.00">●</text>
</g>
<!-- cluster_MyManyDynamicElementVecFir_io_consts_1&#45;&gt;op_mul_9 -->
<g id="edge16" class="edge">
<title>cluster_MyManyDynamicElementVecFir_io_consts_1&#45;&gt;op_mul_9:in2</title>
<path fill="none" stroke="black" d="M488.85,-257.83C501.11,-258.1 514.45,-258.32 527.32,-258.41"/>
<polygon fill="black" stroke="black" points="527.49,-261.91 537.5,-258.44 527.51,-254.91 527.49,-261.91"/>
</g>
<!-- cluster_MyManyDynamicElementVecFir_io_consts_2 -->
<g id="node7" class="node">
<title>cluster_MyManyDynamicElementVecFir_io_consts_2</title>
<polygon fill="#cccccc" stroke="black" points="783.5,-176.44 685.5,-176.44 685.5,-140.44 783.5,-140.44 783.5,-176.44"/>
<text text-anchor="middle" x="734.5" y="-154.74" font-family="Times,serif" font-size="14.00">io_consts_2</text>
</g>
<!-- op_mul_10 -->
<g id="node23" class="node">
<title>op_mul_10</title>
<polygon fill="#d8bfd8" stroke="transparent" points="838,-145.44 838,-195.44 931,-195.44 931,-145.44 838,-145.44"/>
<polygon fill="none" stroke="black" points="838.5,-170.44 838.5,-195.44 861.5,-195.44 861.5,-170.44 838.5,-170.44"/>
<text text-anchor="start" x="843.5" y="-179.24" font-family="Times,serif" font-size="14.00">●</text>
<polygon fill="none" stroke="black" points="861.5,-145.44 861.5,-195.44 908.5,-195.44 908.5,-145.44 861.5,-145.44"/>
<text text-anchor="start" x="866.5" y="-166.74" font-family="Times,serif" font-size="14.00"> mul </text>
<polygon fill="none" stroke="black" points="908.5,-145.44 908.5,-195.44 931.5,-195.44 931.5,-145.44 908.5,-145.44"/>
<text text-anchor="start" x="913.5" y="-166.74" font-family="Times,serif" font-size="14.00">●</text>
<polygon fill="none" stroke="black" points="838.5,-145.44 838.5,-170.44 861.5,-170.44 861.5,-145.44 838.5,-145.44"/>
<text text-anchor="start" x="843.5" y="-154.24" font-family="Times,serif" font-size="14.00">●</text>
</g>
<!-- cluster_MyManyDynamicElementVecFir_io_consts_2&#45;&gt;op_mul_10 -->
<g id="edge34" class="edge">
<title>cluster_MyManyDynamicElementVecFir_io_consts_2&#45;&gt;op_mul_10:in2</title>
<path fill="none" stroke="black" d="M783.75,-157.77C797.56,-157.62 812.84,-157.5 827.49,-157.46"/>
<polygon fill="black" stroke="black" points="827.51,-160.96 837.5,-157.44 827.49,-153.96 827.51,-160.96"/>
</g>
<!-- cluster_MyManyDynamicElementVecFir_io_consts_3 -->
<g id="node8" class="node">
<title>cluster_MyManyDynamicElementVecFir_io_consts_3</title>
<polygon fill="#cccccc" stroke="black" points="1227.5,-65.44 1129.5,-65.44 1129.5,-29.44 1227.5,-29.44 1227.5,-65.44"/>
<text text-anchor="middle" x="1178.5" y="-43.74" font-family="Times,serif" font-size="14.00">io_consts_3</text>
</g>
<!-- op_mul_11 -->
<g id="node24" class="node">
<title>op_mul_11</title>
<polygon fill="#d8bfd8" stroke="transparent" points="1282,-62.44 1282,-112.44 1375,-112.44 1375,-62.44 1282,-62.44"/>
<polygon fill="none" stroke="black" points="1282.5,-87.44 1282.5,-112.44 1305.5,-112.44 1305.5,-87.44 1282.5,-87.44"/>
<text text-anchor="start" x="1287.5" y="-96.24" font-family="Times,serif" font-size="14.00">●</text>
<polygon fill="none" stroke="black" points="1305.5,-62.44 1305.5,-112.44 1352.5,-112.44 1352.5,-62.44 1305.5,-62.44"/>
<text text-anchor="start" x="1310.5" y="-83.74" font-family="Times,serif" font-size="14.00"> mul </text>
<polygon fill="none" stroke="black" points="1352.5,-62.44 1352.5,-112.44 1375.5,-112.44 1375.5,-62.44 1352.5,-62.44"/>
<text text-anchor="start" x="1357.5" y="-83.74" font-family="Times,serif" font-size="14.00">●</text>
<polygon fill="none" stroke="black" points="1282.5,-62.44 1282.5,-87.44 1305.5,-87.44 1305.5,-62.44 1282.5,-62.44"/>
<text text-anchor="start" x="1287.5" y="-71.24" font-family="Times,serif" font-size="14.00">●</text>
</g>
<!-- cluster_MyManyDynamicElementVecFir_io_consts_3&#45;&gt;op_mul_11 -->
<g id="edge4" class="edge">
<title>cluster_MyManyDynamicElementVecFir_io_consts_3&#45;&gt;op_mul_11:in2</title>
<path fill="none" stroke="black" d="M1227.07,-65.45C1240.83,-69.47 1256.19,-72.89 1271.19,-74.03"/>
<polygon fill="black" stroke="black" points="1271.37,-77.54 1281.5,-74.44 1271.65,-70.55 1271.37,-77.54"/>
</g>
<!-- cluster_MyManyDynamicElementVecFir_io_out -->
<g id="node9" class="node">
<title>cluster_MyManyDynamicElementVecFir_io_out</title>
<polygon fill="#e0ffff" stroke="black" points="1933,-119.44 1874,-119.44 1874,-83.44 1933,-83.44 1933,-119.44"/>
<text text-anchor="middle" x="1903.5" y="-97.74" font-family="Times,serif" font-size="14.00">io_out</text>
</g>
<!-- struct_cluster_MyManyDynamicElementVecFir_taps_1 -->
<g id="node10" class="node">
<title>struct_cluster_MyManyDynamicElementVecFir_taps_1</title>
<polygon fill="#ffe4b5" stroke="transparent" points="238,-171.94 238,-196.94 341,-196.94 341,-171.94 238,-171.94"/>
<polygon fill="none" stroke="black" points="238.5,-171.44 238.5,-196.44 261.5,-196.44 261.5,-171.44 238.5,-171.44"/>
<text text-anchor="start" x="243.5" y="-180.24" font-family="Times,serif" font-size="14.00">●</text>
<polygon fill="none" stroke="black" points="261.5,-171.44 261.5,-196.44 318.5,-196.44 318.5,-171.44 261.5,-171.44"/>
<text text-anchor="start" x="266.5" y="-180.24" font-family="Times,serif" font-size="14.00">taps_1</text>
<polygon fill="none" stroke="black" points="318.5,-171.44 318.5,-196.44 341.5,-196.44 341.5,-171.44 318.5,-171.44"/>
<text text-anchor="start" x="323.5" y="-180.24" font-family="Times,serif" font-size="14.00">●</text>
</g>
<!-- struct_cluster_MyManyDynamicElementVecFir_taps_1&#45;&gt;op_mul_9 -->
<g id="edge31" class="edge">
<title>struct_cluster_MyManyDynamicElementVecFir_taps_1:out&#45;&gt;op_mul_9:in1</title>
<path fill="none" stroke="black" d="M342.5,-183.44C390.79,-183.44 344.81,-256.66 385,-283.44 438.54,-319.11 466.77,-287.96 527.47,-284.71"/>
<polygon fill="black" stroke="black" points="527.6,-288.21 537.5,-284.44 527.41,-281.21 527.6,-288.21"/>
</g>
<!-- struct_cluster_MyManyDynamicElementVecFir_taps_1&#45;&gt;mux_1853659045 -->
<g id="edge10" class="edge">
<title>struct_cluster_MyManyDynamicElementVecFir_taps_1:out&#45;&gt;mux_1853659045:in2</title>
<path fill="none" stroke="black" d="M342.5,-183.44C365.5,-183.44 373.52,-179.75 392.3,-178.71"/>
<polygon fill="black" stroke="black" points="392.6,-182.2 402.5,-178.44 392.41,-175.2 392.6,-182.2"/>
</g>
<!-- struct_cluster_MyManyDynamicElementVecFir_taps_1&#45;&gt;mux_1815213218 -->
<g id="edge23" class="edge">
<title>struct_cluster_MyManyDynamicElementVecFir_taps_1:out&#45;&gt;mux_1815213218:in1</title>
<path fill="none" stroke="black" d="M342.5,-183.44C374.86,-183.44 368.39,-139.43 392.56,-130.15"/>
<polygon fill="black" stroke="black" points="393.24,-133.58 402.5,-128.44 392.05,-126.68 393.24,-133.58"/>
</g>
<!-- struct_cluster_MyManyDynamicElementVecFir_taps_2 -->
<g id="node11" class="node">
<title>struct_cluster_MyManyDynamicElementVecFir_taps_2</title>
<polygon fill="#ffe4b5" stroke="transparent" points="683,-91.94 683,-116.94 786,-116.94 786,-91.94 683,-91.94"/>
<polygon fill="none" stroke="black" points="683.5,-91.44 683.5,-116.44 706.5,-116.44 706.5,-91.44 683.5,-91.44"/>
<text text-anchor="start" x="688.5" y="-100.24" font-family="Times,serif" font-size="14.00">●</text>
<polygon fill="none" stroke="black" points="706.5,-91.44 706.5,-116.44 763.5,-116.44 763.5,-91.44 706.5,-91.44"/>
<text text-anchor="start" x="711.5" y="-100.24" font-family="Times,serif" font-size="14.00">taps_2</text>
<polygon fill="none" stroke="black" points="763.5,-91.44 763.5,-116.44 786.5,-116.44 786.5,-91.44 763.5,-91.44"/>
<text text-anchor="start" x="768.5" y="-100.24" font-family="Times,serif" font-size="14.00">●</text>
</g>
<!-- struct_cluster_MyManyDynamicElementVecFir_taps_2&#45;&gt;op_mul_10 -->
<g id="edge8" class="edge">
<title>struct_cluster_MyManyDynamicElementVecFir_taps_2:out&#45;&gt;op_mul_10:in1</title>
<path fill="none" stroke="black" d="M787.5,-103.44C825.5,-103.44 801.25,-169.14 827.58,-181.46"/>
<polygon fill="black" stroke="black" points="827.01,-184.92 837.5,-183.44 828.38,-178.05 827.01,-184.92"/>
</g>
<!-- struct_cluster_MyManyDynamicElementVecFir_taps_2&#45;&gt;mux_1815213218 -->
<g id="edge13" class="edge">
<title>struct_cluster_MyManyDynamicElementVecFir_taps_2:out&#45;&gt;mux_1815213218:in2</title>
<path fill="none" stroke="black" d="M775.5,-90.44C775.5,-72.26 479.01,-69.74 423.42,-84.35"/>
<polygon fill="black" stroke="black" points="421.45,-81.45 414.5,-89.44 424.92,-87.53 421.45,-81.45"/>
</g>
<!-- struct_cluster_MyManyDynamicElementVecFir_taps_2&#45;&gt;mux_133522559 -->
<g id="edge15" class="edge">
<title>struct_cluster_MyManyDynamicElementVecFir_taps_2:out&#45;&gt;mux_133522559:in1</title>
<path fill="none" stroke="black" d="M787.5,-103.44C810.78,-103.44 818.48,-96.73 837.51,-94.9"/>
<polygon fill="black" stroke="black" points="837.67,-98.39 847.5,-94.44 837.35,-91.4 837.67,-98.39"/>
</g>
<!-- struct_cluster_MyManyDynamicElementVecFir_taps_3 -->
<g id="node12" class="node">
<title>struct_cluster_MyManyDynamicElementVecFir_taps_3</title>
<polygon fill="#ffe4b5" stroke="transparent" points="1127,-88.94 1127,-113.94 1230,-113.94 1230,-88.94 1127,-88.94"/>
<polygon fill="none" stroke="black" points="1127.5,-88.44 1127.5,-113.44 1150.5,-113.44 1150.5,-88.44 1127.5,-88.44"/>
<text text-anchor="start" x="1132.5" y="-97.24" font-family="Times,serif" font-size="14.00">●</text>
<polygon fill="none" stroke="black" points="1150.5,-88.44 1150.5,-113.44 1207.5,-113.44 1207.5,-88.44 1150.5,-88.44"/>
<text text-anchor="start" x="1155.5" y="-97.24" font-family="Times,serif" font-size="14.00">taps_3</text>
<polygon fill="none" stroke="black" points="1207.5,-88.44 1207.5,-113.44 1230.5,-113.44 1230.5,-88.44 1207.5,-88.44"/>
<text text-anchor="start" x="1212.5" y="-97.24" font-family="Times,serif" font-size="14.00">●</text>
</g>
<!-- struct_cluster_MyManyDynamicElementVecFir_taps_3&#45;&gt;op_mul_11 -->
<g id="edge24" class="edge">
<title>struct_cluster_MyManyDynamicElementVecFir_taps_3:out&#45;&gt;op_mul_11:in1</title>
<path fill="none" stroke="black" d="M1231.5,-100.44C1249.9,-100.44 1256.88,-100.44 1271.35,-100.44"/>
<polygon fill="black" stroke="black" points="1271.5,-103.94 1281.5,-100.44 1271.5,-96.94 1271.5,-103.94"/>
</g>
<!-- struct_cluster_MyManyDynamicElementVecFir_taps_3&#45;&gt;mux_133522559 -->
<g id="edge36" class="edge">
<title>struct_cluster_MyManyDynamicElementVecFir_taps_3:out&#45;&gt;mux_133522559:in2</title>
<path fill="none" stroke="black" d="M1219.5,-87.44C1219.5,-76.18 1129.98,-76.95 1119,-74.44 1102.56,-70.67 1099.59,-65.46 1083,-62.44 1015.4,-50.12 997.19,-58.27 928.5,-56.44 902.39,-55.74 870.71,-33.27 861.88,-45.55"/>
<polygon fill="black" stroke="black" points="858.44,-44.9 859.5,-55.44 865.25,-46.54 858.44,-44.9"/>
</g>
<!-- cluster_MyManyDynamicElementVecFir__T -->
<g id="node13" class="node">
<title>cluster_MyManyDynamicElementVecFir__T</title>
<polygon fill="none" stroke="black" points="611.5,-357.44 557.5,-357.44 557.5,-321.44 611.5,-321.44 611.5,-357.44"/>
<text text-anchor="middle" x="584.5" y="-335.74" font-family="Times,serif" font-size="14.00">_T</text>
</g>
<!-- op_add_8 -->
<g id="node21" class="node">
<title>op_add_8</title>
<polygon fill="#d8bfd8" stroke="transparent" points="688.5,-259.44 688.5,-309.44 780.5,-309.44 780.5,-259.44 688.5,-259.44"/>
<polygon fill="none" stroke="black" points="688.5,-284.44 688.5,-309.44 711.5,-309.44 711.5,-284.44 688.5,-284.44"/>
<text text-anchor="start" x="693.5" y="-293.24" font-family="Times,serif" font-size="14.00">●</text>
<polygon fill="none" stroke="black" points="711.5,-259.44 711.5,-309.44 757.5,-309.44 757.5,-259.44 711.5,-259.44"/>
<text text-anchor="start" x="716.5" y="-280.74" font-family="Times,serif" font-size="14.00"> add </text>
<polygon fill="none" stroke="black" points="757.5,-259.44 757.5,-309.44 780.5,-309.44 780.5,-259.44 757.5,-259.44"/>
<text text-anchor="start" x="762.5" y="-280.74" font-family="Times,serif" font-size="14.00">●</text>
<polygon fill="none" stroke="black" points="688.5,-259.44 688.5,-284.44 711.5,-284.44 711.5,-259.44 688.5,-259.44"/>
<text text-anchor="start" x="693.5" y="-268.24" font-family="Times,serif" font-size="14.00">●</text>
</g>
<!-- cluster_MyManyDynamicElementVecFir__T&#45;&gt;op_add_8 -->
<g id="edge3" class="edge">
<title>cluster_MyManyDynamicElementVecFir__T&#45;&gt;op_add_8:in1</title>
<path fill="none" stroke="black" d="M611.78,-325.92C632.15,-315.85 659.81,-303.14 677.49,-298.89"/>
<polygon fill="black" stroke="black" points="678.11,-302.34 687.5,-297.44 677.1,-295.41 678.11,-302.34"/>
</g>
<!-- op_mul_1&#45;&gt;cluster_MyManyDynamicElementVecFir__T -->
<g id="edge19" class="edge">
<title>op_mul_1:out&#45;&gt;cluster_MyManyDynamicElementVecFir__T</title>
<path fill="none" stroke="black" d="M487.5,-341.44C507.29,-341.44 529.37,-341.01 547.35,-340.55"/>
<polygon fill="black" stroke="black" points="547.52,-344.05 557.43,-340.28 547.34,-337.05 547.52,-344.05"/>
</g>
<!-- op_bits_2 -->
<g id="node15" class="node">
<title>op_bits_2</title>
<polygon fill="#d8bfd8" stroke="transparent" points="1712,-76.44 1712,-126.44 1830,-126.44 1830,-76.44 1712,-76.44"/>
<polygon fill="none" stroke="black" points="1712,-101.44 1712,-126.44 1760,-126.44 1760,-101.44 1712,-101.44"/>
<text text-anchor="start" x="1729.5" y="-110.24" font-family="Times,serif" font-size="14.00">●</text>
<polygon fill="none" stroke="black" points="1760,-76.44 1760,-126.44 1807,-126.44 1807,-76.44 1760,-76.44"/>
<text text-anchor="start" x="1765" y="-97.74" font-family="Times,serif" font-size="14.00"> bits </text>
<polygon fill="none" stroke="black" points="1807,-76.44 1807,-126.44 1830,-126.44 1830,-76.44 1807,-76.44"/>
<text text-anchor="start" x="1812" y="-97.74" font-family="Times,serif" font-size="14.00">●</text>
<polygon fill="none" stroke="black" points="1712,-76.44 1712,-101.44 1760,-101.44 1760,-76.44 1712,-76.44"/>
<text text-anchor="start" x="1717" y="-85.24" font-family="Times,serif" font-size="14.00">(7, 0)</text>
</g>
<!-- op_bits_2&#45;&gt;cluster_MyManyDynamicElementVecFir_io_out -->
<g id="edge7" class="edge">
<title>op_bits_2:out&#45;&gt;cluster_MyManyDynamicElementVecFir_io_out</title>
<path fill="none" stroke="black" d="M1831,-101.44C1841.61,-101.44 1853.11,-101.44 1863.72,-101.44"/>
<polygon fill="black" stroke="black" points="1863.97,-104.94 1873.97,-101.44 1863.97,-97.94 1863.97,-104.94"/>
</g>
<!-- op_tail_3 -->
<g id="node16" class="node">
<title>op_tail_3</title>
<polygon fill="#d8bfd8" stroke="transparent" points="1571,-89.44 1571,-139.44 1660,-139.44 1660,-89.44 1571,-89.44"/>
<polygon fill="none" stroke="black" points="1571.5,-114.44 1571.5,-139.44 1594.5,-139.44 1594.5,-114.44 1571.5,-114.44"/>
<text text-anchor="start" x="1576.5" y="-123.24" font-family="Times,serif" font-size="14.00">●</text>
<polygon fill="none" stroke="black" points="1594.5,-89.44 1594.5,-139.44 1637.5,-139.44 1637.5,-89.44 1594.5,-89.44"/>
<text text-anchor="start" x="1599.5" y="-110.74" font-family="Times,serif" font-size="14.00"> tail </text>
<polygon fill="none" stroke="black" points="1637.5,-89.44 1637.5,-139.44 1660.5,-139.44 1660.5,-89.44 1637.5,-89.44"/>
<text text-anchor="start" x="1642.5" y="-110.74" font-family="Times,serif" font-size="14.00">●</text>
<polygon fill="none" stroke="black" points="1571.5,-89.44 1571.5,-114.44 1594.5,-114.44 1594.5,-89.44 1571.5,-89.44"/>
<text text-anchor="start" x="1578" y="-98.24" font-family="Times,serif" font-size="14.00">1</text>
</g>
<!-- op_tail_3&#45;&gt;op_bits_2 -->
<g id="edge17" class="edge">
<title>op_tail_3:out&#45;&gt;op_bits_2:in1</title>
<path fill="none" stroke="black" d="M1661.5,-114.44C1679.72,-114.44 1686.62,-114.44 1700.95,-114.44"/>
<polygon fill="black" stroke="black" points="1701,-117.94 1711,-114.44 1701,-110.94 1701,-117.94"/>
</g>
<!-- op_add_4 -->
<g id="node17" class="node">
<title>op_add_4</title>
<polygon fill="#d8bfd8" stroke="transparent" points="1427,-102.44 1427,-152.44 1519,-152.44 1519,-102.44 1427,-102.44"/>
<polygon fill="none" stroke="black" points="1427,-127.44 1427,-152.44 1450,-152.44 1450,-127.44 1427,-127.44"/>
<text text-anchor="start" x="1432" y="-136.24" font-family="Times,serif" font-size="14.00">●</text>
<polygon fill="none" stroke="black" points="1450,-102.44 1450,-152.44 1496,-152.44 1496,-102.44 1450,-102.44"/>
<text text-anchor="start" x="1455" y="-123.74" font-family="Times,serif" font-size="14.00"> add </text>
<polygon fill="none" stroke="black" points="1496,-102.44 1496,-152.44 1519,-152.44 1519,-102.44 1496,-102.44"/>
<text text-anchor="start" x="1501" y="-123.74" font-family="Times,serif" font-size="14.00">●</text>
<polygon fill="none" stroke="black" points="1427,-102.44 1427,-127.44 1450,-127.44 1450,-102.44 1427,-102.44"/>
<text text-anchor="start" x="1432" y="-111.24" font-family="Times,serif" font-size="14.00">●</text>
</g>
<!-- op_add_4&#45;&gt;op_tail_3 -->
<g id="edge18" class="edge">
<title>op_add_4:out&#45;&gt;op_tail_3:in1</title>
<path fill="none" stroke="black" d="M1520,-127.44C1538.59,-127.44 1545.63,-127.44 1560.25,-127.44"/>
<polygon fill="black" stroke="black" points="1560.5,-130.94 1570.5,-127.44 1560.5,-123.94 1560.5,-130.94"/>
</g>
<!-- op_tail_5 -->
<g id="node18" class="node">
<title>op_tail_5</title>
<polygon fill="#d8bfd8" stroke="transparent" points="1284,-142.44 1284,-192.44 1373,-192.44 1373,-142.44 1284,-142.44"/>
<polygon fill="none" stroke="black" points="1284.5,-167.44 1284.5,-192.44 1307.5,-192.44 1307.5,-167.44 1284.5,-167.44"/>
<text text-anchor="start" x="1289.5" y="-176.24" font-family="Times,serif" font-size="14.00">●</text>
<polygon fill="none" stroke="black" points="1307.5,-142.44 1307.5,-192.44 1350.5,-192.44 1350.5,-142.44 1307.5,-142.44"/>
<text text-anchor="start" x="1312.5" y="-163.74" font-family="Times,serif" font-size="14.00"> tail </text>
<polygon fill="none" stroke="black" points="1350.5,-142.44 1350.5,-192.44 1373.5,-192.44 1373.5,-142.44 1350.5,-142.44"/>
<text text-anchor="start" x="1355.5" y="-163.74" font-family="Times,serif" font-size="14.00">●</text>
<polygon fill="none" stroke="black" points="1284.5,-142.44 1284.5,-167.44 1307.5,-167.44 1307.5,-142.44 1284.5,-142.44"/>
<text text-anchor="start" x="1291" y="-151.24" font-family="Times,serif" font-size="14.00">1</text>
</g>
<!-- op_tail_5&#45;&gt;op_add_4 -->
<g id="edge38" class="edge">
<title>op_tail_5:out&#45;&gt;op_add_4:in1</title>
<path fill="none" stroke="black" d="M1374.5,-167.44C1396.51,-167.44 1399.64,-147.86 1416.04,-142.05"/>
<polygon fill="black" stroke="black" points="1416.69,-145.49 1426,-140.44 1415.57,-138.58 1416.69,-145.49"/>
</g>
<!-- op_add_6 -->
<g id="node19" class="node">
<title>op_add_6</title>
<polygon fill="#d8bfd8" stroke="transparent" points="983,-158.44 983,-208.44 1075,-208.44 1075,-158.44 983,-158.44"/>
<polygon fill="none" stroke="black" points="983,-183.44 983,-208.44 1006,-208.44 1006,-183.44 983,-183.44"/>
<text text-anchor="start" x="988" y="-192.24" font-family="Times,serif" font-size="14.00">●</text>
<polygon fill="none" stroke="black" points="1006,-158.44 1006,-208.44 1052,-208.44 1052,-158.44 1006,-158.44"/>
<text text-anchor="start" x="1011" y="-179.74" font-family="Times,serif" font-size="14.00"> add </text>
<polygon fill="none" stroke="black" points="1052,-158.44 1052,-208.44 1075,-208.44 1075,-158.44 1052,-158.44"/>
<text text-anchor="start" x="1057" y="-179.74" font-family="Times,serif" font-size="14.00">●</text>
<polygon fill="none" stroke="black" points="983,-158.44 983,-183.44 1006,-183.44 1006,-158.44 983,-158.44"/>
<text text-anchor="start" x="988" y="-167.24" font-family="Times,serif" font-size="14.00">●</text>
</g>
<!-- op_add_6&#45;&gt;op_tail_5 -->
<g id="edge35" class="edge">
<title>op_add_6:out&#45;&gt;op_tail_5:in1</title>
<path fill="none" stroke="black" d="M1076,-183.44C1164.72,-183.44 1189.41,-180.66 1273.26,-180.45"/>
<polygon fill="black" stroke="black" points="1273.5,-183.95 1283.5,-180.44 1273.5,-176.95 1273.5,-183.95"/>
</g>
<!-- op_tail_7 -->
<g id="node20" class="node">
<title>op_tail_7</title>
<polygon fill="#d8bfd8" stroke="transparent" points="840,-235.44 840,-285.44 929,-285.44 929,-235.44 840,-235.44"/>
<polygon fill="none" stroke="black" points="840.5,-260.44 840.5,-285.44 863.5,-285.44 863.5,-260.44 840.5,-260.44"/>
<text text-anchor="start" x="845.5" y="-269.24" font-family="Times,serif" font-size="14.00">●</text>
<polygon fill="none" stroke="black" points="863.5,-235.44 863.5,-285.44 906.5,-285.44 906.5,-235.44 863.5,-235.44"/>
<text text-anchor="start" x="868.5" y="-256.74" font-family="Times,serif" font-size="14.00"> tail </text>
<polygon fill="none" stroke="black" points="906.5,-235.44 906.5,-285.44 929.5,-285.44 929.5,-235.44 906.5,-235.44"/>
<text text-anchor="start" x="911.5" y="-256.74" font-family="Times,serif" font-size="14.00">●</text>
<polygon fill="none" stroke="black" points="840.5,-235.44 840.5,-260.44 863.5,-260.44 863.5,-235.44 840.5,-235.44"/>
<text text-anchor="start" x="847" y="-244.24" font-family="Times,serif" font-size="14.00">1</text>
</g>
<!-- op_tail_7&#45;&gt;op_add_6 -->
<g id="edge30" class="edge">
<title>op_tail_7:out&#45;&gt;op_add_6:in1</title>
<path fill="none" stroke="black" d="M918.5,-234.44C918.5,-220.63 951.69,-203.21 972.06,-197.99"/>
<polygon fill="black" stroke="black" points="972.66,-201.44 982,-196.44 971.58,-194.52 972.66,-201.44"/>
</g>
<!-- op_add_8&#45;&gt;op_tail_7 -->
<g id="edge22" class="edge">
<title>op_add_8:out&#45;&gt;op_tail_7:in1</title>
<path fill="none" stroke="black" d="M781.5,-284.44C803.84,-284.44 811.17,-276.46 829.05,-274.1"/>
<polygon fill="black" stroke="black" points="829.74,-277.56 839.5,-273.44 829.3,-270.57 829.74,-277.56"/>
</g>
<!-- op_mul_9&#45;&gt;op_add_8 -->
<g id="edge32" class="edge">
<title>op_mul_9:out&#45;&gt;op_add_8:in2</title>
<path fill="none" stroke="black" d="M632.5,-271.44C653.12,-271.44 660.7,-271.44 677.24,-271.44"/>
<polygon fill="black" stroke="black" points="677.5,-274.94 687.5,-271.44 677.5,-267.94 677.5,-274.94"/>
</g>
<!-- op_mul_10&#45;&gt;op_add_6 -->
<g id="edge12" class="edge">
<title>op_mul_10:out&#45;&gt;op_add_6:in2</title>
<path fill="none" stroke="black" d="M932.5,-170.44C950.72,-170.44 957.62,-170.44 971.95,-170.44"/>
<polygon fill="black" stroke="black" points="972,-173.94 982,-170.44 972,-166.94 972,-173.94"/>
</g>
<!-- op_mul_11&#45;&gt;op_add_4 -->
<g id="edge29" class="edge">
<title>op_mul_11:out&#45;&gt;op_add_4:in2</title>
<path fill="none" stroke="black" d="M1376.5,-87.44C1397.64,-87.44 1400.51,-106.66 1415.94,-112.67"/>
<polygon fill="black" stroke="black" points="1415.54,-116.15 1426,-114.44 1416.76,-109.26 1415.54,-116.15"/>
</g>
<!-- mux_1868417466&#45;&gt;struct_cluster_MyManyDynamicElementVecFir_taps_1 -->
<g id="edge2" class="edge">
<title>mux_1868417466:out&#45;&gt;struct_cluster_MyManyDynamicElementVecFir_taps_1:in</title>
<path fill="none" stroke="black" d="M187,-160.44C207.81,-160.44 211.9,-176.81 227.48,-181.93"/>
<polygon fill="black" stroke="black" points="227.09,-185.41 237.5,-183.44 228.13,-178.49 227.09,-185.41"/>
</g>
<!-- mux_1853659045&#45;&gt;mux_1868417466 -->
<g id="edge14" class="edge">
<title>mux_1853659045:out&#45;&gt;mux_1868417466:in2</title>
<path fill="none" stroke="black" d="M464.5,-165.44C464.5,-161.66 197.77,-135.68 194,-135.44 167.93,-133.81 136.23,-111.99 127.39,-124.49"/>
<polygon fill="black" stroke="black" points="123.93,-123.9 125,-134.44 130.74,-125.53 123.93,-123.9"/>
</g>
<!-- mux_703200375&#45;&gt;struct_cluster_MyManyDynamicElementVecFir_taps_2 -->
<g id="edge26" class="edge">
<title>mux_703200375:out&#45;&gt;struct_cluster_MyManyDynamicElementVecFir_taps_2:in</title>
<path fill="none" stroke="black" d="M621.5,-135.44C648.29,-135.44 651.46,-110.94 672.34,-104.82"/>
<polygon fill="black" stroke="black" points="673.06,-108.25 682.5,-103.44 672.12,-101.31 673.06,-108.25"/>
</g>
<!-- mux_1815213218&#45;&gt;mux_703200375 -->
<g id="edge37" class="edge">
<title>mux_1815213218:out&#45;&gt;mux_703200375:in2</title>
<path fill="none" stroke="black" d="M476.5,-115.44C504.49,-115.44 513.68,-120.9 537.27,-122.17"/>
<polygon fill="black" stroke="black" points="537.41,-125.68 547.5,-122.44 537.59,-118.68 537.41,-125.68"/>
</g>
<!-- mux_803137972&#45;&gt;struct_cluster_MyManyDynamicElementVecFir_taps_3 -->
<g id="edge1" class="edge">
<title>mux_803137972:out&#45;&gt;struct_cluster_MyManyDynamicElementVecFir_taps_3:in</title>
<path fill="none" stroke="black" d="M1066,-100.44C1089.21,-100.44 1097.4,-100.44 1116.5,-100.44"/>
<polygon fill="black" stroke="black" points="1116.5,-103.94 1126.5,-100.44 1116.5,-96.94 1116.5,-103.94"/>
</g>
<!-- mux_133522559&#45;&gt;mux_803137972 -->
<g id="edge28" class="edge">
<title>mux_133522559:out&#45;&gt;mux_803137972:in2</title>
<path fill="none" stroke="black" d="M921.5,-81.44C949.26,-81.44 958.44,-86.12 981.85,-87.21"/>
<polygon fill="black" stroke="black" points="981.92,-90.71 992,-87.44 982.08,-83.72 981.92,-90.71"/>
</g>
</g>
</svg>
