<?xml version="1.0" encoding="UTF-8" standalone="no"?>
<?xml-stylesheet href="styles.css" type="text/css"?>
<!DOCTYPE svg PUBLIC "-//W3C//DTD SVG 1.1//EN"
 "http://www.w3.org/Graphics/SVG/1.1/DTD/svg11.dtd">
<!-- Generated by graphviz version 3.0.0 (20220226.1711)
 -->
<!-- Title: Neuron Pages: 1 -->
<svg width="2146pt" height="261pt"
 viewBox="0.00 0.00 2146.00 261.00" xmlns="http://www.w3.org/2000/svg" xmlns:xlink="http://www.w3.org/1999/xlink">
<g id="graph0" class="graph" transform="scale(1 1) rotate(0) translate(4 257)">
<title>Neuron</title>
<polygon fill="white" stroke="transparent" points="-4,4 -4,-257 2142,-257 2142,4 -4,4"/>
<g id="clust1" class="cluster">
<title>cluster_Neuron</title>
<polygon fill="#fff8dc" stroke="black" points="8,-8 8,-245 2130,-245 2130,-8 8,-8"/>
<text text-anchor="middle" x="1069" y="-229.8" font-family="Times,serif" font-size="14.00">Neuron</text>
</g>
<!-- cluster_Neuron_clock -->
<g id="node1" class="node">
<title>cluster_Neuron_clock</title>
<polygon fill="#cccccc" stroke="black" points="97,-214 43,-214 43,-178 97,-178 97,-214"/>
<text text-anchor="middle" x="70" y="-192.3" font-family="Times,serif" font-size="14.00">clock</text>
</g>
<!-- cluster_Neuron_reset -->
<g id="node2" class="node">
<title>cluster_Neuron_reset</title>
<polygon fill="#cccccc" stroke="black" points="97,-160 43,-160 43,-124 97,-124 97,-160"/>
<text text-anchor="middle" x="70" y="-138.3" font-family="Times,serif" font-size="14.00">reset</text>
</g>
<!-- cluster_Neuron_io_in_0 -->
<g id="node3" class="node">
<title>cluster_Neuron_io_in_0</title>
<polygon fill="#cccccc" stroke="black" points="102.5,-106 37.5,-106 37.5,-70 102.5,-70 102.5,-106"/>
<text text-anchor="middle" x="70" y="-84.3" font-family="Times,serif" font-size="14.00">io_in_0</text>
</g>
<!-- op_mul_1 -->
<g id="node9" class="node">
<title>op_mul_1</title>
<polygon fill="#d8bfd8" stroke="transparent" points="168,-128 168,-178 261,-178 261,-128 168,-128"/>
<polygon fill="none" stroke="black" points="168.5,-153 168.5,-178 191.5,-178 191.5,-153 168.5,-153"/>
<text text-anchor="start" x="173.5" y="-161.8" font-family="Times,serif" font-size="14.00">●</text>
<polygon fill="none" stroke="black" points="191.5,-128 191.5,-178 238.5,-178 238.5,-128 191.5,-128"/>
<text text-anchor="start" x="196.5" y="-149.3" font-family="Times,serif" font-size="14.00"> mul </text>
<polygon fill="none" stroke="black" points="238.5,-128 238.5,-178 261.5,-178 261.5,-128 238.5,-128"/>
<text text-anchor="start" x="243.5" y="-149.3" font-family="Times,serif" font-size="14.00">●</text>
<polygon fill="none" stroke="black" points="168.5,-128 168.5,-153 191.5,-153 191.5,-128 168.5,-128"/>
<text text-anchor="start" x="173.5" y="-136.8" font-family="Times,serif" font-size="14.00">●</text>
</g>
<!-- cluster_Neuron_io_in_0&#45;&gt;op_mul_1 -->
<g id="edge18" class="edge">
<title>cluster_Neuron_io_in_0&#45;&gt;op_mul_1:in1</title>
<path fill="none" stroke="black" d="M102.51,-101.48C109.91,-105.33 117.51,-109.88 124,-115 144.28,-131 139.7,-157.6 157.55,-164.39"/>
<polygon fill="black" stroke="black" points="157.07,-167.85 167.5,-166 158.19,-160.94 157.07,-167.85"/>
</g>
<!-- cluster_Neuron_io_in_1 -->
<g id="node4" class="node">
<title>cluster_Neuron_io_in_1</title>
<polygon fill="#cccccc" stroke="black" points="247,-106 182,-106 182,-70 247,-70 247,-106"/>
<text text-anchor="middle" x="214.5" y="-84.3" font-family="Times,serif" font-size="14.00">io_in_1</text>
</g>
<!-- op_mul_8 -->
<g id="node18" class="node">
<title>op_mul_8</title>
<polygon fill="#d8bfd8" stroke="transparent" points="313,-50 313,-100 406,-100 406,-50 313,-50"/>
<polygon fill="none" stroke="black" points="313.5,-75 313.5,-100 336.5,-100 336.5,-75 313.5,-75"/>
<text text-anchor="start" x="318.5" y="-83.8" font-family="Times,serif" font-size="14.00">●</text>
<polygon fill="none" stroke="black" points="336.5,-50 336.5,-100 383.5,-100 383.5,-50 336.5,-50"/>
<text text-anchor="start" x="341.5" y="-71.3" font-family="Times,serif" font-size="14.00"> mul </text>
<polygon fill="none" stroke="black" points="383.5,-50 383.5,-100 406.5,-100 406.5,-50 383.5,-50"/>
<text text-anchor="start" x="388.5" y="-71.3" font-family="Times,serif" font-size="14.00">●</text>
<polygon fill="none" stroke="black" points="313.5,-50 313.5,-75 336.5,-75 336.5,-50 313.5,-50"/>
<text text-anchor="start" x="318.5" y="-58.8" font-family="Times,serif" font-size="14.00">●</text>
</g>
<!-- cluster_Neuron_io_in_1&#45;&gt;op_mul_8 -->
<g id="edge14" class="edge">
<title>cluster_Neuron_io_in_1&#45;&gt;op_mul_8:in1</title>
<path fill="none" stroke="black" d="M247.39,-88C263.43,-88 283.45,-88 302.41,-88"/>
<polygon fill="black" stroke="black" points="302.5,-91.5 312.5,-88 302.5,-84.5 302.5,-91.5"/>
</g>
<!-- cluster_Neuron_io_weights_0 -->
<g id="node5" class="node">
<title>cluster_Neuron_io_weights_0</title>
<polygon fill="#cccccc" stroke="black" points="124,-52 16,-52 16,-16 124,-16 124,-52"/>
<text text-anchor="middle" x="70" y="-30.3" font-family="Times,serif" font-size="14.00">io_weights_0</text>
</g>
<!-- cluster_Neuron_io_weights_0&#45;&gt;op_mul_1 -->
<g id="edge6" class="edge">
<title>cluster_Neuron_io_weights_0&#45;&gt;op_mul_1:in2</title>
<path fill="none" stroke="black" d="M112.05,-52.15C116.29,-54.82 120.37,-57.77 124,-61 145.55,-80.17 139.24,-94.98 160,-115 163.66,-118.53 168.54,-118.99 172.5,-119.83"/>
<polygon fill="black" stroke="black" points="170.01,-122.29 179.5,-127 175.01,-117.4 170.01,-122.29"/>
</g>
<!-- cluster_Neuron_io_weights_1 -->
<g id="node6" class="node">
<title>cluster_Neuron_io_weights_1</title>
<polygon fill="#cccccc" stroke="black" points="268.5,-52 160.5,-52 160.5,-16 268.5,-16 268.5,-52"/>
<text text-anchor="middle" x="214.5" y="-30.3" font-family="Times,serif" font-size="14.00">io_weights_1</text>
</g>
<!-- cluster_Neuron_io_weights_1&#45;&gt;op_mul_8 -->
<g id="edge22" class="edge">
<title>cluster_Neuron_io_weights_1&#45;&gt;op_mul_8:in2</title>
<path fill="none" stroke="black" d="M258.68,-52.05C272.12,-56.45 287.33,-60.27 302.25,-61.55"/>
<polygon fill="black" stroke="black" points="302.35,-65.05 312.5,-62 302.66,-58.06 302.35,-65.05"/>
</g>
<!-- cluster_Neuron_io_out -->
<g id="node7" class="node">
<title>cluster_Neuron_io_out</title>
<polygon fill="#e0ffff" stroke="black" points="2122,-66 2063,-66 2063,-30 2122,-30 2122,-66"/>
<text text-anchor="middle" x="2092.5" y="-44.3" font-family="Times,serif" font-size="14.00">io_out</text>
</g>
<!-- cluster_Neuron__T -->
<g id="node8" class="node">
<title>cluster_Neuron__T</title>
<polygon fill="none" stroke="black" points="386.5,-170 332.5,-170 332.5,-134 386.5,-134 386.5,-170"/>
<text text-anchor="middle" x="359.5" y="-148.3" font-family="Times,serif" font-size="14.00">_T</text>
</g>
<!-- op_shr_4 -->
<g id="node13" class="node">
<title>op_shr_4</title>
<polygon fill="#d8bfd8" stroke="transparent" points="458,-114 458,-164 547,-164 547,-114 458,-114"/>
<polygon fill="none" stroke="black" points="458.5,-139 458.5,-164 481.5,-164 481.5,-139 458.5,-139"/>
<text text-anchor="start" x="463.5" y="-147.8" font-family="Times,serif" font-size="14.00">●</text>
<polygon fill="none" stroke="black" points="481.5,-114 481.5,-164 524.5,-164 524.5,-114 481.5,-114"/>
<text text-anchor="start" x="486.5" y="-135.3" font-family="Times,serif" font-size="14.00"> shr </text>
<polygon fill="none" stroke="black" points="524.5,-114 524.5,-164 547.5,-164 547.5,-114 524.5,-114"/>
<text text-anchor="start" x="529.5" y="-135.3" font-family="Times,serif" font-size="14.00">●</text>
<polygon fill="none" stroke="black" points="458.5,-114 458.5,-139 481.5,-139 481.5,-114 458.5,-114"/>
<text text-anchor="start" x="465" y="-122.8" font-family="Times,serif" font-size="14.00">8</text>
</g>
<!-- cluster_Neuron__T&#45;&gt;op_shr_4 -->
<g id="edge13" class="edge">
<title>cluster_Neuron__T&#45;&gt;op_shr_4:in1</title>
<path fill="none" stroke="black" d="M386.85,-152C403.61,-152 426.08,-152 447.25,-152"/>
<polygon fill="black" stroke="black" points="447.5,-155.5 457.5,-152 447.5,-148.5 447.5,-155.5"/>
</g>
<!-- op_mul_1&#45;&gt;cluster_Neuron__T -->
<g id="edge21" class="edge">
<title>op_mul_1:out&#45;&gt;cluster_Neuron__T</title>
<path fill="none" stroke="black" d="M262.5,-153C282.28,-153 304.36,-152.78 322.35,-152.55"/>
<polygon fill="black" stroke="black" points="322.47,-156.05 332.42,-152.42 322.38,-149.05 322.47,-156.05"/>
</g>
<!-- cluster_Neuron_weightedInput_0 -->
<g id="node10" class="node">
<title>cluster_Neuron_weightedInput_0</title>
<polygon fill="none" stroke="black" points="1070,-135 933,-135 933,-99 1070,-99 1070,-135"/>
<text text-anchor="middle" x="1001.5" y="-113.3" font-family="Times,serif" font-size="14.00">weightedInput_0</text>
</g>
<!-- op_add_11 -->
<g id="node22" class="node">
<title>op_add_11</title>
<polygon fill="#d8bfd8" stroke="transparent" points="1114,-49 1114,-99 1206,-99 1206,-49 1114,-49"/>
<polygon fill="none" stroke="black" points="1114,-74 1114,-99 1137,-99 1137,-74 1114,-74"/>
<text text-anchor="start" x="1119" y="-82.8" font-family="Times,serif" font-size="14.00">●</text>
<polygon fill="none" stroke="black" points="1137,-49 1137,-99 1183,-99 1183,-49 1137,-49"/>
<text text-anchor="start" x="1142" y="-70.3" font-family="Times,serif" font-size="14.00"> add </text>
<polygon fill="none" stroke="black" points="1183,-49 1183,-99 1206,-99 1206,-49 1183,-49"/>
<text text-anchor="start" x="1188" y="-70.3" font-family="Times,serif" font-size="14.00">●</text>
<polygon fill="none" stroke="black" points="1114,-49 1114,-74 1137,-74 1137,-49 1114,-49"/>
<text text-anchor="start" x="1119" y="-57.8" font-family="Times,serif" font-size="14.00">●</text>
</g>
<!-- cluster_Neuron_weightedInput_0&#45;&gt;op_add_11 -->
<g id="edge10" class="edge">
<title>cluster_Neuron_weightedInput_0&#45;&gt;op_add_11:in1</title>
<path fill="none" stroke="black" d="M1047.72,-98.94C1064.44,-93.56 1083.94,-88.72 1102.87,-87.37"/>
<polygon fill="black" stroke="black" points="1103.14,-90.86 1113,-87 1102.88,-83.87 1103.14,-90.86"/>
</g>
<!-- op_asSInt_2 -->
<g id="node11" class="node">
<title>op_asSInt_2</title>
<polygon fill="#d8bfd8" stroke="transparent" points="778,-109.5 778,-134.5 889,-134.5 889,-109.5 778,-109.5"/>
<polygon fill="none" stroke="black" points="778.5,-109 778.5,-134 801.5,-134 801.5,-109 778.5,-109"/>
<text text-anchor="start" x="783.5" y="-117.8" font-family="Times,serif" font-size="14.00">●</text>
<polygon fill="none" stroke="black" points="801.5,-109 801.5,-134 866.5,-134 866.5,-109 801.5,-109"/>
<text text-anchor="start" x="806.5" y="-117.8" font-family="Times,serif" font-size="14.00"> asSInt </text>
<polygon fill="none" stroke="black" points="866.5,-109 866.5,-134 889.5,-134 889.5,-109 866.5,-109"/>
<text text-anchor="start" x="871.5" y="-117.8" font-family="Times,serif" font-size="14.00">●</text>
</g>
<!-- op_asSInt_2&#45;&gt;cluster_Neuron_weightedInput_0 -->
<g id="edge15" class="edge">
<title>op_asSInt_2:out&#45;&gt;cluster_Neuron_weightedInput_0</title>
<path fill="none" stroke="black" d="M890.5,-121C900.85,-121 911.75,-120.82 922.5,-120.54"/>
<polygon fill="black" stroke="black" points="922.85,-124.03 932.74,-120.24 922.64,-117.03 922.85,-124.03"/>
</g>
<!-- op_bits_3 -->
<g id="node12" class="node">
<title>op_bits_3</title>
<polygon fill="#d8bfd8" stroke="transparent" points="599,-101 599,-151 726,-151 726,-101 599,-101"/>
<polygon fill="none" stroke="black" points="599.5,-126 599.5,-151 656.5,-151 656.5,-126 599.5,-126"/>
<text text-anchor="start" x="621.5" y="-134.8" font-family="Times,serif" font-size="14.00">●</text>
<polygon fill="none" stroke="black" points="656.5,-101 656.5,-151 703.5,-151 703.5,-101 656.5,-101"/>
<text text-anchor="start" x="661.5" y="-122.3" font-family="Times,serif" font-size="14.00"> bits </text>
<polygon fill="none" stroke="black" points="703.5,-101 703.5,-151 726.5,-151 726.5,-101 703.5,-101"/>
<text text-anchor="start" x="708.5" y="-122.3" font-family="Times,serif" font-size="14.00">●</text>
<polygon fill="none" stroke="black" points="599.5,-101 599.5,-126 656.5,-126 656.5,-101 599.5,-101"/>
<text text-anchor="start" x="604.5" y="-109.8" font-family="Times,serif" font-size="14.00">(15, 0)</text>
</g>
<!-- op_bits_3&#45;&gt;op_asSInt_2 -->
<g id="edge12" class="edge">
<title>op_bits_3:out&#45;&gt;op_asSInt_2:in1</title>
<path fill="none" stroke="black" d="M727.5,-126C745.99,-126 752.83,-122.57 767.32,-121.39"/>
<polygon fill="black" stroke="black" points="767.64,-124.88 777.5,-121 767.37,-117.89 767.64,-124.88"/>
</g>
<!-- op_shr_4&#45;&gt;op_bits_3 -->
<g id="edge19" class="edge">
<title>op_shr_4:out&#45;&gt;op_bits_3:in1</title>
<path fill="none" stroke="black" d="M548.5,-139C566.9,-139 573.88,-139 588.35,-139"/>
<polygon fill="black" stroke="black" points="588.5,-142.5 598.5,-139 588.5,-135.5 588.5,-142.5"/>
</g>
<!-- cluster_Neuron_weightedInput_1 -->
<g id="node14" class="node">
<title>cluster_Neuron_weightedInput_1</title>
<polygon fill="none" stroke="black" points="1070,-74 933,-74 933,-38 1070,-38 1070,-74"/>
<text text-anchor="middle" x="1001.5" y="-52.3" font-family="Times,serif" font-size="14.00">weightedInput_1</text>
</g>
<!-- cluster_Neuron_weightedInput_1&#45;&gt;op_add_11 -->
<g id="edge4" class="edge">
<title>cluster_Neuron_weightedInput_1&#45;&gt;op_add_11:in2</title>
<path fill="none" stroke="black" d="M1070.27,-60.04C1080.96,-60.47 1092.05,-60.8 1102.81,-60.93"/>
<polygon fill="black" stroke="black" points="1102.98,-64.43 1113,-61 1103.02,-57.43 1102.98,-64.43"/>
</g>
<!-- op_asSInt_5 -->
<g id="node15" class="node">
<title>op_asSInt_5</title>
<polygon fill="#d8bfd8" stroke="transparent" points="778,-41.5 778,-66.5 889,-66.5 889,-41.5 778,-41.5"/>
<polygon fill="none" stroke="black" points="778.5,-41 778.5,-66 801.5,-66 801.5,-41 778.5,-41"/>
<text text-anchor="start" x="783.5" y="-49.8" font-family="Times,serif" font-size="14.00">●</text>
<polygon fill="none" stroke="black" points="801.5,-41 801.5,-66 866.5,-66 866.5,-41 801.5,-41"/>
<text text-anchor="start" x="806.5" y="-49.8" font-family="Times,serif" font-size="14.00"> asSInt </text>
<polygon fill="none" stroke="black" points="866.5,-41 866.5,-66 889.5,-66 889.5,-41 866.5,-41"/>
<text text-anchor="start" x="871.5" y="-49.8" font-family="Times,serif" font-size="14.00">●</text>
</g>
<!-- op_asSInt_5&#45;&gt;cluster_Neuron_weightedInput_1 -->
<g id="edge2" class="edge">
<title>op_asSInt_5:out&#45;&gt;cluster_Neuron_weightedInput_1</title>
<path fill="none" stroke="black" d="M890.5,-53C900.85,-53 911.75,-53.13 922.5,-53.35"/>
<polygon fill="black" stroke="black" points="922.66,-56.85 932.73,-53.57 922.81,-49.85 922.66,-56.85"/>
</g>
<!-- op_bits_6 -->
<g id="node16" class="node">
<title>op_bits_6</title>
<polygon fill="#d8bfd8" stroke="transparent" points="599,-25 599,-75 726,-75 726,-25 599,-25"/>
<polygon fill="none" stroke="black" points="599.5,-50 599.5,-75 656.5,-75 656.5,-50 599.5,-50"/>
<text text-anchor="start" x="621.5" y="-58.8" font-family="Times,serif" font-size="14.00">●</text>
<polygon fill="none" stroke="black" points="656.5,-25 656.5,-75 703.5,-75 703.5,-25 656.5,-25"/>
<text text-anchor="start" x="661.5" y="-46.3" font-family="Times,serif" font-size="14.00"> bits </text>
<polygon fill="none" stroke="black" points="703.5,-25 703.5,-75 726.5,-75 726.5,-25 703.5,-25"/>
<text text-anchor="start" x="708.5" y="-46.3" font-family="Times,serif" font-size="14.00">●</text>
<polygon fill="none" stroke="black" points="599.5,-25 599.5,-50 656.5,-50 656.5,-25 599.5,-25"/>
<text text-anchor="start" x="604.5" y="-33.8" font-family="Times,serif" font-size="14.00">(15, 0)</text>
</g>
<!-- op_bits_6&#45;&gt;op_asSInt_5 -->
<g id="edge5" class="edge">
<title>op_bits_6:out&#45;&gt;op_asSInt_5:in1</title>
<path fill="none" stroke="black" d="M727.5,-50C745.94,-50 752.86,-52.06 767.34,-52.76"/>
<polygon fill="black" stroke="black" points="767.42,-56.27 777.5,-53 767.58,-49.27 767.42,-56.27"/>
</g>
<!-- op_shr_7 -->
<g id="node17" class="node">
<title>op_shr_7</title>
<polygon fill="#d8bfd8" stroke="transparent" points="458,-37 458,-87 547,-87 547,-37 458,-37"/>
<polygon fill="none" stroke="black" points="458.5,-62 458.5,-87 481.5,-87 481.5,-62 458.5,-62"/>
<text text-anchor="start" x="463.5" y="-70.8" font-family="Times,serif" font-size="14.00">●</text>
<polygon fill="none" stroke="black" points="481.5,-37 481.5,-87 524.5,-87 524.5,-37 481.5,-37"/>
<text text-anchor="start" x="486.5" y="-58.3" font-family="Times,serif" font-size="14.00"> shr </text>
<polygon fill="none" stroke="black" points="524.5,-37 524.5,-87 547.5,-87 547.5,-37 524.5,-37"/>
<text text-anchor="start" x="529.5" y="-58.3" font-family="Times,serif" font-size="14.00">●</text>
<polygon fill="none" stroke="black" points="458.5,-37 458.5,-62 481.5,-62 481.5,-37 458.5,-37"/>
<text text-anchor="start" x="465" y="-45.8" font-family="Times,serif" font-size="14.00">8</text>
</g>
<!-- op_shr_7&#45;&gt;op_bits_6 -->
<g id="edge16" class="edge">
<title>op_shr_7:out&#45;&gt;op_bits_6:in1</title>
<path fill="none" stroke="black" d="M548.5,-62C566.91,-62 573.87,-62.69 588.35,-62.92"/>
<polygon fill="black" stroke="black" points="588.47,-66.42 598.5,-63 588.53,-59.42 588.47,-66.42"/>
</g>
<!-- op_mul_8&#45;&gt;op_shr_7 -->
<g id="edge11" class="edge">
<title>op_mul_8:out&#45;&gt;op_shr_7:in1</title>
<path fill="none" stroke="black" d="M407.5,-75C425.9,-75 432.88,-75 447.35,-75"/>
<polygon fill="black" stroke="black" points="447.5,-78.5 457.5,-75 447.5,-71.5 447.5,-78.5"/>
</g>
<!-- cluster_Neuron_acc -->
<g id="node19" class="node">
<title>cluster_Neuron_acc</title>
<polygon fill="none" stroke="black" points="1608,-79 1554,-79 1554,-43 1608,-43 1608,-79"/>
<text text-anchor="middle" x="1581" y="-57.3" font-family="Times,serif" font-size="14.00">acc</text>
</g>
<!-- op_lte_13 -->
<g id="node25" class="node">
<title>op_lte_13</title>
<polygon fill="#d8bfd8" stroke="transparent" points="1652,-23 1652,-73 1736,-73 1736,-23 1652,-23"/>
<polygon fill="none" stroke="black" points="1652,-48 1652,-73 1675,-73 1675,-48 1652,-48"/>
<text text-anchor="start" x="1657" y="-56.8" font-family="Times,serif" font-size="14.00">●</text>
<polygon fill="none" stroke="black" points="1675,-23 1675,-73 1713,-73 1713,-23 1675,-23"/>
<text text-anchor="start" x="1680" y="-44.3" font-family="Times,serif" font-size="14.00"> lte </text>
<polygon fill="none" stroke="black" points="1713,-23 1713,-73 1736,-73 1736,-23 1713,-23"/>
<text text-anchor="start" x="1718" y="-44.3" font-family="Times,serif" font-size="14.00">●</text>
<polygon fill="none" stroke="black" points="1652,-23 1652,-48 1675,-48 1675,-23 1652,-23"/>
<text text-anchor="start" x="1658.5" y="-31.8" font-family="Times,serif" font-size="14.00">0</text>
</g>
<!-- cluster_Neuron_acc&#45;&gt;op_lte_13 -->
<g id="edge3" class="edge">
<title>cluster_Neuron_acc&#45;&gt;op_lte_13:in1</title>
<path fill="none" stroke="black" d="M1608.21,-61C1618.08,-61 1629.63,-61 1640.85,-61"/>
<polygon fill="black" stroke="black" points="1641,-64.5 1651,-61 1641,-57.5 1641,-64.5"/>
</g>
<!-- op_asSInt_9 -->
<g id="node20" class="node">
<title>op_asSInt_9</title>
<polygon fill="#d8bfd8" stroke="transparent" points="1399,-49.5 1399,-74.5 1510,-74.5 1510,-49.5 1399,-49.5"/>
<polygon fill="none" stroke="black" points="1399.5,-49 1399.5,-74 1422.5,-74 1422.5,-49 1399.5,-49"/>
<text text-anchor="start" x="1404.5" y="-57.8" font-family="Times,serif" font-size="14.00">●</text>
<polygon fill="none" stroke="black" points="1422.5,-49 1422.5,-74 1487.5,-74 1487.5,-49 1422.5,-49"/>
<text text-anchor="start" x="1427.5" y="-57.8" font-family="Times,serif" font-size="14.00"> asSInt </text>
<polygon fill="none" stroke="black" points="1487.5,-49 1487.5,-74 1510.5,-74 1510.5,-49 1487.5,-49"/>
<text text-anchor="start" x="1492.5" y="-57.8" font-family="Times,serif" font-size="14.00">●</text>
</g>
<!-- op_asSInt_9&#45;&gt;cluster_Neuron_acc -->
<g id="edge20" class="edge">
<title>op_asSInt_9:out&#45;&gt;cluster_Neuron_acc</title>
<path fill="none" stroke="black" d="M1511.5,-61C1522.02,-61 1533.46,-61 1543.92,-61"/>
<polygon fill="black" stroke="black" points="1543.98,-64.5 1553.98,-61 1543.98,-57.5 1543.98,-64.5"/>
</g>
<!-- op_tail_10 -->
<g id="node21" class="node">
<title>op_tail_10</title>
<polygon fill="#d8bfd8" stroke="transparent" points="1258,-36 1258,-86 1347,-86 1347,-36 1258,-36"/>
<polygon fill="none" stroke="black" points="1258.5,-61 1258.5,-86 1281.5,-86 1281.5,-61 1258.5,-61"/>
<text text-anchor="start" x="1263.5" y="-69.8" font-family="Times,serif" font-size="14.00">●</text>
<polygon fill="none" stroke="black" points="1281.5,-36 1281.5,-86 1324.5,-86 1324.5,-36 1281.5,-36"/>
<text text-anchor="start" x="1286.5" y="-57.3" font-family="Times,serif" font-size="14.00"> tail </text>
<polygon fill="none" stroke="black" points="1324.5,-36 1324.5,-86 1347.5,-86 1347.5,-36 1324.5,-36"/>
<text text-anchor="start" x="1329.5" y="-57.3" font-family="Times,serif" font-size="14.00">●</text>
<polygon fill="none" stroke="black" points="1258.5,-36 1258.5,-61 1281.5,-61 1281.5,-36 1258.5,-36"/>
<text text-anchor="start" x="1265" y="-44.8" font-family="Times,serif" font-size="14.00">1</text>
</g>
<!-- op_tail_10&#45;&gt;op_asSInt_9 -->
<g id="edge7" class="edge">
<title>op_tail_10:out&#45;&gt;op_asSInt_9:in1</title>
<path fill="none" stroke="black" d="M1348.5,-61C1366.9,-61 1373.88,-61 1388.35,-61"/>
<polygon fill="black" stroke="black" points="1388.5,-64.5 1398.5,-61 1388.5,-57.5 1388.5,-64.5"/>
</g>
<!-- op_add_11&#45;&gt;op_tail_10 -->
<g id="edge1" class="edge">
<title>op_add_11:out&#45;&gt;op_tail_10:in1</title>
<path fill="none" stroke="black" d="M1207,-74C1225.59,-74 1232.63,-74 1247.25,-74"/>
<polygon fill="black" stroke="black" points="1247.5,-77.5 1257.5,-74 1247.5,-70.5 1247.5,-77.5"/>
</g>
<!-- op_pad_12 -->
<g id="node23" class="node">
<title>op_pad_12</title>
<polygon fill="#d8bfd8" stroke="transparent" points="1927,-36.5 1927,-61.5 2019,-61.5 2019,-36.5 1927,-36.5"/>
<polygon fill="none" stroke="black" points="1927,-36 1927,-61 1950,-61 1950,-36 1927,-36"/>
<text text-anchor="start" x="1932" y="-44.8" font-family="Times,serif" font-size="14.00">●</text>
<polygon fill="none" stroke="black" points="1950,-36 1950,-61 1996,-61 1996,-36 1950,-36"/>
<text text-anchor="start" x="1955" y="-44.8" font-family="Times,serif" font-size="14.00"> pad </text>
<polygon fill="none" stroke="black" points="1996,-36 1996,-61 2019,-61 2019,-36 1996,-36"/>
<text text-anchor="start" x="2001" y="-44.8" font-family="Times,serif" font-size="14.00">●</text>
</g>
<!-- op_pad_12&#45;&gt;cluster_Neuron_io_out -->
<g id="edge17" class="edge">
<title>op_pad_12:out&#45;&gt;cluster_Neuron_io_out</title>
<path fill="none" stroke="black" d="M2020,-48C2030.61,-48 2042.11,-48 2052.72,-48"/>
<polygon fill="black" stroke="black" points="2052.97,-51.5 2062.97,-48 2052.97,-44.5 2052.97,-51.5"/>
</g>
<!-- mux_1827673857 -->
<g id="node24" class="node">
<title>mux_1827673857</title>
<polygon fill="#afeeee" stroke="transparent" points="1788,-23 1788,-73 1875,-73 1875,-23 1788,-23"/>
<polygon fill="none" stroke="black" points="1788.5,-48 1788.5,-73 1826.5,-73 1826.5,-48 1788.5,-48"/>
<text text-anchor="start" x="1802.5" y="-56.8" font-family="Times,serif" font-size="14.00">0</text>
<polygon fill="none" stroke="black" points="1826.5,-23 1826.5,-73 1852.5,-73 1852.5,-23 1826.5,-23"/>
<text text-anchor="start" x="1831.5" y="-44.3" font-family="Times,serif" font-size="14.00">a?</text>
<polygon fill="none" stroke="black" points="1852.5,-23 1852.5,-73 1875.5,-73 1875.5,-23 1852.5,-23"/>
<text text-anchor="start" x="1857.5" y="-44.3" font-family="Times,serif" font-size="14.00">●</text>
<polygon fill="none" stroke="black" points="1788.5,-23 1788.5,-48 1826.5,-48 1826.5,-23 1788.5,-23"/>
<text text-anchor="start" x="1793.5" y="-31.8" font-family="Times,serif" font-size="14.00">256</text>
</g>
<!-- mux_1827673857&#45;&gt;op_pad_12 -->
<g id="edge8" class="edge">
<title>mux_1827673857:out&#45;&gt;op_pad_12:in1</title>
<path fill="none" stroke="black" d="M1876.5,-48C1894.72,-48 1901.62,-48 1915.95,-48"/>
<polygon fill="black" stroke="black" points="1916,-51.5 1926,-48 1916,-44.5 1916,-51.5"/>
</g>
<!-- op_lte_13&#45;&gt;mux_1827673857 -->
<g id="edge9" class="edge">
<title>op_lte_13:out&#45;&gt;mux_1827673857:select</title>
<path fill="none" stroke="black" d="M1737,-48C1759.11,-48 1758.7,-28.93 1780,-23 1801.1,-17.12 1828.06,-2.16 1836.7,-12.21"/>
<polygon fill="black" stroke="black" points="1833.39,-13.35 1839.5,-22 1840.12,-11.42 1833.39,-13.35"/>
</g>
</g>
</svg>
