<?xml version="1.0" encoding="UTF-8" standalone="no"?>
<?xml-stylesheet href="styles.css" type="text/css"?>
<!DOCTYPE svg PUBLIC "-//W3C//DTD SVG 1.1//EN"
 "http://www.w3.org/Graphics/SVG/1.1/DTD/svg11.dtd">
<!-- Generated by graphviz version 3.0.0 (20220226.1711)
 -->
<!-- Title: MyFir Pages: 1 -->
<svg width="1995pt" height="325pt"
 viewBox="0.00 0.00 1995.00 325.00" xmlns="http://www.w3.org/2000/svg" xmlns:xlink="http://www.w3.org/1999/xlink">
<g id="graph0" class="graph" transform="scale(1 1) rotate(0) translate(4 321)">
<title>MyFir</title>
<polygon fill="white" stroke="transparent" points="-4,4 -4,-321 1991,-321 1991,4 -4,4"/>
<g id="clust1" class="cluster">
<title>cluster_MyFir</title>
<polygon fill="#fff8dc" stroke="black" points="8,-8 8,-309 1979,-309 1979,-8 8,-8"/>
<text text-anchor="middle" x="993.5" y="-293.8" font-family="Times,serif" font-size="14.00">MyFir</text>
</g>
<!-- cluster_MyFir_clock -->
<g id="node1" class="node">
<title>cluster_MyFir_clock</title>
<polygon fill="#cccccc" stroke="black" points="70,-278 16,-278 16,-242 70,-242 70,-278"/>
<text text-anchor="middle" x="43" y="-256.3" font-family="Times,serif" font-size="14.00">clock</text>
</g>
<!-- cluster_MyFir_reset -->
<g id="node2" class="node">
<title>cluster_MyFir_reset</title>
<polygon fill="#cccccc" stroke="black" points="70,-224 16,-224 16,-188 70,-188 70,-224"/>
<text text-anchor="middle" x="43" y="-202.3" font-family="Times,serif" font-size="14.00">reset</text>
</g>
<!-- cluster_MyFir_io_in -->
<g id="node3" class="node">
<title>cluster_MyFir_io_in</title>
<polygon fill="#cccccc" stroke="black" points="70,-170 16,-170 16,-134 70,-134 70,-170"/>
<text text-anchor="middle" x="43" y="-148.3" font-family="Times,serif" font-size="14.00">io_in</text>
</g>
<!-- struct_cluster_MyFir_REG -->
<g id="node5" class="node">
<title>struct_cluster_MyFir_REG</title>
<polygon fill="#ffe4b5" stroke="transparent" points="116,-140.5 116,-165.5 205,-165.5 205,-140.5 116,-140.5"/>
<polygon fill="none" stroke="black" points="116.5,-140 116.5,-165 139.5,-165 139.5,-140 116.5,-140"/>
<text text-anchor="start" x="121.5" y="-148.8" font-family="Times,serif" font-size="14.00">●</text>
<polygon fill="none" stroke="black" points="139.5,-140 139.5,-165 182.5,-165 182.5,-140 139.5,-140"/>
<text text-anchor="start" x="144.5" y="-148.8" font-family="Times,serif" font-size="14.00">REG</text>
<polygon fill="none" stroke="black" points="182.5,-140 182.5,-165 205.5,-165 205.5,-140 182.5,-140"/>
<text text-anchor="start" x="187.5" y="-148.8" font-family="Times,serif" font-size="14.00">●</text>
</g>
<!-- cluster_MyFir_io_in&#45;&gt;struct_cluster_MyFir_REG -->
<g id="edge37" class="edge">
<title>cluster_MyFir_io_in&#45;&gt;struct_cluster_MyFir_REG:in</title>
<path fill="none" stroke="black" d="M70.15,-152C80.72,-152 93.29,-152 105.44,-152"/>
<polygon fill="black" stroke="black" points="105.5,-155.5 115.5,-152 105.5,-148.5 105.5,-155.5"/>
</g>
<!-- op_mul_1 -->
<g id="node12" class="node">
<title>op_mul_1</title>
<polygon fill="#d8bfd8" stroke="transparent" points="114,-208 114,-258 207,-258 207,-208 114,-208"/>
<polygon fill="none" stroke="black" points="114.5,-233 114.5,-258 137.5,-258 137.5,-233 114.5,-233"/>
<text text-anchor="start" x="119.5" y="-241.8" font-family="Times,serif" font-size="14.00">●</text>
<polygon fill="none" stroke="black" points="137.5,-208 137.5,-258 184.5,-258 184.5,-208 137.5,-208"/>
<text text-anchor="start" x="142.5" y="-229.3" font-family="Times,serif" font-size="14.00"> mul </text>
<polygon fill="none" stroke="black" points="184.5,-208 184.5,-258 207.5,-258 207.5,-208 184.5,-208"/>
<text text-anchor="start" x="189.5" y="-229.3" font-family="Times,serif" font-size="14.00">●</text>
<polygon fill="none" stroke="black" points="114.5,-208 114.5,-233 137.5,-233 137.5,-208 114.5,-208"/>
<text text-anchor="start" x="121" y="-216.8" font-family="Times,serif" font-size="14.00">0</text>
</g>
<!-- cluster_MyFir_io_in&#45;&gt;op_mul_1 -->
<g id="edge21" class="edge">
<title>cluster_MyFir_io_in&#45;&gt;op_mul_1:in1</title>
<path fill="none" stroke="black" d="M62.39,-170.17C65.03,-173.04 67.65,-176.04 70,-179 89.67,-203.76 80.64,-237.56 103.52,-244.66"/>
<polygon fill="black" stroke="black" points="103.12,-248.14 113.5,-246 104.05,-241.2 103.12,-248.14"/>
</g>
<!-- cluster_MyFir_io_out -->
<g id="node4" class="node">
<title>cluster_MyFir_io_out</title>
<polygon fill="#e0ffff" stroke="black" points="1971,-111 1912,-111 1912,-75 1971,-75 1971,-111"/>
<text text-anchor="middle" x="1941.5" y="-89.3" font-family="Times,serif" font-size="14.00">io_out</text>
</g>
<!-- struct_cluster_MyFir_REG_1 -->
<g id="node6" class="node">
<title>struct_cluster_MyFir_REG_1</title>
<polygon fill="#ffe4b5" stroke="transparent" points="265,-116.5 265,-141.5 370,-141.5 370,-116.5 265,-116.5"/>
<polygon fill="none" stroke="black" points="265.5,-116 265.5,-141 288.5,-141 288.5,-116 265.5,-116"/>
<text text-anchor="start" x="270.5" y="-124.8" font-family="Times,serif" font-size="14.00">●</text>
<polygon fill="none" stroke="black" points="288.5,-116 288.5,-141 347.5,-141 347.5,-116 288.5,-116"/>
<text text-anchor="start" x="293.5" y="-124.8" font-family="Times,serif" font-size="14.00">REG_1</text>
<polygon fill="none" stroke="black" points="347.5,-116 347.5,-141 370.5,-141 370.5,-116 347.5,-116"/>
<text text-anchor="start" x="352.5" y="-124.8" font-family="Times,serif" font-size="14.00">●</text>
</g>
<!-- struct_cluster_MyFir_REG&#45;&gt;struct_cluster_MyFir_REG_1 -->
<g id="edge10" class="edge">
<title>struct_cluster_MyFir_REG:out&#45;&gt;struct_cluster_MyFir_REG_1:in</title>
<path fill="none" stroke="black" d="M206.5,-152C230.58,-152 235.52,-134.11 254.37,-129.22"/>
<polygon fill="black" stroke="black" points="254.99,-132.67 264.5,-128 254.15,-125.72 254.99,-132.67"/>
</g>
<!-- op_mul_2 -->
<g id="node14" class="node">
<title>op_mul_2</title>
<polygon fill="#d8bfd8" stroke="transparent" points="259,-169 259,-219 376,-219 376,-169 259,-169"/>
<polygon fill="none" stroke="black" points="259.5,-194 259.5,-219 306.5,-219 306.5,-194 259.5,-194"/>
<text text-anchor="start" x="276.5" y="-202.8" font-family="Times,serif" font-size="14.00">●</text>
<polygon fill="none" stroke="black" points="306.5,-169 306.5,-219 353.5,-219 353.5,-169 306.5,-169"/>
<text text-anchor="start" x="311.5" y="-190.3" font-family="Times,serif" font-size="14.00"> mul </text>
<polygon fill="none" stroke="black" points="353.5,-169 353.5,-219 376.5,-219 376.5,-169 353.5,-169"/>
<text text-anchor="start" x="358.5" y="-190.3" font-family="Times,serif" font-size="14.00">●</text>
<polygon fill="none" stroke="black" points="259.5,-169 259.5,-194 306.5,-194 306.5,-169 259.5,-169"/>
<text text-anchor="start" x="264.5" y="-177.8" font-family="Times,serif" font-size="14.00">1365</text>
</g>
<!-- struct_cluster_MyFir_REG&#45;&gt;op_mul_2 -->
<g id="edge34" class="edge">
<title>struct_cluster_MyFir_REG:out&#45;&gt;op_mul_2:in1</title>
<path fill="none" stroke="black" d="M206.5,-152C236.2,-152 227.77,-194.86 248.53,-204.91"/>
<polygon fill="black" stroke="black" points="247.99,-208.37 258.5,-207 249.43,-201.52 247.99,-208.37"/>
</g>
<!-- struct_cluster_MyFir_REG_2 -->
<g id="node7" class="node">
<title>struct_cluster_MyFir_REG_2</title>
<polygon fill="#ffe4b5" stroke="transparent" points="434,-63.5 434,-88.5 539,-88.5 539,-63.5 434,-63.5"/>
<polygon fill="none" stroke="black" points="434.5,-63 434.5,-88 457.5,-88 457.5,-63 434.5,-63"/>
<text text-anchor="start" x="439.5" y="-71.8" font-family="Times,serif" font-size="14.00">●</text>
<polygon fill="none" stroke="black" points="457.5,-63 457.5,-88 516.5,-88 516.5,-63 457.5,-63"/>
<text text-anchor="start" x="462.5" y="-71.8" font-family="Times,serif" font-size="14.00">REG_2</text>
<polygon fill="none" stroke="black" points="516.5,-63 516.5,-88 539.5,-88 539.5,-63 516.5,-63"/>
<text text-anchor="start" x="521.5" y="-71.8" font-family="Times,serif" font-size="14.00">●</text>
</g>
<!-- struct_cluster_MyFir_REG_1&#45;&gt;struct_cluster_MyFir_REG_2 -->
<g id="edge29" class="edge">
<title>struct_cluster_MyFir_REG_1:out&#45;&gt;struct_cluster_MyFir_REG_2:in</title>
<path fill="none" stroke="black" d="M371.5,-128C403.93,-128 398.94,-85.59 423.48,-76.64"/>
<polygon fill="black" stroke="black" points="424.2,-80.07 433.5,-75 423.07,-73.17 424.2,-80.07"/>
</g>
<!-- op_mul_3 -->
<g id="node16" class="node">
<title>op_mul_3</title>
<polygon fill="#d8bfd8" stroke="transparent" points="428,-116 428,-166 545,-166 545,-116 428,-116"/>
<polygon fill="none" stroke="black" points="428.5,-141 428.5,-166 475.5,-166 475.5,-141 428.5,-141"/>
<text text-anchor="start" x="445.5" y="-149.8" font-family="Times,serif" font-size="14.00">●</text>
<polygon fill="none" stroke="black" points="475.5,-116 475.5,-166 522.5,-166 522.5,-116 475.5,-116"/>
<text text-anchor="start" x="480.5" y="-137.3" font-family="Times,serif" font-size="14.00"> mul </text>
<polygon fill="none" stroke="black" points="522.5,-116 522.5,-166 545.5,-166 545.5,-116 522.5,-116"/>
<text text-anchor="start" x="527.5" y="-137.3" font-family="Times,serif" font-size="14.00">●</text>
<polygon fill="none" stroke="black" points="428.5,-116 428.5,-141 475.5,-141 475.5,-116 428.5,-116"/>
<text text-anchor="start" x="433.5" y="-124.8" font-family="Times,serif" font-size="14.00">2731</text>
</g>
<!-- struct_cluster_MyFir_REG_1&#45;&gt;op_mul_3 -->
<g id="edge39" class="edge">
<title>struct_cluster_MyFir_REG_1:out&#45;&gt;op_mul_3:in1</title>
<path fill="none" stroke="black" d="M371.5,-128C395.08,-128 399.22,-147.2 417.34,-152.6"/>
<polygon fill="black" stroke="black" points="417.12,-156.1 427.5,-154 418.07,-149.17 417.12,-156.1"/>
</g>
<!-- struct_cluster_MyFir_REG_3 -->
<g id="node8" class="node">
<title>struct_cluster_MyFir_REG_3</title>
<polygon fill="#ffe4b5" stroke="transparent" points="603,-41.5 603,-66.5 708,-66.5 708,-41.5 603,-41.5"/>
<polygon fill="none" stroke="black" points="603.5,-41 603.5,-66 626.5,-66 626.5,-41 603.5,-41"/>
<text text-anchor="start" x="608.5" y="-49.8" font-family="Times,serif" font-size="14.00">●</text>
<polygon fill="none" stroke="black" points="626.5,-41 626.5,-66 685.5,-66 685.5,-41 626.5,-41"/>
<text text-anchor="start" x="631.5" y="-49.8" font-family="Times,serif" font-size="14.00">REG_3</text>
<polygon fill="none" stroke="black" points="685.5,-41 685.5,-66 708.5,-66 708.5,-41 685.5,-41"/>
<text text-anchor="start" x="690.5" y="-49.8" font-family="Times,serif" font-size="14.00">●</text>
</g>
<!-- struct_cluster_MyFir_REG_2&#45;&gt;struct_cluster_MyFir_REG_3 -->
<g id="edge13" class="edge">
<title>struct_cluster_MyFir_REG_2:out&#45;&gt;struct_cluster_MyFir_REG_3:in</title>
<path fill="none" stroke="black" d="M540.5,-75C565.97,-75 571.93,-58.31 592.36,-54"/>
<polygon fill="black" stroke="black" points="592.89,-57.47 602.5,-53 592.2,-50.5 592.89,-57.47"/>
</g>
<!-- op_mul_4 -->
<g id="node18" class="node">
<title>op_mul_4</title>
<polygon fill="#d8bfd8" stroke="transparent" points="597,-94 597,-144 714,-144 714,-94 597,-94"/>
<polygon fill="none" stroke="black" points="597.5,-119 597.5,-144 644.5,-144 644.5,-119 597.5,-119"/>
<text text-anchor="start" x="614.5" y="-127.8" font-family="Times,serif" font-size="14.00">●</text>
<polygon fill="none" stroke="black" points="644.5,-94 644.5,-144 691.5,-144 691.5,-94 644.5,-94"/>
<text text-anchor="start" x="649.5" y="-115.3" font-family="Times,serif" font-size="14.00"> mul </text>
<polygon fill="none" stroke="black" points="691.5,-94 691.5,-144 714.5,-144 714.5,-94 691.5,-94"/>
<text text-anchor="start" x="696.5" y="-115.3" font-family="Times,serif" font-size="14.00">●</text>
<polygon fill="none" stroke="black" points="597.5,-94 597.5,-119 644.5,-119 644.5,-94 597.5,-94"/>
<text text-anchor="start" x="602.5" y="-102.8" font-family="Times,serif" font-size="14.00">4096</text>
</g>
<!-- struct_cluster_MyFir_REG_2&#45;&gt;op_mul_4 -->
<g id="edge16" class="edge">
<title>struct_cluster_MyFir_REG_2:out&#45;&gt;op_mul_4:in1</title>
<path fill="none" stroke="black" d="M540.5,-75C572.13,-75 563.67,-120.21 586.53,-130.1"/>
<polygon fill="black" stroke="black" points="586.02,-133.57 596.5,-132 587.33,-126.69 586.02,-133.57"/>
</g>
<!-- struct_cluster_MyFir_REG_4 -->
<g id="node9" class="node">
<title>struct_cluster_MyFir_REG_4</title>
<polygon fill="#ffe4b5" stroke="transparent" points="772,-41.5 772,-66.5 877,-66.5 877,-41.5 772,-41.5"/>
<polygon fill="none" stroke="black" points="772.5,-41 772.5,-66 795.5,-66 795.5,-41 772.5,-41"/>
<text text-anchor="start" x="777.5" y="-49.8" font-family="Times,serif" font-size="14.00">●</text>
<polygon fill="none" stroke="black" points="795.5,-41 795.5,-66 854.5,-66 854.5,-41 795.5,-41"/>
<text text-anchor="start" x="800.5" y="-49.8" font-family="Times,serif" font-size="14.00">REG_4</text>
<polygon fill="none" stroke="black" points="854.5,-41 854.5,-66 877.5,-66 877.5,-41 854.5,-41"/>
<text text-anchor="start" x="859.5" y="-49.8" font-family="Times,serif" font-size="14.00">●</text>
</g>
<!-- struct_cluster_MyFir_REG_3&#45;&gt;struct_cluster_MyFir_REG_4 -->
<g id="edge27" class="edge">
<title>struct_cluster_MyFir_REG_3:out&#45;&gt;struct_cluster_MyFir_REG_4:in</title>
<path fill="none" stroke="black" d="M709.5,-53C733.29,-53 741.67,-53 761.25,-53"/>
<polygon fill="black" stroke="black" points="761.5,-56.5 771.5,-53 761.5,-49.5 761.5,-56.5"/>
</g>
<!-- op_mul_5 -->
<g id="node20" class="node">
<title>op_mul_5</title>
<polygon fill="#d8bfd8" stroke="transparent" points="766,-95 766,-145 883,-145 883,-95 766,-95"/>
<polygon fill="none" stroke="black" points="766.5,-120 766.5,-145 813.5,-145 813.5,-120 766.5,-120"/>
<text text-anchor="start" x="783.5" y="-128.8" font-family="Times,serif" font-size="14.00">●</text>
<polygon fill="none" stroke="black" points="813.5,-95 813.5,-145 860.5,-145 860.5,-95 813.5,-95"/>
<text text-anchor="start" x="818.5" y="-116.3" font-family="Times,serif" font-size="14.00"> mul </text>
<polygon fill="none" stroke="black" points="860.5,-95 860.5,-145 883.5,-145 883.5,-95 860.5,-95"/>
<text text-anchor="start" x="865.5" y="-116.3" font-family="Times,serif" font-size="14.00">●</text>
<polygon fill="none" stroke="black" points="766.5,-95 766.5,-120 813.5,-120 813.5,-95 766.5,-95"/>
<text text-anchor="start" x="771.5" y="-103.8" font-family="Times,serif" font-size="14.00">2731</text>
</g>
<!-- struct_cluster_MyFir_REG_3&#45;&gt;op_mul_5 -->
<g id="edge23" class="edge">
<title>struct_cluster_MyFir_REG_3:out&#45;&gt;op_mul_5:in1</title>
<path fill="none" stroke="black" d="M709.5,-53C749,-53 727.03,-119.27 755.49,-131.18"/>
<polygon fill="black" stroke="black" points="755.03,-134.65 765.5,-133 756.29,-127.77 755.03,-134.65"/>
</g>
<!-- struct_cluster_MyFir_REG_5 -->
<g id="node10" class="node">
<title>struct_cluster_MyFir_REG_5</title>
<polygon fill="#ffe4b5" stroke="transparent" points="941,-21.5 941,-46.5 1046,-46.5 1046,-21.5 941,-21.5"/>
<polygon fill="none" stroke="black" points="941.5,-21 941.5,-46 964.5,-46 964.5,-21 941.5,-21"/>
<text text-anchor="start" x="946.5" y="-29.8" font-family="Times,serif" font-size="14.00">●</text>
<polygon fill="none" stroke="black" points="964.5,-21 964.5,-46 1023.5,-46 1023.5,-21 964.5,-21"/>
<text text-anchor="start" x="969.5" y="-29.8" font-family="Times,serif" font-size="14.00">REG_5</text>
<polygon fill="none" stroke="black" points="1023.5,-21 1023.5,-46 1046.5,-46 1046.5,-21 1023.5,-21"/>
<text text-anchor="start" x="1028.5" y="-29.8" font-family="Times,serif" font-size="14.00">●</text>
</g>
<!-- struct_cluster_MyFir_REG_4&#45;&gt;struct_cluster_MyFir_REG_5 -->
<g id="edge9" class="edge">
<title>struct_cluster_MyFir_REG_4:out&#45;&gt;struct_cluster_MyFir_REG_5:in</title>
<path fill="none" stroke="black" d="M878.5,-53C903.72,-53 910.08,-37.82 930.44,-33.91"/>
<polygon fill="black" stroke="black" points="930.86,-37.39 940.5,-33 930.23,-30.42 930.86,-37.39"/>
</g>
<!-- op_mul_6 -->
<g id="node22" class="node">
<title>op_mul_6</title>
<polygon fill="#d8bfd8" stroke="transparent" points="935,-74 935,-124 1052,-124 1052,-74 935,-74"/>
<polygon fill="none" stroke="black" points="935.5,-99 935.5,-124 982.5,-124 982.5,-99 935.5,-99"/>
<text text-anchor="start" x="952.5" y="-107.8" font-family="Times,serif" font-size="14.00">●</text>
<polygon fill="none" stroke="black" points="982.5,-74 982.5,-124 1029.5,-124 1029.5,-74 982.5,-74"/>
<text text-anchor="start" x="987.5" y="-95.3" font-family="Times,serif" font-size="14.00"> mul </text>
<polygon fill="none" stroke="black" points="1029.5,-74 1029.5,-124 1052.5,-124 1052.5,-74 1029.5,-74"/>
<text text-anchor="start" x="1034.5" y="-95.3" font-family="Times,serif" font-size="14.00">●</text>
<polygon fill="none" stroke="black" points="935.5,-74 935.5,-99 982.5,-99 982.5,-74 935.5,-74"/>
<text text-anchor="start" x="940.5" y="-82.8" font-family="Times,serif" font-size="14.00">1365</text>
</g>
<!-- struct_cluster_MyFir_REG_4&#45;&gt;op_mul_6 -->
<g id="edge28" class="edge">
<title>struct_cluster_MyFir_REG_4:out&#45;&gt;op_mul_6:in1</title>
<path fill="none" stroke="black" d="M878.5,-53C910.7,-53 901.29,-99.8 924.38,-110.04"/>
<polygon fill="black" stroke="black" points="924.02,-113.53 934.5,-112 925.35,-106.66 924.02,-113.53"/>
</g>
<!-- op_mul_7 -->
<g id="node24" class="node">
<title>op_mul_7</title>
<polygon fill="#d8bfd8" stroke="transparent" points="1104,-20 1104,-70 1197,-70 1197,-20 1104,-20"/>
<polygon fill="none" stroke="black" points="1104.5,-45 1104.5,-70 1127.5,-70 1127.5,-45 1104.5,-45"/>
<text text-anchor="start" x="1109.5" y="-53.8" font-family="Times,serif" font-size="14.00">●</text>
<polygon fill="none" stroke="black" points="1127.5,-20 1127.5,-70 1174.5,-70 1174.5,-20 1127.5,-20"/>
<text text-anchor="start" x="1132.5" y="-41.3" font-family="Times,serif" font-size="14.00"> mul </text>
<polygon fill="none" stroke="black" points="1174.5,-20 1174.5,-70 1197.5,-70 1197.5,-20 1174.5,-20"/>
<text text-anchor="start" x="1179.5" y="-41.3" font-family="Times,serif" font-size="14.00">●</text>
<polygon fill="none" stroke="black" points="1104.5,-20 1104.5,-45 1127.5,-45 1127.5,-20 1104.5,-20"/>
<text text-anchor="start" x="1111" y="-28.8" font-family="Times,serif" font-size="14.00">0</text>
</g>
<!-- struct_cluster_MyFir_REG_5&#45;&gt;op_mul_7 -->
<g id="edge1" class="edge">
<title>struct_cluster_MyFir_REG_5:out&#45;&gt;op_mul_7:in1</title>
<path fill="none" stroke="black" d="M1047.5,-33C1070.92,-33 1075.32,-51.46 1093.39,-56.66"/>
<polygon fill="black" stroke="black" points="1093.13,-60.15 1103.5,-58 1094.05,-53.21 1093.13,-60.15"/>
</g>
<!-- cluster_MyFir_mults_0 -->
<g id="node11" class="node">
<title>cluster_MyFir_mults_0</title>
<polygon fill="none" stroke="black" points="354,-277 281,-277 281,-241 354,-241 354,-277"/>
<text text-anchor="middle" x="317.5" y="-255.3" font-family="Times,serif" font-size="14.00">mults_0</text>
</g>
<!-- op_pad_9 -->
<g id="node27" class="node">
<title>op_pad_9</title>
<polygon fill="#d8bfd8" stroke="transparent" points="440.5,-247.5 440.5,-272.5 532.5,-272.5 532.5,-247.5 440.5,-247.5"/>
<polygon fill="none" stroke="black" points="440.5,-247 440.5,-272 463.5,-272 463.5,-247 440.5,-247"/>
<text text-anchor="start" x="445.5" y="-255.8" font-family="Times,serif" font-size="14.00">●</text>
<polygon fill="none" stroke="black" points="463.5,-247 463.5,-272 509.5,-272 509.5,-247 463.5,-247"/>
<text text-anchor="start" x="468.5" y="-255.8" font-family="Times,serif" font-size="14.00"> pad </text>
<polygon fill="none" stroke="black" points="509.5,-247 509.5,-272 532.5,-272 532.5,-247 509.5,-247"/>
<text text-anchor="start" x="514.5" y="-255.8" font-family="Times,serif" font-size="14.00">●</text>
</g>
<!-- cluster_MyFir_mults_0&#45;&gt;op_pad_9 -->
<g id="edge24" class="edge">
<title>cluster_MyFir_mults_0&#45;&gt;op_pad_9:in1</title>
<path fill="none" stroke="black" d="M354.24,-259C375.51,-259 403.32,-259 429.28,-259"/>
<polygon fill="black" stroke="black" points="429.5,-262.5 439.5,-259 429.5,-255.5 429.5,-262.5"/>
</g>
<!-- op_mul_1&#45;&gt;cluster_MyFir_mults_0 -->
<g id="edge4" class="edge">
<title>op_mul_1:out&#45;&gt;cluster_MyFir_mults_0</title>
<path fill="none" stroke="black" d="M208.5,-233C229.36,-233 251.87,-237.64 270.91,-243"/>
<polygon fill="black" stroke="black" points="269.94,-246.36 280.52,-245.85 271.93,-239.65 269.94,-246.36"/>
</g>
<!-- cluster_MyFir_mults_1 -->
<g id="node13" class="node">
<title>cluster_MyFir_mults_1</title>
<polygon fill="none" stroke="black" points="523,-224 450,-224 450,-188 523,-188 523,-224"/>
<text text-anchor="middle" x="486.5" y="-202.3" font-family="Times,serif" font-size="14.00">mults_1</text>
</g>
<!-- op_add_8 -->
<g id="node26" class="node">
<title>op_add_8</title>
<polygon fill="#d8bfd8" stroke="transparent" points="609.5,-224 609.5,-274 701.5,-274 701.5,-224 609.5,-224"/>
<polygon fill="none" stroke="black" points="609.5,-249 609.5,-274 632.5,-274 632.5,-249 609.5,-249"/>
<text text-anchor="start" x="614.5" y="-257.8" font-family="Times,serif" font-size="14.00">●</text>
<polygon fill="none" stroke="black" points="632.5,-224 632.5,-274 678.5,-274 678.5,-224 632.5,-224"/>
<text text-anchor="start" x="637.5" y="-245.3" font-family="Times,serif" font-size="14.00"> add </text>
<polygon fill="none" stroke="black" points="678.5,-224 678.5,-274 701.5,-274 701.5,-224 678.5,-224"/>
<text text-anchor="start" x="683.5" y="-245.3" font-family="Times,serif" font-size="14.00">●</text>
<polygon fill="none" stroke="black" points="609.5,-224 609.5,-249 632.5,-249 632.5,-224 609.5,-224"/>
<text text-anchor="start" x="614.5" y="-232.8" font-family="Times,serif" font-size="14.00">●</text>
</g>
<!-- cluster_MyFir_mults_1&#45;&gt;op_add_8 -->
<g id="edge26" class="edge">
<title>cluster_MyFir_mults_1&#45;&gt;op_add_8:in2</title>
<path fill="none" stroke="black" d="M523.2,-219.68C544.3,-226.7 571.99,-234.1 598.44,-235.69"/>
<polygon fill="black" stroke="black" points="598.4,-239.19 608.5,-236 598.61,-232.19 598.4,-239.19"/>
</g>
<!-- op_mul_2&#45;&gt;cluster_MyFir_mults_1 -->
<g id="edge33" class="edge">
<title>op_mul_2:out&#45;&gt;cluster_MyFir_mults_1</title>
<path fill="none" stroke="black" d="M377.5,-194C397.97,-194 420.49,-196.16 439.64,-198.64"/>
<polygon fill="black" stroke="black" points="439.23,-202.12 449.61,-200 440.18,-195.18 439.23,-202.12"/>
</g>
<!-- cluster_MyFir_mults_2 -->
<g id="node15" class="node">
<title>cluster_MyFir_mults_2</title>
<polygon fill="none" stroke="black" points="692,-202 619,-202 619,-166 692,-166 692,-202"/>
<text text-anchor="middle" x="655.5" y="-180.3" font-family="Times,serif" font-size="14.00">mults_2</text>
</g>
<!-- op_add_14 -->
<g id="node33" class="node">
<title>op_add_14</title>
<polygon fill="#d8bfd8" stroke="transparent" points="947.5,-224 947.5,-274 1039.5,-274 1039.5,-224 947.5,-224"/>
<polygon fill="none" stroke="black" points="947.5,-249 947.5,-274 970.5,-274 970.5,-249 947.5,-249"/>
<text text-anchor="start" x="952.5" y="-257.8" font-family="Times,serif" font-size="14.00">●</text>
<polygon fill="none" stroke="black" points="970.5,-224 970.5,-274 1016.5,-274 1016.5,-224 970.5,-224"/>
<text text-anchor="start" x="975.5" y="-245.3" font-family="Times,serif" font-size="14.00"> add </text>
<polygon fill="none" stroke="black" points="1016.5,-224 1016.5,-274 1039.5,-274 1039.5,-224 1016.5,-224"/>
<text text-anchor="start" x="1021.5" y="-245.3" font-family="Times,serif" font-size="14.00">●</text>
<polygon fill="none" stroke="black" points="947.5,-224 947.5,-249 970.5,-249 970.5,-224 947.5,-224"/>
<text text-anchor="start" x="952.5" y="-232.8" font-family="Times,serif" font-size="14.00">●</text>
</g>
<!-- cluster_MyFir_mults_2&#45;&gt;op_add_14 -->
<g id="edge35" class="edge">
<title>cluster_MyFir_mults_2&#45;&gt;op_add_14:in2</title>
<path fill="none" stroke="black" d="M692.37,-195.24C711.66,-200.94 735.95,-207.58 758,-212 796.41,-219.7 889.45,-233.77 936.41,-235.76"/>
<polygon fill="black" stroke="black" points="936.42,-239.26 946.5,-236 936.59,-232.27 936.42,-239.26"/>
</g>
<!-- op_mul_3&#45;&gt;cluster_MyFir_mults_2 -->
<g id="edge18" class="edge">
<title>op_mul_3:out&#45;&gt;cluster_MyFir_mults_2</title>
<path fill="none" stroke="black" d="M546.5,-141C548.27,-141 580.47,-153.89 609.26,-165.55"/>
<polygon fill="black" stroke="black" points="608.25,-168.92 618.84,-169.44 610.89,-162.44 608.25,-168.92"/>
</g>
<!-- cluster_MyFir_mults_3 -->
<g id="node17" class="node">
<title>cluster_MyFir_mults_3</title>
<polygon fill="none" stroke="black" points="861,-203 788,-203 788,-167 861,-167 861,-203"/>
<text text-anchor="middle" x="824.5" y="-181.3" font-family="Times,serif" font-size="14.00">mults_3</text>
</g>
<!-- op_add_13 -->
<g id="node32" class="node">
<title>op_add_13</title>
<polygon fill="#d8bfd8" stroke="transparent" points="1104.5,-204 1104.5,-254 1196.5,-254 1196.5,-204 1104.5,-204"/>
<polygon fill="none" stroke="black" points="1104.5,-229 1104.5,-254 1127.5,-254 1127.5,-229 1104.5,-229"/>
<text text-anchor="start" x="1109.5" y="-237.8" font-family="Times,serif" font-size="14.00">●</text>
<polygon fill="none" stroke="black" points="1127.5,-204 1127.5,-254 1173.5,-254 1173.5,-204 1127.5,-204"/>
<text text-anchor="start" x="1132.5" y="-225.3" font-family="Times,serif" font-size="14.00"> add </text>
<polygon fill="none" stroke="black" points="1173.5,-204 1173.5,-254 1196.5,-254 1196.5,-204 1173.5,-204"/>
<text text-anchor="start" x="1178.5" y="-225.3" font-family="Times,serif" font-size="14.00">●</text>
<polygon fill="none" stroke="black" points="1104.5,-204 1104.5,-229 1127.5,-229 1127.5,-204 1104.5,-204"/>
<text text-anchor="start" x="1109.5" y="-212.8" font-family="Times,serif" font-size="14.00">●</text>
</g>
<!-- cluster_MyFir_mults_3&#45;&gt;op_add_13 -->
<g id="edge19" class="edge">
<title>cluster_MyFir_mults_3&#45;&gt;op_add_13:in2</title>
<path fill="none" stroke="black" d="M861.26,-188.92C907.25,-193.97 989.58,-203.05 1060,-211 1075.41,-212.74 1081.53,-214.88 1093.22,-215.68"/>
<polygon fill="black" stroke="black" points="1093.4,-219.19 1103.5,-216 1093.61,-212.19 1093.4,-219.19"/>
</g>
<!-- op_mul_4&#45;&gt;cluster_MyFir_mults_3 -->
<g id="edge6" class="edge">
<title>op_mul_4:out&#45;&gt;cluster_MyFir_mults_3</title>
<path fill="none" stroke="black" d="M715.5,-119C741.14,-119 736.37,-144.24 758,-158 764.28,-162 771.25,-165.61 778.23,-168.8"/>
<polygon fill="black" stroke="black" points="777.13,-172.14 787.7,-172.89 779.9,-165.71 777.13,-172.14"/>
</g>
<!-- cluster_MyFir_mults_4 -->
<g id="node19" class="node">
<title>cluster_MyFir_mults_4</title>
<polygon fill="none" stroke="black" points="1030,-182 957,-182 957,-146 1030,-146 1030,-182"/>
<text text-anchor="middle" x="993.5" y="-160.3" font-family="Times,serif" font-size="14.00">mults_4</text>
</g>
<!-- op_pad_15 -->
<g id="node34" class="node">
<title>op_pad_15</title>
<polygon fill="#d8bfd8" stroke="transparent" points="1104.5,-151.5 1104.5,-176.5 1196.5,-176.5 1196.5,-151.5 1104.5,-151.5"/>
<polygon fill="none" stroke="black" points="1104.5,-151 1104.5,-176 1127.5,-176 1127.5,-151 1104.5,-151"/>
<text text-anchor="start" x="1109.5" y="-159.8" font-family="Times,serif" font-size="14.00">●</text>
<polygon fill="none" stroke="black" points="1127.5,-151 1127.5,-176 1173.5,-176 1173.5,-151 1127.5,-151"/>
<text text-anchor="start" x="1132.5" y="-159.8" font-family="Times,serif" font-size="14.00"> pad </text>
<polygon fill="none" stroke="black" points="1173.5,-151 1173.5,-176 1196.5,-176 1196.5,-151 1173.5,-151"/>
<text text-anchor="start" x="1178.5" y="-159.8" font-family="Times,serif" font-size="14.00">●</text>
</g>
<!-- cluster_MyFir_mults_4&#45;&gt;op_pad_15 -->
<g id="edge14" class="edge">
<title>cluster_MyFir_mults_4&#45;&gt;op_pad_15:in1</title>
<path fill="none" stroke="black" d="M1030.34,-163.51C1048.69,-163.29 1071.69,-163.07 1093.34,-163.01"/>
<polygon fill="black" stroke="black" points="1093.5,-166.51 1103.5,-163 1093.5,-159.51 1093.5,-166.51"/>
</g>
<!-- op_mul_5&#45;&gt;cluster_MyFir_mults_4 -->
<g id="edge31" class="edge">
<title>op_mul_5:out&#45;&gt;cluster_MyFir_mults_4</title>
<path fill="none" stroke="black" d="M884.5,-120C885.4,-120 918.37,-133.47 947.65,-145.51"/>
<polygon fill="black" stroke="black" points="946.4,-148.78 956.98,-149.35 949.07,-142.31 946.4,-148.78"/>
</g>
<!-- cluster_MyFir_mults_5 -->
<g id="node21" class="node">
<title>cluster_MyFir_mults_5</title>
<polygon fill="none" stroke="black" points="1187,-128 1114,-128 1114,-92 1187,-92 1187,-128"/>
<text text-anchor="middle" x="1150.5" y="-106.3" font-family="Times,serif" font-size="14.00">mults_5</text>
</g>
<!-- op_pad_16 -->
<g id="node35" class="node">
<title>op_pad_16</title>
<polygon fill="#d8bfd8" stroke="transparent" points="1249,-98.5 1249,-123.5 1341,-123.5 1341,-98.5 1249,-98.5"/>
<polygon fill="none" stroke="black" points="1249,-98 1249,-123 1272,-123 1272,-98 1249,-98"/>
<text text-anchor="start" x="1254" y="-106.8" font-family="Times,serif" font-size="14.00">●</text>
<polygon fill="none" stroke="black" points="1272,-98 1272,-123 1318,-123 1318,-98 1272,-98"/>
<text text-anchor="start" x="1277" y="-106.8" font-family="Times,serif" font-size="14.00"> pad </text>
<polygon fill="none" stroke="black" points="1318,-98 1318,-123 1341,-123 1341,-98 1318,-98"/>
<text text-anchor="start" x="1323" y="-106.8" font-family="Times,serif" font-size="14.00">●</text>
</g>
<!-- cluster_MyFir_mults_5&#45;&gt;op_pad_16 -->
<g id="edge17" class="edge">
<title>cluster_MyFir_mults_5&#45;&gt;op_pad_16:in1</title>
<path fill="none" stroke="black" d="M1187.25,-110C1202.45,-110 1220.64,-110 1237.94,-110"/>
<polygon fill="black" stroke="black" points="1238,-113.5 1248,-110 1238,-106.5 1238,-113.5"/>
</g>
<!-- op_mul_6&#45;&gt;cluster_MyFir_mults_5 -->
<g id="edge20" class="edge">
<title>op_mul_6:out&#45;&gt;cluster_MyFir_mults_5</title>
<path fill="none" stroke="black" d="M1053.5,-99C1069.88,-99 1087.72,-100.6 1103.54,-102.58"/>
<polygon fill="black" stroke="black" points="1103.22,-106.07 1113.6,-103.92 1104.15,-99.13 1103.22,-106.07"/>
</g>
<!-- cluster_MyFir_mults_6 -->
<g id="node23" class="node">
<title>cluster_MyFir_mults_6</title>
<polygon fill="none" stroke="black" points="1331.5,-66 1258.5,-66 1258.5,-30 1331.5,-30 1331.5,-66"/>
<text text-anchor="middle" x="1295" y="-44.3" font-family="Times,serif" font-size="14.00">mults_6</text>
</g>
<!-- op_pad_17 -->
<g id="node36" class="node">
<title>op_pad_17</title>
<polygon fill="#d8bfd8" stroke="transparent" points="1393,-42.5 1393,-67.5 1485,-67.5 1485,-42.5 1393,-42.5"/>
<polygon fill="none" stroke="black" points="1393,-42 1393,-67 1416,-67 1416,-42 1393,-42"/>
<text text-anchor="start" x="1398" y="-50.8" font-family="Times,serif" font-size="14.00">●</text>
<polygon fill="none" stroke="black" points="1416,-42 1416,-67 1462,-67 1462,-42 1416,-42"/>
<text text-anchor="start" x="1421" y="-50.8" font-family="Times,serif" font-size="14.00"> pad </text>
<polygon fill="none" stroke="black" points="1462,-42 1462,-67 1485,-67 1485,-42 1462,-42"/>
<text text-anchor="start" x="1467" y="-50.8" font-family="Times,serif" font-size="14.00">●</text>
</g>
<!-- cluster_MyFir_mults_6&#45;&gt;op_pad_17 -->
<g id="edge25" class="edge">
<title>cluster_MyFir_mults_6&#45;&gt;op_pad_17:in1</title>
<path fill="none" stroke="black" d="M1331.53,-51.28C1346.65,-52.45 1364.74,-53.57 1381.98,-53.9"/>
<polygon fill="black" stroke="black" points="1381.97,-57.4 1392,-54 1382.04,-50.4 1381.97,-57.4"/>
</g>
<!-- op_mul_7&#45;&gt;cluster_MyFir_mults_6 -->
<g id="edge7" class="edge">
<title>op_mul_7:out&#45;&gt;cluster_MyFir_mults_6</title>
<path fill="none" stroke="black" d="M1198.5,-45C1214.69,-45 1232.42,-45.44 1248.16,-45.98"/>
<polygon fill="black" stroke="black" points="1248.06,-49.47 1258.18,-46.34 1248.32,-42.48 1248.06,-49.47"/>
</g>
<!-- cluster_MyFir__T -->
<g id="node25" class="node">
<title>cluster_MyFir__T</title>
<polygon fill="none" stroke="black" points="851.5,-277 797.5,-277 797.5,-241 851.5,-241 851.5,-277"/>
<text text-anchor="middle" x="824.5" y="-255.3" font-family="Times,serif" font-size="14.00">_T</text>
</g>
<!-- cluster_MyFir__T&#45;&gt;op_add_14 -->
<g id="edge11" class="edge">
<title>cluster_MyFir__T&#45;&gt;op_add_14:in1</title>
<path fill="none" stroke="black" d="M851.93,-260.03C873.95,-260.81 906.45,-261.78 936.44,-261.97"/>
<polygon fill="black" stroke="black" points="936.49,-265.47 946.5,-262 936.51,-258.47 936.49,-265.47"/>
</g>
<!-- op_add_8&#45;&gt;cluster_MyFir__T -->
<g id="edge3" class="edge">
<title>op_add_8:out&#45;&gt;cluster_MyFir__T</title>
<path fill="none" stroke="black" d="M702.5,-249C730.96,-249 763.06,-251.78 787.04,-254.41"/>
<polygon fill="black" stroke="black" points="786.78,-257.9 797.12,-255.56 787.58,-250.95 786.78,-257.9"/>
</g>
<!-- op_pad_9&#45;&gt;op_add_8 -->
<g id="edge2" class="edge">
<title>op_pad_9:out&#45;&gt;op_add_8:in1</title>
<path fill="none" stroke="black" d="M533.5,-259C563.21,-259 573.03,-261.38 598.39,-261.9"/>
<polygon fill="black" stroke="black" points="598.47,-265.4 608.5,-262 598.54,-258.4 598.47,-265.4"/>
</g>
<!-- cluster_MyFir_result -->
<g id="node28" class="node">
<title>cluster_MyFir_result</title>
<polygon fill="none" stroke="black" points="1732,-111 1673,-111 1673,-75 1732,-75 1732,-111"/>
<text text-anchor="middle" x="1702.5" y="-89.3" font-family="Times,serif" font-size="14.00">result</text>
</g>
<!-- op_pad_18 -->
<g id="node37" class="node">
<title>op_pad_18</title>
<polygon fill="#d8bfd8" stroke="transparent" points="1776,-81.5 1776,-106.5 1868,-106.5 1868,-81.5 1776,-81.5"/>
<polygon fill="none" stroke="black" points="1776,-81 1776,-106 1799,-106 1799,-81 1776,-81"/>
<text text-anchor="start" x="1781" y="-89.8" font-family="Times,serif" font-size="14.00">●</text>
<polygon fill="none" stroke="black" points="1799,-81 1799,-106 1845,-106 1845,-81 1799,-81"/>
<text text-anchor="start" x="1804" y="-89.8" font-family="Times,serif" font-size="14.00"> pad </text>
<polygon fill="none" stroke="black" points="1845,-81 1845,-106 1868,-106 1868,-81 1845,-81"/>
<text text-anchor="start" x="1850" y="-89.8" font-family="Times,serif" font-size="14.00">●</text>
</g>
<!-- cluster_MyFir_result&#45;&gt;op_pad_18 -->
<g id="edge38" class="edge">
<title>cluster_MyFir_result&#45;&gt;op_pad_18:in1</title>
<path fill="none" stroke="black" d="M1732.03,-93C1742.05,-93 1753.62,-93 1764.84,-93"/>
<polygon fill="black" stroke="black" points="1765,-96.5 1775,-93 1765,-89.5 1765,-96.5"/>
</g>
<!-- op_add_10 -->
<g id="node29" class="node">
<title>op_add_10</title>
<polygon fill="#d8bfd8" stroke="transparent" points="1537,-68 1537,-118 1629,-118 1629,-68 1537,-68"/>
<polygon fill="none" stroke="black" points="1537,-93 1537,-118 1560,-118 1560,-93 1537,-93"/>
<text text-anchor="start" x="1542" y="-101.8" font-family="Times,serif" font-size="14.00">●</text>
<polygon fill="none" stroke="black" points="1560,-68 1560,-118 1606,-118 1606,-68 1560,-68"/>
<text text-anchor="start" x="1565" y="-89.3" font-family="Times,serif" font-size="14.00"> add </text>
<polygon fill="none" stroke="black" points="1606,-68 1606,-118 1629,-118 1629,-68 1606,-68"/>
<text text-anchor="start" x="1611" y="-89.3" font-family="Times,serif" font-size="14.00">●</text>
<polygon fill="none" stroke="black" points="1537,-68 1537,-93 1560,-93 1560,-68 1537,-68"/>
<text text-anchor="start" x="1542" y="-76.8" font-family="Times,serif" font-size="14.00">●</text>
</g>
<!-- op_add_10&#45;&gt;cluster_MyFir_result -->
<g id="edge40" class="edge">
<title>op_add_10:out&#45;&gt;cluster_MyFir_result</title>
<path fill="none" stroke="black" d="M1630,-93C1640.61,-93 1652.11,-93 1662.72,-93"/>
<polygon fill="black" stroke="black" points="1662.97,-96.5 1672.97,-93 1662.97,-89.5 1662.97,-96.5"/>
</g>
<!-- op_add_11 -->
<g id="node30" class="node">
<title>op_add_11</title>
<polygon fill="#d8bfd8" stroke="transparent" points="1393,-98 1393,-148 1485,-148 1485,-98 1393,-98"/>
<polygon fill="none" stroke="black" points="1393,-123 1393,-148 1416,-148 1416,-123 1393,-123"/>
<text text-anchor="start" x="1398" y="-131.8" font-family="Times,serif" font-size="14.00">●</text>
<polygon fill="none" stroke="black" points="1416,-98 1416,-148 1462,-148 1462,-98 1416,-98"/>
<text text-anchor="start" x="1421" y="-119.3" font-family="Times,serif" font-size="14.00"> add </text>
<polygon fill="none" stroke="black" points="1462,-98 1462,-148 1485,-148 1485,-98 1462,-98"/>
<text text-anchor="start" x="1467" y="-119.3" font-family="Times,serif" font-size="14.00">●</text>
<polygon fill="none" stroke="black" points="1393,-98 1393,-123 1416,-123 1416,-98 1393,-98"/>
<text text-anchor="start" x="1398" y="-106.8" font-family="Times,serif" font-size="14.00">●</text>
</g>
<!-- op_add_11&#45;&gt;op_add_10 -->
<g id="edge8" class="edge">
<title>op_add_11:out&#45;&gt;op_add_10:in1</title>
<path fill="none" stroke="black" d="M1486,-123C1505.62,-123 1510.98,-111.12 1525.92,-107.22"/>
<polygon fill="black" stroke="black" points="1526.49,-110.68 1536,-106 1525.65,-103.73 1526.49,-110.68"/>
</g>
<!-- op_add_12 -->
<g id="node31" class="node">
<title>op_add_12</title>
<polygon fill="#d8bfd8" stroke="transparent" points="1249,-151 1249,-201 1341,-201 1341,-151 1249,-151"/>
<polygon fill="none" stroke="black" points="1249,-176 1249,-201 1272,-201 1272,-176 1249,-176"/>
<text text-anchor="start" x="1254" y="-184.8" font-family="Times,serif" font-size="14.00">●</text>
<polygon fill="none" stroke="black" points="1272,-151 1272,-201 1318,-201 1318,-151 1272,-151"/>
<text text-anchor="start" x="1277" y="-172.3" font-family="Times,serif" font-size="14.00"> add </text>
<polygon fill="none" stroke="black" points="1318,-151 1318,-201 1341,-201 1341,-151 1318,-151"/>
<text text-anchor="start" x="1323" y="-172.3" font-family="Times,serif" font-size="14.00">●</text>
<polygon fill="none" stroke="black" points="1249,-151 1249,-176 1272,-176 1272,-151 1249,-151"/>
<text text-anchor="start" x="1254" y="-159.8" font-family="Times,serif" font-size="14.00">●</text>
</g>
<!-- op_add_12&#45;&gt;op_add_11 -->
<g id="edge15" class="edge">
<title>op_add_12:out&#45;&gt;op_add_11:in1</title>
<path fill="none" stroke="black" d="M1342,-176C1366.46,-176 1364.79,-146.46 1381.9,-138.15"/>
<polygon fill="black" stroke="black" points="1382.95,-141.51 1392,-136 1381.49,-134.66 1382.95,-141.51"/>
</g>
<!-- op_add_13&#45;&gt;op_add_12 -->
<g id="edge22" class="edge">
<title>op_add_13:out&#45;&gt;op_add_12:in1</title>
<path fill="none" stroke="black" d="M1197.5,-229C1222.11,-229 1220.57,-199.46 1237.82,-191.15"/>
<polygon fill="black" stroke="black" points="1238.94,-194.49 1248,-189 1237.49,-187.64 1238.94,-194.49"/>
</g>
<!-- op_add_14&#45;&gt;op_add_13 -->
<g id="edge36" class="edge">
<title>op_add_14:out&#45;&gt;op_add_13:in1</title>
<path fill="none" stroke="black" d="M1040.5,-249C1064.93,-249 1073.18,-243.74 1093.31,-242.34"/>
<polygon fill="black" stroke="black" points="1093.62,-245.83 1103.5,-242 1093.39,-238.83 1093.62,-245.83"/>
</g>
<!-- op_pad_15&#45;&gt;op_add_12 -->
<g id="edge12" class="edge">
<title>op_pad_15:out&#45;&gt;op_add_12:in2</title>
<path fill="none" stroke="black" d="M1197.5,-163C1216.09,-163 1223.13,-163 1237.75,-163"/>
<polygon fill="black" stroke="black" points="1238,-166.5 1248,-163 1238,-159.5 1238,-166.5"/>
</g>
<!-- op_pad_16&#45;&gt;op_add_11 -->
<g id="edge5" class="edge">
<title>op_pad_16:out&#45;&gt;op_add_11:in2</title>
<path fill="none" stroke="black" d="M1342,-110C1360.4,-110 1367.38,-110 1381.85,-110"/>
<polygon fill="black" stroke="black" points="1382,-113.5 1392,-110 1382,-106.5 1382,-113.5"/>
</g>
<!-- op_pad_17&#45;&gt;op_add_10 -->
<g id="edge32" class="edge">
<title>op_pad_17:out&#45;&gt;op_add_10:in2</title>
<path fill="none" stroke="black" d="M1486,-54C1507.13,-54 1510.37,-72.51 1525.91,-78.29"/>
<polygon fill="black" stroke="black" points="1525.56,-81.78 1536,-80 1526.72,-74.88 1525.56,-81.78"/>
</g>
<!-- op_pad_18&#45;&gt;cluster_MyFir_io_out -->
<g id="edge30" class="edge">
<title>op_pad_18:out&#45;&gt;cluster_MyFir_io_out</title>
<path fill="none" stroke="black" d="M1869,-93C1879.61,-93 1891.11,-93 1901.72,-93"/>
<polygon fill="black" stroke="black" points="1901.97,-96.5 1911.97,-93 1901.97,-89.5 1901.97,-96.5"/>
</g>
</g>
</svg>
