<?xml version="1.0" encoding="UTF-8" standalone="no"?>
<?xml-stylesheet href="styles.css" type="text/css"?>
<!DOCTYPE svg PUBLIC "-//W3C//DTD SVG 1.1//EN"
 "http://www.w3.org/Graphics/SVG/1.1/DTD/svg11.dtd">
<!-- Generated by graphviz version 3.0.0 (20220226.1711)
 -->
<!-- Title: ShiftRegister Pages: 1 -->
<svg width="660pt" height="207pt"
 viewBox="0.00 0.00 660.00 207.00" xmlns="http://www.w3.org/2000/svg" xmlns:xlink="http://www.w3.org/1999/xlink">
<g id="graph0" class="graph" transform="scale(1 1) rotate(0) translate(4 203)">
<title>ShiftRegister</title>
<polygon fill="white" stroke="transparent" points="-4,4 -4,-203 656,-203 656,4 -4,4"/>
<g id="clust1" class="cluster">
<title>cluster_ShiftRegister</title>
<polygon fill="#fff8dc" stroke="black" points="8,-8 8,-191 644,-191 644,-8 8,-8"/>
<text text-anchor="middle" x="326" y="-175.8" font-family="Times,serif" font-size="14.00">ShiftRegister</text>
</g>
<!-- cluster_ShiftRegister_clock -->
<g id="node1" class="node">
<title>cluster_ShiftRegister_clock</title>
<polygon fill="#cccccc" stroke="black" points="70,-160 16,-160 16,-124 70,-124 70,-160"/>
<text text-anchor="middle" x="43" y="-138.3" font-family="Times,serif" font-size="14.00">clock</text>
</g>
<!-- cluster_ShiftRegister_reset -->
<g id="node2" class="node">
<title>cluster_ShiftRegister_reset</title>
<polygon fill="#cccccc" stroke="black" points="70,-106 16,-106 16,-70 70,-70 70,-106"/>
<text text-anchor="middle" x="43" y="-84.3" font-family="Times,serif" font-size="14.00">reset</text>
</g>
<!-- cluster_ShiftRegister_io_in -->
<g id="node3" class="node">
<title>cluster_ShiftRegister_io_in</title>
<polygon fill="#cccccc" stroke="black" points="70,-52 16,-52 16,-16 70,-16 70,-52"/>
<text text-anchor="middle" x="43" y="-30.3" font-family="Times,serif" font-size="14.00">io_in</text>
</g>
<!-- cluster_ShiftRegister_io_out_0 -->
<g id="node4" class="node">
<title>cluster_ShiftRegister_io_out_0</title>
<polygon fill="#e0ffff" stroke="black" points="196,-52 121,-52 121,-16 196,-16 196,-52"/>
<text text-anchor="middle" x="158.5" y="-30.3" font-family="Times,serif" font-size="14.00">io_out_0</text>
</g>
<!-- cluster_ShiftRegister_io_in&#45;&gt;cluster_ShiftRegister_io_out_0 -->
<g id="edge3" class="edge">
<title>cluster_ShiftRegister_io_in&#45;&gt;cluster_ShiftRegister_io_out_0</title>
<path fill="none" stroke="black" d="M70.04,-34C82.03,-34 96.65,-34 110.47,-34"/>
<polygon fill="black" stroke="black" points="110.83,-37.5 120.83,-34 110.83,-30.5 110.83,-37.5"/>
</g>
<!-- struct_cluster_ShiftRegister_REG -->
<g id="node8" class="node">
<title>struct_cluster_ShiftRegister_REG</title>
<polygon fill="#ffe4b5" stroke="transparent" points="114,-75.5 114,-100.5 203,-100.5 203,-75.5 114,-75.5"/>
<polygon fill="none" stroke="black" points="114.5,-75 114.5,-100 137.5,-100 137.5,-75 114.5,-75"/>
<text text-anchor="start" x="119.5" y="-83.8" font-family="Times,serif" font-size="14.00">●</text>
<polygon fill="none" stroke="black" points="137.5,-75 137.5,-100 180.5,-100 180.5,-75 137.5,-75"/>
<text text-anchor="start" x="142.5" y="-83.8" font-family="Times,serif" font-size="14.00">REG</text>
<polygon fill="none" stroke="black" points="180.5,-75 180.5,-100 203.5,-100 203.5,-75 180.5,-75"/>
<text text-anchor="start" x="185.5" y="-83.8" font-family="Times,serif" font-size="14.00">●</text>
</g>
<!-- cluster_ShiftRegister_io_in&#45;&gt;struct_cluster_ShiftRegister_REG -->
<g id="edge2" class="edge">
<title>cluster_ShiftRegister_io_in&#45;&gt;struct_cluster_ShiftRegister_REG:in</title>
<path fill="none" stroke="black" d="M62.43,-52.24C74.92,-63.98 91.33,-78.12 103.61,-84.1"/>
<polygon fill="black" stroke="black" points="102.92,-87.55 113.5,-87 104.89,-80.83 102.92,-87.55"/>
</g>
<!-- cluster_ShiftRegister_io_out_1 -->
<g id="node5" class="node">
<title>cluster_ShiftRegister_io_out_1</title>
<polygon fill="#e0ffff" stroke="black" points="345,-52 270,-52 270,-16 345,-16 345,-52"/>
<text text-anchor="middle" x="307.5" y="-30.3" font-family="Times,serif" font-size="14.00">io_out_1</text>
</g>
<!-- cluster_ShiftRegister_io_out_2 -->
<g id="node6" class="node">
<title>cluster_ShiftRegister_io_out_2</title>
<polygon fill="#e0ffff" stroke="black" points="502,-78 427,-78 427,-42 502,-42 502,-78"/>
<text text-anchor="middle" x="464.5" y="-56.3" font-family="Times,serif" font-size="14.00">io_out_2</text>
</g>
<!-- cluster_ShiftRegister_io_out_3 -->
<g id="node7" class="node">
<title>cluster_ShiftRegister_io_out_3</title>
<polygon fill="#e0ffff" stroke="black" points="636,-131 561,-131 561,-95 636,-95 636,-131"/>
<text text-anchor="middle" x="598.5" y="-109.3" font-family="Times,serif" font-size="14.00">io_out_3</text>
</g>
<!-- struct_cluster_ShiftRegister_REG&#45;&gt;cluster_ShiftRegister_io_out_1 -->
<g id="edge6" class="edge">
<title>struct_cluster_ShiftRegister_REG:out&#45;&gt;cluster_ShiftRegister_io_out_1</title>
<path fill="none" stroke="black" d="M204.5,-87C226.64,-87 227.44,-71.37 247,-61 251.46,-58.64 256.16,-56.28 260.9,-54"/>
<polygon fill="black" stroke="black" points="262.42,-57.15 269.97,-49.72 259.43,-50.82 262.42,-57.15"/>
</g>
<!-- struct_cluster_ShiftRegister_REG_1 -->
<g id="node9" class="node">
<title>struct_cluster_ShiftRegister_REG_1</title>
<polygon fill="#ffe4b5" stroke="transparent" points="255,-75.5 255,-100.5 360,-100.5 360,-75.5 255,-75.5"/>
<polygon fill="none" stroke="black" points="255.5,-75 255.5,-100 278.5,-100 278.5,-75 255.5,-75"/>
<text text-anchor="start" x="260.5" y="-83.8" font-family="Times,serif" font-size="14.00">●</text>
<polygon fill="none" stroke="black" points="278.5,-75 278.5,-100 337.5,-100 337.5,-75 278.5,-75"/>
<text text-anchor="start" x="283.5" y="-83.8" font-family="Times,serif" font-size="14.00">REG_1</text>
<polygon fill="none" stroke="black" points="337.5,-75 337.5,-100 360.5,-100 360.5,-75 337.5,-75"/>
<text text-anchor="start" x="342.5" y="-83.8" font-family="Times,serif" font-size="14.00">●</text>
</g>
<!-- struct_cluster_ShiftRegister_REG&#45;&gt;struct_cluster_ShiftRegister_REG_1 -->
<g id="edge4" class="edge">
<title>struct_cluster_ShiftRegister_REG:out&#45;&gt;struct_cluster_ShiftRegister_REG_1:in</title>
<path fill="none" stroke="black" d="M204.5,-87C222.9,-87 229.88,-87 244.35,-87"/>
<polygon fill="black" stroke="black" points="244.5,-90.5 254.5,-87 244.5,-83.5 244.5,-90.5"/>
</g>
<!-- struct_cluster_ShiftRegister_REG_1&#45;&gt;cluster_ShiftRegister_io_out_2 -->
<g id="edge5" class="edge">
<title>struct_cluster_ShiftRegister_REG_1:out&#45;&gt;cluster_ShiftRegister_io_out_2</title>
<path fill="none" stroke="black" d="M361.5,-87C380.03,-87 399.84,-82.78 417.03,-77.69"/>
<polygon fill="black" stroke="black" points="418.32,-80.95 426.81,-74.61 416.22,-74.27 418.32,-80.95"/>
</g>
<!-- struct_cluster_ShiftRegister_REG_2 -->
<g id="node10" class="node">
<title>struct_cluster_ShiftRegister_REG_2</title>
<polygon fill="#ffe4b5" stroke="transparent" points="412,-101.5 412,-126.5 517,-126.5 517,-101.5 412,-101.5"/>
<polygon fill="none" stroke="black" points="412.5,-101 412.5,-126 435.5,-126 435.5,-101 412.5,-101"/>
<text text-anchor="start" x="417.5" y="-109.8" font-family="Times,serif" font-size="14.00">●</text>
<polygon fill="none" stroke="black" points="435.5,-101 435.5,-126 494.5,-126 494.5,-101 435.5,-101"/>
<text text-anchor="start" x="440.5" y="-109.8" font-family="Times,serif" font-size="14.00">REG_2</text>
<polygon fill="none" stroke="black" points="494.5,-101 494.5,-126 517.5,-126 517.5,-101 494.5,-101"/>
<text text-anchor="start" x="499.5" y="-109.8" font-family="Times,serif" font-size="14.00">●</text>
</g>
<!-- struct_cluster_ShiftRegister_REG_1&#45;&gt;struct_cluster_ShiftRegister_REG_2 -->
<g id="edge7" class="edge">
<title>struct_cluster_ShiftRegister_REG_1:out&#45;&gt;struct_cluster_ShiftRegister_REG_2:in</title>
<path fill="none" stroke="black" d="M361.5,-87C382.63,-87 385.87,-105.51 401.41,-111.29"/>
<polygon fill="black" stroke="black" points="401.06,-114.78 411.5,-113 402.22,-107.88 401.06,-114.78"/>
</g>
<!-- struct_cluster_ShiftRegister_REG_2&#45;&gt;cluster_ShiftRegister_io_out_3 -->
<g id="edge1" class="edge">
<title>struct_cluster_ShiftRegister_REG_2:out&#45;&gt;cluster_ShiftRegister_io_out_3</title>
<path fill="none" stroke="black" d="M518.5,-113C528.89,-113 540.05,-113 550.61,-113"/>
<polygon fill="black" stroke="black" points="550.92,-116.5 560.92,-113 550.92,-109.5 550.92,-116.5"/>
</g>
</g>
</svg>
