<?xml version="1.0" encoding="UTF-8" standalone="no"?>
<?xml-stylesheet href="styles.css" type="text/css"?>
<!DOCTYPE svg PUBLIC "-//W3C//DTD SVG 1.1//EN"
 "http://www.w3.org/Graphics/SVG/1.1/DTD/svg11.dtd">
<!-- Generated by graphviz version 3.0.0 (20220226.1711)
 -->
<!-- Title: Neuron Pages: 1 -->
<svg width="243pt" height="369pt"
 viewBox="0.00 0.00 243.00 369.00" xmlns="http://www.w3.org/2000/svg" xmlns:xlink="http://www.w3.org/1999/xlink">
<g id="graph0" class="graph" transform="scale(1 1) rotate(0) translate(4 365)">
<title>Neuron</title>
<polygon fill="white" stroke="transparent" points="-4,4 -4,-365 239,-365 239,4 -4,4"/>
<g id="clust1" class="cluster">
<title>cluster_Neuron</title>
<polygon fill="#fff8dc" stroke="black" points="8,-8 8,-353 227,-353 227,-8 8,-8"/>
<text text-anchor="middle" x="117.5" y="-337.8" font-family="Times,serif" font-size="14.00">Neuron</text>
</g>
<!-- cluster_Neuron_clock -->
<g id="node1" class="node">
<title>cluster_Neuron_clock</title>
<polygon fill="#cccccc" stroke="black" points="97,-322 43,-322 43,-286 97,-286 97,-322"/>
<text text-anchor="middle" x="70" y="-300.3" font-family="Times,serif" font-size="14.00">clock</text>
</g>
<!-- cluster_Neuron_reset -->
<g id="node2" class="node">
<title>cluster_Neuron_reset</title>
<polygon fill="#cccccc" stroke="black" points="97,-268 43,-268 43,-232 97,-232 97,-268"/>
<text text-anchor="middle" x="70" y="-246.3" font-family="Times,serif" font-size="14.00">reset</text>
</g>
<!-- cluster_Neuron_io_in_0 -->
<g id="node3" class="node">
<title>cluster_Neuron_io_in_0</title>
<polygon fill="#cccccc" stroke="black" points="102.5,-214 37.5,-214 37.5,-178 102.5,-178 102.5,-214"/>
<text text-anchor="middle" x="70" y="-192.3" font-family="Times,serif" font-size="14.00">io_in_0</text>
</g>
<!-- cluster_Neuron_io_out -->
<g id="node7" class="node">
<title>cluster_Neuron_io_out</title>
<polygon fill="#e0ffff" stroke="black" points="219,-214 160,-214 160,-178 219,-178 219,-214"/>
<text text-anchor="middle" x="189.5" y="-192.3" font-family="Times,serif" font-size="14.00">io_out</text>
</g>
<!-- cluster_Neuron_io_in_0&#45;&gt;cluster_Neuron_io_out -->
<g id="edge1" class="edge">
<title>cluster_Neuron_io_in_0&#45;&gt;cluster_Neuron_io_out</title>
<path fill="none" stroke="black" d="M102.8,-196C117.27,-196 134.52,-196 149.74,-196"/>
<polygon fill="black" stroke="black" points="149.89,-199.5 159.89,-196 149.89,-192.5 149.89,-199.5"/>
</g>
<!-- cluster_Neuron_io_in_1 -->
<g id="node4" class="node">
<title>cluster_Neuron_io_in_1</title>
<polygon fill="#cccccc" stroke="black" points="102.5,-160 37.5,-160 37.5,-124 102.5,-124 102.5,-160"/>
<text text-anchor="middle" x="70" y="-138.3" font-family="Times,serif" font-size="14.00">io_in_1</text>
</g>
<!-- cluster_Neuron_io_weights_0 -->
<g id="node5" class="node">
<title>cluster_Neuron_io_weights_0</title>
<polygon fill="#cccccc" stroke="black" points="124,-106 16,-106 16,-70 124,-70 124,-106"/>
<text text-anchor="middle" x="70" y="-84.3" font-family="Times,serif" font-size="14.00">io_weights_0</text>
</g>
<!-- cluster_Neuron_io_weights_1 -->
<g id="node6" class="node">
<title>cluster_Neuron_io_weights_1</title>
<polygon fill="#cccccc" stroke="black" points="124,-52 16,-52 16,-16 124,-16 124,-52"/>
<text text-anchor="middle" x="70" y="-30.3" font-family="Times,serif" font-size="14.00">io_weights_1</text>
</g>
</g>
</svg>
