<?xml version="1.0" encoding="UTF-8" standalone="no"?>
<?xml-stylesheet href="styles.css" type="text/css"?>
<!DOCTYPE svg PUBLIC "-//W3C//DTD SVG 1.1//EN"
 "http://www.w3.org/Graphics/SVG/1.1/DTD/svg11.dtd">
<!-- Generated by graphviz version 3.0.0 (20220226.1711)
 -->
<!-- Title: MovingAverage3 Pages: 1 -->
<svg width="1223pt" height="229pt"
 viewBox="0.00 0.00 1223.00 229.00" xmlns="http://www.w3.org/2000/svg" xmlns:xlink="http://www.w3.org/1999/xlink">
<g id="graph0" class="graph" transform="scale(1 1) rotate(0) translate(4 225)">
<title>MovingAverage3</title>
<polygon fill="white" stroke="transparent" points="-4,4 -4,-225 1219,-225 1219,4 -4,4"/>
<g id="clust1" class="cluster">
<title>cluster_MovingAverage3</title>
<polygon fill="#fff8dc" stroke="black" points="8,-8 8,-213 1207,-213 1207,-8 8,-8"/>
<text text-anchor="middle" x="607.5" y="-197.8" font-family="Times,serif" font-size="14.00">MovingAverage3</text>
</g>
<!-- cluster_MovingAverage3_clock -->
<g id="node1" class="node">
<title>cluster_MovingAverage3_clock</title>
<polygon fill="#cccccc" stroke="black" points="70,-182 16,-182 16,-146 70,-146 70,-182"/>
<text text-anchor="middle" x="43" y="-160.3" font-family="Times,serif" font-size="14.00">clock</text>
</g>
<!-- cluster_MovingAverage3_reset -->
<g id="node2" class="node">
<title>cluster_MovingAverage3_reset</title>
<polygon fill="#cccccc" stroke="black" points="70,-128 16,-128 16,-92 70,-92 70,-128"/>
<text text-anchor="middle" x="43" y="-106.3" font-family="Times,serif" font-size="14.00">reset</text>
</g>
<!-- cluster_MovingAverage3_io_in -->
<g id="node3" class="node">
<title>cluster_MovingAverage3_io_in</title>
<polygon fill="#cccccc" stroke="black" points="70,-74 16,-74 16,-38 70,-38 70,-74"/>
<text text-anchor="middle" x="43" y="-52.3" font-family="Times,serif" font-size="14.00">io_in</text>
</g>
<!-- struct_cluster_MovingAverage3_z1 -->
<g id="node5" class="node">
<title>struct_cluster_MovingAverage3_z1</title>
<polygon fill="#ffe4b5" stroke="transparent" points="124,-44.5 124,-69.5 197,-69.5 197,-44.5 124,-44.5"/>
<polygon fill="none" stroke="black" points="124.5,-44 124.5,-69 147.5,-69 147.5,-44 124.5,-44"/>
<text text-anchor="start" x="129.5" y="-52.8" font-family="Times,serif" font-size="14.00">●</text>
<polygon fill="none" stroke="black" points="147.5,-44 147.5,-69 174.5,-69 174.5,-44 147.5,-44"/>
<text text-anchor="start" x="152.5" y="-52.8" font-family="Times,serif" font-size="14.00">z1</text>
<polygon fill="none" stroke="black" points="174.5,-44 174.5,-69 197.5,-69 197.5,-44 174.5,-44"/>
<text text-anchor="start" x="179.5" y="-52.8" font-family="Times,serif" font-size="14.00">●</text>
</g>
<!-- cluster_MovingAverage3_io_in&#45;&gt;struct_cluster_MovingAverage3_z1 -->
<g id="edge2" class="edge">
<title>cluster_MovingAverage3_io_in&#45;&gt;struct_cluster_MovingAverage3_z1:in</title>
<path fill="none" stroke="black" d="M70.14,-56C82.74,-56 98.34,-56 113.29,-56"/>
<polygon fill="black" stroke="black" points="113.5,-59.5 123.5,-56 113.5,-52.5 113.5,-59.5"/>
</g>
<!-- op_mul_1 -->
<g id="node8" class="node">
<title>op_mul_1</title>
<polygon fill="#d8bfd8" stroke="transparent" points="114,-112 114,-162 207,-162 207,-112 114,-112"/>
<polygon fill="none" stroke="black" points="114.5,-137 114.5,-162 137.5,-162 137.5,-137 114.5,-137"/>
<text text-anchor="start" x="119.5" y="-145.8" font-family="Times,serif" font-size="14.00">●</text>
<polygon fill="none" stroke="black" points="137.5,-112 137.5,-162 184.5,-162 184.5,-112 137.5,-112"/>
<text text-anchor="start" x="142.5" y="-133.3" font-family="Times,serif" font-size="14.00"> mul </text>
<polygon fill="none" stroke="black" points="184.5,-112 184.5,-162 207.5,-162 207.5,-112 184.5,-112"/>
<text text-anchor="start" x="189.5" y="-133.3" font-family="Times,serif" font-size="14.00">●</text>
<polygon fill="none" stroke="black" points="114.5,-112 114.5,-137 137.5,-137 137.5,-112 114.5,-112"/>
<text text-anchor="start" x="121" y="-120.8" font-family="Times,serif" font-size="14.00">1</text>
</g>
<!-- cluster_MovingAverage3_io_in&#45;&gt;op_mul_1 -->
<g id="edge7" class="edge">
<title>cluster_MovingAverage3_io_in&#45;&gt;op_mul_1:in1</title>
<path fill="none" stroke="black" d="M62.39,-74.17C65.03,-77.04 67.65,-80.04 70,-83 89.67,-107.76 80.64,-141.56 103.52,-148.66"/>
<polygon fill="black" stroke="black" points="103.12,-152.14 113.5,-150 104.05,-145.2 103.12,-152.14"/>
</g>
<!-- cluster_MovingAverage3_io_out -->
<g id="node4" class="node">
<title>cluster_MovingAverage3_io_out</title>
<polygon fill="#e0ffff" stroke="black" points="1199,-81 1140,-81 1140,-45 1199,-45 1199,-81"/>
<text text-anchor="middle" x="1169.5" y="-59.3" font-family="Times,serif" font-size="14.00">io_out</text>
</g>
<!-- struct_cluster_MovingAverage3_z2 -->
<g id="node6" class="node">
<title>struct_cluster_MovingAverage3_z2</title>
<polygon fill="#ffe4b5" stroke="transparent" points="269,-21.5 269,-46.5 342,-46.5 342,-21.5 269,-21.5"/>
<polygon fill="none" stroke="black" points="269.5,-21 269.5,-46 292.5,-46 292.5,-21 269.5,-21"/>
<text text-anchor="start" x="274.5" y="-29.8" font-family="Times,serif" font-size="14.00">●</text>
<polygon fill="none" stroke="black" points="292.5,-21 292.5,-46 319.5,-46 319.5,-21 292.5,-21"/>
<text text-anchor="start" x="297.5" y="-29.8" font-family="Times,serif" font-size="14.00">z2</text>
<polygon fill="none" stroke="black" points="319.5,-21 319.5,-46 342.5,-46 342.5,-21 319.5,-21"/>
<text text-anchor="start" x="324.5" y="-29.8" font-family="Times,serif" font-size="14.00">●</text>
</g>
<!-- struct_cluster_MovingAverage3_z1&#45;&gt;struct_cluster_MovingAverage3_z2 -->
<g id="edge11" class="edge">
<title>struct_cluster_MovingAverage3_z1:out&#45;&gt;struct_cluster_MovingAverage3_z2:in</title>
<path fill="none" stroke="black" d="M198.5,-56C227.54,-56 234.37,-37.92 258.38,-33.82"/>
<polygon fill="black" stroke="black" points="258.81,-37.29 268.5,-33 258.25,-30.32 258.81,-37.29"/>
</g>
<!-- op_mul_7 -->
<g id="node14" class="node">
<title>op_mul_7</title>
<polygon fill="#d8bfd8" stroke="transparent" points="259,-74 259,-124 352,-124 352,-74 259,-74"/>
<polygon fill="none" stroke="black" points="259.5,-99 259.5,-124 282.5,-124 282.5,-99 259.5,-99"/>
<text text-anchor="start" x="264.5" y="-107.8" font-family="Times,serif" font-size="14.00">●</text>
<polygon fill="none" stroke="black" points="282.5,-74 282.5,-124 329.5,-124 329.5,-74 282.5,-74"/>
<text text-anchor="start" x="287.5" y="-95.3" font-family="Times,serif" font-size="14.00"> mul </text>
<polygon fill="none" stroke="black" points="329.5,-74 329.5,-124 352.5,-124 352.5,-74 329.5,-74"/>
<text text-anchor="start" x="334.5" y="-95.3" font-family="Times,serif" font-size="14.00">●</text>
<polygon fill="none" stroke="black" points="259.5,-74 259.5,-99 282.5,-99 282.5,-74 259.5,-74"/>
<text text-anchor="start" x="266" y="-82.8" font-family="Times,serif" font-size="14.00">1</text>
</g>
<!-- struct_cluster_MovingAverage3_z1&#45;&gt;op_mul_7 -->
<g id="edge1" class="edge">
<title>struct_cluster_MovingAverage3_z1:out&#45;&gt;op_mul_7:in1</title>
<path fill="none" stroke="black" d="M198.5,-56C231.13,-56 224.21,-100.81 248.49,-110.26"/>
<polygon fill="black" stroke="black" points="248.05,-113.74 258.5,-112 249.25,-106.84 248.05,-113.74"/>
</g>
<!-- op_mul_8 -->
<g id="node15" class="node">
<title>op_mul_8</title>
<polygon fill="#d8bfd8" stroke="transparent" points="548,-20 548,-70 641,-70 641,-20 548,-20"/>
<polygon fill="none" stroke="black" points="548.5,-45 548.5,-70 571.5,-70 571.5,-45 548.5,-45"/>
<text text-anchor="start" x="553.5" y="-53.8" font-family="Times,serif" font-size="14.00">●</text>
<polygon fill="none" stroke="black" points="571.5,-20 571.5,-70 618.5,-70 618.5,-20 571.5,-20"/>
<text text-anchor="start" x="576.5" y="-41.3" font-family="Times,serif" font-size="14.00"> mul </text>
<polygon fill="none" stroke="black" points="618.5,-20 618.5,-70 641.5,-70 641.5,-20 618.5,-20"/>
<text text-anchor="start" x="623.5" y="-41.3" font-family="Times,serif" font-size="14.00">●</text>
<polygon fill="none" stroke="black" points="548.5,-20 548.5,-45 571.5,-45 571.5,-20 548.5,-20"/>
<text text-anchor="start" x="555" y="-28.8" font-family="Times,serif" font-size="14.00">1</text>
</g>
<!-- struct_cluster_MovingAverage3_z2&#45;&gt;op_mul_8 -->
<g id="edge5" class="edge">
<title>struct_cluster_MovingAverage3_z2:out&#45;&gt;op_mul_8:in1</title>
<path fill="none" stroke="black" d="M343.5,-33C431.37,-33 454.43,-56.13 537.36,-57.89"/>
<polygon fill="black" stroke="black" points="537.46,-61.4 547.5,-58 537.54,-54.4 537.46,-61.4"/>
</g>
<!-- cluster_MovingAverage3__T -->
<g id="node7" class="node">
<title>cluster_MovingAverage3__T</title>
<polygon fill="none" stroke="black" points="332.5,-182 278.5,-182 278.5,-146 332.5,-146 332.5,-182"/>
<text text-anchor="middle" x="305.5" y="-160.3" font-family="Times,serif" font-size="14.00">_T</text>
</g>
<!-- op_add_6 -->
<g id="node13" class="node">
<title>op_add_6</title>
<polygon fill="#d8bfd8" stroke="transparent" points="404,-109 404,-159 496,-159 496,-109 404,-109"/>
<polygon fill="none" stroke="black" points="404,-134 404,-159 427,-159 427,-134 404,-134"/>
<text text-anchor="start" x="409" y="-142.8" font-family="Times,serif" font-size="14.00">●</text>
<polygon fill="none" stroke="black" points="427,-109 427,-159 473,-159 473,-109 427,-109"/>
<text text-anchor="start" x="432" y="-130.3" font-family="Times,serif" font-size="14.00"> add </text>
<polygon fill="none" stroke="black" points="473,-109 473,-159 496,-159 496,-109 473,-109"/>
<text text-anchor="start" x="478" y="-130.3" font-family="Times,serif" font-size="14.00">●</text>
<polygon fill="none" stroke="black" points="404,-109 404,-134 427,-134 427,-109 404,-109"/>
<text text-anchor="start" x="409" y="-117.8" font-family="Times,serif" font-size="14.00">●</text>
</g>
<!-- cluster_MovingAverage3__T&#45;&gt;op_add_6 -->
<g id="edge9" class="edge">
<title>cluster_MovingAverage3__T&#45;&gt;op_add_6:in1</title>
<path fill="none" stroke="black" d="M332.9,-156.79C349.47,-152.81 371.62,-148.44 392.74,-147.29"/>
<polygon fill="black" stroke="black" points="393.1,-150.78 403,-147 392.91,-143.78 393.1,-150.78"/>
</g>
<!-- op_mul_1&#45;&gt;cluster_MovingAverage3__T -->
<g id="edge8" class="edge">
<title>op_mul_1:out&#45;&gt;cluster_MovingAverage3__T</title>
<path fill="none" stroke="black" d="M208.5,-137C228.95,-137 250.97,-142.75 268.75,-148.94"/>
<polygon fill="black" stroke="black" points="267.57,-152.23 278.16,-152.39 269.98,-145.66 267.57,-152.23"/>
</g>
<!-- op_bits_2 -->
<g id="node9" class="node">
<title>op_bits_2</title>
<polygon fill="#d8bfd8" stroke="transparent" points="978,-38 978,-88 1096,-88 1096,-38 978,-38"/>
<polygon fill="none" stroke="black" points="978,-63 978,-88 1026,-88 1026,-63 978,-63"/>
<text text-anchor="start" x="995.5" y="-71.8" font-family="Times,serif" font-size="14.00">●</text>
<polygon fill="none" stroke="black" points="1026,-38 1026,-88 1073,-88 1073,-38 1026,-38"/>
<text text-anchor="start" x="1031" y="-59.3" font-family="Times,serif" font-size="14.00"> bits </text>
<polygon fill="none" stroke="black" points="1073,-38 1073,-88 1096,-88 1096,-38 1073,-38"/>
<text text-anchor="start" x="1078" y="-59.3" font-family="Times,serif" font-size="14.00">●</text>
<polygon fill="none" stroke="black" points="978,-38 978,-63 1026,-63 1026,-38 978,-38"/>
<text text-anchor="start" x="983" y="-46.8" font-family="Times,serif" font-size="14.00">(7, 0)</text>
</g>
<!-- op_bits_2&#45;&gt;cluster_MovingAverage3_io_out -->
<g id="edge12" class="edge">
<title>op_bits_2:out&#45;&gt;cluster_MovingAverage3_io_out</title>
<path fill="none" stroke="black" d="M1097,-63C1107.61,-63 1119.11,-63 1129.72,-63"/>
<polygon fill="black" stroke="black" points="1129.97,-66.5 1139.97,-63 1129.97,-59.5 1129.97,-66.5"/>
</g>
<!-- op_tail_3 -->
<g id="node10" class="node">
<title>op_tail_3</title>
<polygon fill="#d8bfd8" stroke="transparent" points="837,-51 837,-101 926,-101 926,-51 837,-51"/>
<polygon fill="none" stroke="black" points="837.5,-76 837.5,-101 860.5,-101 860.5,-76 837.5,-76"/>
<text text-anchor="start" x="842.5" y="-84.8" font-family="Times,serif" font-size="14.00">●</text>
<polygon fill="none" stroke="black" points="860.5,-51 860.5,-101 903.5,-101 903.5,-51 860.5,-51"/>
<text text-anchor="start" x="865.5" y="-72.3" font-family="Times,serif" font-size="14.00"> tail </text>
<polygon fill="none" stroke="black" points="903.5,-51 903.5,-101 926.5,-101 926.5,-51 903.5,-51"/>
<text text-anchor="start" x="908.5" y="-72.3" font-family="Times,serif" font-size="14.00">●</text>
<polygon fill="none" stroke="black" points="837.5,-51 837.5,-76 860.5,-76 860.5,-51 837.5,-51"/>
<text text-anchor="start" x="844" y="-59.8" font-family="Times,serif" font-size="14.00">1</text>
</g>
<!-- op_tail_3&#45;&gt;op_bits_2 -->
<g id="edge4" class="edge">
<title>op_tail_3:out&#45;&gt;op_bits_2:in1</title>
<path fill="none" stroke="black" d="M927.5,-76C945.72,-76 952.62,-76 966.95,-76"/>
<polygon fill="black" stroke="black" points="967,-79.5 977,-76 967,-72.5 967,-79.5"/>
</g>
<!-- op_add_4 -->
<g id="node11" class="node">
<title>op_add_4</title>
<polygon fill="#d8bfd8" stroke="transparent" points="693,-64 693,-114 785,-114 785,-64 693,-64"/>
<polygon fill="none" stroke="black" points="693,-89 693,-114 716,-114 716,-89 693,-89"/>
<text text-anchor="start" x="698" y="-97.8" font-family="Times,serif" font-size="14.00">●</text>
<polygon fill="none" stroke="black" points="716,-64 716,-114 762,-114 762,-64 716,-64"/>
<text text-anchor="start" x="721" y="-85.3" font-family="Times,serif" font-size="14.00"> add </text>
<polygon fill="none" stroke="black" points="762,-64 762,-114 785,-114 785,-64 762,-64"/>
<text text-anchor="start" x="767" y="-85.3" font-family="Times,serif" font-size="14.00">●</text>
<polygon fill="none" stroke="black" points="693,-64 693,-89 716,-89 716,-64 693,-64"/>
<text text-anchor="start" x="698" y="-72.8" font-family="Times,serif" font-size="14.00">●</text>
</g>
<!-- op_add_4&#45;&gt;op_tail_3 -->
<g id="edge6" class="edge">
<title>op_add_4:out&#45;&gt;op_tail_3:in1</title>
<path fill="none" stroke="black" d="M786,-89C804.59,-89 811.63,-89 826.25,-89"/>
<polygon fill="black" stroke="black" points="826.5,-92.5 836.5,-89 826.5,-85.5 826.5,-92.5"/>
</g>
<!-- op_tail_5 -->
<g id="node12" class="node">
<title>op_tail_5</title>
<polygon fill="#d8bfd8" stroke="transparent" points="550,-96 550,-146 639,-146 639,-96 550,-96"/>
<polygon fill="none" stroke="black" points="550.5,-121 550.5,-146 573.5,-146 573.5,-121 550.5,-121"/>
<text text-anchor="start" x="555.5" y="-129.8" font-family="Times,serif" font-size="14.00">●</text>
<polygon fill="none" stroke="black" points="573.5,-96 573.5,-146 616.5,-146 616.5,-96 573.5,-96"/>
<text text-anchor="start" x="578.5" y="-117.3" font-family="Times,serif" font-size="14.00"> tail </text>
<polygon fill="none" stroke="black" points="616.5,-96 616.5,-146 639.5,-146 639.5,-96 616.5,-96"/>
<text text-anchor="start" x="621.5" y="-117.3" font-family="Times,serif" font-size="14.00">●</text>
<polygon fill="none" stroke="black" points="550.5,-96 550.5,-121 573.5,-121 573.5,-96 550.5,-96"/>
<text text-anchor="start" x="557" y="-104.8" font-family="Times,serif" font-size="14.00">1</text>
</g>
<!-- op_tail_5&#45;&gt;op_add_4 -->
<g id="edge14" class="edge">
<title>op_tail_5:out&#45;&gt;op_add_4:in1</title>
<path fill="none" stroke="black" d="M640.5,-121C661.08,-121 666.23,-107.47 681.99,-103.25"/>
<polygon fill="black" stroke="black" points="682.51,-106.71 692,-102 681.64,-99.76 682.51,-106.71"/>
</g>
<!-- op_add_6&#45;&gt;op_tail_5 -->
<g id="edge13" class="edge">
<title>op_add_6:out&#45;&gt;op_tail_5:in1</title>
<path fill="none" stroke="black" d="M497,-134C516.51,-134 523.78,-134 539.27,-134"/>
<polygon fill="black" stroke="black" points="539.5,-137.5 549.5,-134 539.5,-130.5 539.5,-137.5"/>
</g>
<!-- op_mul_7&#45;&gt;op_add_6 -->
<g id="edge3" class="edge">
<title>op_mul_7:out&#45;&gt;op_add_6:in2</title>
<path fill="none" stroke="black" d="M353.5,-99C373.63,-99 377.87,-114.37 392.78,-119.42"/>
<polygon fill="black" stroke="black" points="392.58,-122.93 403,-121 393.65,-116.01 392.58,-122.93"/>
</g>
<!-- op_mul_8&#45;&gt;op_add_4 -->
<g id="edge10" class="edge">
<title>op_mul_8:out&#45;&gt;op_add_4:in2</title>
<path fill="none" stroke="black" d="M642.5,-45C664.61,-45 666.13,-67.48 682.13,-74.15"/>
<polygon fill="black" stroke="black" points="681.53,-77.6 692,-76 682.81,-70.72 681.53,-77.6"/>
</g>
</g>
</svg>
