<?xml version="1.0" encoding="UTF-8" standalone="no"?>
<?xml-stylesheet href="styles.css" type="text/css"?>
<!DOCTYPE svg PUBLIC "-//W3C//DTD SVG 1.1//EN"
 "http://www.w3.org/Graphics/SVG/1.1/DTD/svg11.dtd">
<!-- Generated by graphviz version 3.0.0 (20220226.1711)
 -->
<!-- Title: Good Pages: 1 -->
<svg width="189pt" height="207pt"
 viewBox="0.00 0.00 189.00 207.00" xmlns="http://www.w3.org/2000/svg" xmlns:xlink="http://www.w3.org/1999/xlink">
<g id="graph0" class="graph" transform="scale(1 1) rotate(0) translate(4 203)">
<title>Good</title>
<polygon fill="white" stroke="transparent" points="-4,4 -4,-203 185,-203 185,4 -4,4"/>
<g id="clust1" class="cluster">
<title>cluster_Good</title>
<polygon fill="#fff8dc" stroke="black" points="8,-8 8,-191 173,-191 173,-8 8,-8"/>
<text text-anchor="middle" x="90.5" y="-175.8" font-family="Times,serif" font-size="14.00">Good</text>
</g>
<!-- cluster_Good_clock -->
<g id="node1" class="node">
<title>cluster_Good_clock</title>
<polygon fill="#cccccc" stroke="black" points="70,-160 16,-160 16,-124 70,-124 70,-160"/>
<text text-anchor="middle" x="43" y="-138.3" font-family="Times,serif" font-size="14.00">clock</text>
</g>
<!-- cluster_Good_reset -->
<g id="node2" class="node">
<title>cluster_Good_reset</title>
<polygon fill="#cccccc" stroke="black" points="70,-106 16,-106 16,-70 70,-70 70,-106"/>
<text text-anchor="middle" x="43" y="-84.3" font-family="Times,serif" font-size="14.00">reset</text>
</g>
<!-- cluster_Good_io_out -->
<g id="node3" class="node">
<title>cluster_Good_io_out</title>
<polygon fill="#e0ffff" stroke="black" points="165,-52 106,-52 106,-16 165,-16 165,-52"/>
<text text-anchor="middle" x="135.5" y="-30.3" font-family="Times,serif" font-size="14.00">io_out</text>
</g>
<!-- cluster_Good_lit1 -->
<g id="node4" class="node">
<title>cluster_Good_lit1</title>
<ellipse fill="lightgrey" stroke="black" cx="43" cy="-34" rx="18" ry="18"/>
<text text-anchor="middle" x="43" y="-30.3" font-family="Times,serif" font-size="14.00">0</text>
</g>
<!-- cluster_Good_lit1&#45;&gt;cluster_Good_io_out -->
<g id="edge1" class="edge">
<title>cluster_Good_lit1&#45;&gt;cluster_Good_io_out</title>
<path fill="none" stroke="black" d="M61.02,-34C70.76,-34 83.41,-34 95.46,-34"/>
<polygon fill="black" stroke="black" points="95.81,-37.5 105.81,-34 95.81,-30.5 95.81,-37.5"/>
</g>
</g>
</svg>
